<svg xmlns="http://www.w3.org/2000/svg" xml:space="preserve" viewBox="0 0 662 128.1"><path d="M195.7.7c-.4.3-.7 5.3-.7 10.9v10.3l3.8.3 3.7.3.5 52.5.5 52.5 11.8.3 11.7.3V3.1l-2.2-1.5C223 .3 219.7 0 209.4 0c-7.2 0-13.4.3-13.7.7zM249 11v11h24.8c21.5 0 25.2.2 28.2 1.8 7.6 3.7 9 13.5 2.8 19.9-4.4 4.7-10 7.4-24.3 11.8-19.8 6.2-27.2 11.1-32.2 21.3l-2.8 5.7v45l42.3.3 42.2.2v-22l-28.2-.2-28.3-.3-.3-8c-.2-4.4 0-9 .3-10.2.8-3.2 7.1-6.5 22.4-11.7 24.3-8.3 29.4-11.4 33.8-20.3 2.6-5.3 2.8-6.7 2.8-17.3 0-10.3-.3-12.1-2.6-17-4.8-10.2-11.8-16.4-21.9-19.4C303.7.3 297.4 0 275.8 0H249v11zm100-.1v11l28.3.3c25 .3 28.6.5 31 2.1 3.9 2.6 6 6.2 6 10.8s-2.3 8.3-7.3 11.6c-3.2 2.2-4.2 2.3-24.2 2.3h-20.9l.3 10.7.3 10.8 21.1.5 21.1.5 3.6 2.8c4.9 3.7 6.9 7.8 7 14.7.1 4.8-.3 6.3-2.6 9.4-5.5 7.2-5 7.1-35.9 7.4l-27.8.3V128h33.3c39.9 0 40.9-.2 49.7-8.8 9.1-9 12.4-20.7 10-35.3-1.6-9.7-3.9-14.8-8.8-19.6l-4.1-3.9 3.4-1.8c7.1-3.8 10.2-12.7 9.2-26.3-.9-12.8-7.2-22.5-17.5-27.3-8.9-4.2-15.9-5-46.4-5H349v10.9zM459 64v64.1l12.8-.3 12.7-.3.3-23.3.2-23.2h13.1c12.9 0 13.1 0 15.8 2.7 1.9 2 4.6 8.1 9 20.8 3.5 9.9 7 19.2 7.8 20.7l1.4 2.8h13.4c12.8 0 14.7-.4 12.6-2.5-.5-.6-3.7-9.7-7.1-20.3-3.6-10.9-7.7-21.7-9.6-24.9-1.9-3-3.4-5.9-3.4-6.4s1.3-1.5 2.9-2.3c4.3-2.3 9.8-9.2 11.8-15 1.3-3.9 1.7-8.3 1.7-18.6 0-16.5-2-22.7-9.3-30-7.8-7.8-9-8-50.3-8H459v64zm65.9-38.4c7.2 6 6.3 22.1-1.5 28.3-2.5 2-3.9 2.1-20.5 2.1H485V40.2c0-8.7.3-16.2.7-16.5.3-.4 8.6-.7 18.4-.7 17.6 0 17.8 0 20.8 2.6zm63.8-24.2c-6.7 2.4-11.3 6.2-13.8 11.3l-2.4 4.8v110l12.7.3 12.8.3.2-26.3.3-26.3 28.8-.3L656 75V52l-28.7-.2-28.8-.3-.3-10.5c-.3-11.5.6-15.2 4.4-16.9 1.7-.7 11.9-1.1 30.9-1.1H662V0h-34.7c-26.7.1-35.7.4-38.6 1.4z"/><path fill="#FFCE34" d="M35 2.6c-1.9.8-4.6 2.5-5.9 3.7-2.6 2.4-7.1 11.2-7.1 14 0 3.3-3.3 6.8-9 9.7-3.1 1.6-7.3 4.7-9.3 6.9L0 41v37.4c0 37.1 0 37.3 2.3 40.7 1.2 1.8 3.8 4.4 5.6 5.6l3.4 2.3h134l4.3-2.5c2.8-1.6 4.9-3.9 6.3-6.8 2-4.1 2.1-5.8 2.1-39 0-37.9-.2-39.1-5.7-43.8-1.6-1.4-5.5-3.8-8.6-5.3-5.5-2.8-8.7-6.9-8.7-11 0-3.7-5.1-11.7-9.2-14.3l-4.2-2.8-41.5-.2C44.6 1.1 38 1.3 35 2.6zm83.4 6.8c5 2.1 7.4 5.3 9.6 12.6 2.6 8.7 4 10.5 11.2 14.1 3.3 1.7 7.1 4.1 8.4 5.4l2.4 2.4v34.6c0 38.1 0 38.3-6.2 40.4-1.7.6-6.3 1.1-10.3 1.1h-7.2l-4.5-5.8c-2.5-3.2-6.7-7.2-9.3-9l-4.8-3.2H49.3l-3.9 2.8c-4.2 3.1-13.4 12.9-13.4 14.3 0 1.6-15.8 1-19-.6-6.1-3.1-6-2.8-6-39.3 0-38.9-.4-37.3 9.8-42.4C24.3 33 27.5 29.5 29 23.7c.6-2.3 1.6-5.5 2.2-7 1.2-3 6-7.2 9.3-8 1.1-.2 18.3-.5 38.3-.6 28.9-.1 36.9.2 39.6 1.3z"/><path d="M72.3 33C49 37.8 40.2 66.2 56.9 82.9c5.7 5.7 11.4 8.3 19.3 8.9 9.5.7 15.7-1.7 23-8.9 7-6.9 9.4-13.6 8.5-23.6-1.7-17.7-18-29.8-35.4-26.3z"/></svg>