<svg xmlns="http://www.w3.org/2000/svg" xml:space="preserve" viewBox="0 0 280.3 45.6"><path fill="#000B1D" d="M0 37.2V8.4c0-.5 0-1.1.2-1.6 0-.5.2-1.1.4-1.5.2-.5.5-1 .8-1.5s.6-.9 1-1.3.8-.7 1.3-1S4.6.9 5.2.7c.5-.2 1-.4 1.6-.5C7.3.1 7.9 0 8.4 0h30.5c.5 0 1.1.1 1.6.2s1.1.3 1.6.5 1 .5 1.5.8.9.6 1.3 1 .7.8 1 1.3.6.9.8 1.5c.2.5.4 1 .5 1.6.1.5.2 1.1.2 1.6v28.8c0 .5 0 1.1-.2 1.6-.1.5-.3 1.1-.5 1.6s-.5 1-.8 1.4c-.3.5-.6.9-1 1.3s-.8.7-1.3 1-.9.6-1.5.8c-1 .4-2.1.7-3.2.6H8.3c-.5 0-1.1 0-1.6-.2-.5-.1-1.1-.3-1.6-.5s-1-.5-1.5-.8c-.4-.3-.9-.6-1.3-1s-.7-.8-1-1.3-.6-.9-.8-1.4c-.3-1-.5-2.1-.5-3.2z"/><path fill="#FFF" d="M16.7 33.2c-1.1 0-2.1-.1-3.1-.3-.8-.2-1.6-.4-2.4-.8-.2-.1-.2-.3-.2-.5v-3.7c0-.1 0-.1.1-.2h.2c.9.5 1.8.9 2.8 1.2.9.3 1.9.4 2.9.4.9.1 1.8-.1 2.5-.5.5-.3.8-.8.8-1.4 0-.3-.1-.7-.2-.9-.2-.3-.5-.6-.9-.8-.5-.3-1.1-.6-1.7-.8l-1.6-.7c-1.1-.4-2.1-1-3-1.7-.7-.5-1.2-1.2-1.5-2-.3-.7-.4-1.5-.4-2.3 0-1.1.3-2.1.8-3 .6-1 1.5-1.7 2.5-2.2 1.3-.6 2.7-.8 4.1-.8.9 0 1.9.1 2.8.2.7.1 1.4.3 2.1.6.1.1.2.2.2.4v3.5c0 .1 0 .1-.1.1h-.2c-.7-.4-1.4-.6-2.2-.8-.9-.1-1.7-.2-2.6-.2-.5 0-1 0-1.5.1-.3.1-.7.2-1 .4-.2.1-.4.3-.6.6-.1.2-.2.5-.2.7 0 .3.1.6.3.9.3.3.6.6 1 .8l1.8.9 1.1.4c1.1.4 2.2 1 3.2 1.8.7.5 1.3 1.3 1.6 2.1.3.8.5 1.6.5 2.4 0 1.2-.3 2.3-1 3.2-.7 1-1.6 1.7-2.7 2.1-1.4.6-2.8.9-4.2.8zM35 29.8v2.5c0 .2-.1.4-.2.4l-1.2.3c-.5.1-1 .1-1.5.1-1.1.1-2.3-.3-3.2-1-.8-.9-1.3-2.2-1.2-3.4V21h-1.8c-.2 0-.2-.1-.2-.3v-3c0-.2.1-.2.3-.2h1.9c0-.4 0-.8.1-1.2.1-.4.1-.9.1-1.4s.1-.9.1-1.1c0-.1.1-.1.1-.2l.1-.1 3.7-.5h.2s.1.1.1.2c0 .5-.1 1.1-.1 2 0 .9 0 1.6-.1 2.4h2.9c.1 0 .2.1.2.2V21c0 .1 0 .2-.2.2h-3v6.5c0 .5.1 1.1.3 1.5.3.4.8.5 1.3.5.3 0 .7 0 1-.1h.2c0 .1.1.1.1.2z"/><path fill="#070707" d="M66.3 25.7H73c-.1-.6-.3-1.2-.6-1.9s-.4-1.4-.7-2.3l-.8-2.5c-.3-.7-.4-1.6-.7-2.3-.3-.7-.4-1.3-.6-2-.3 1-.6 2-.9 3.3-.3 1.3-.7 2.6-1.2 3.9-.3 1.3-.8 2.6-1.2 3.8zm8.2 5.2h-9.8l-2 6.2c0 .3-.3.4-.4.3h-4.9c-.3 0-.4-.1-.3-.4l8.4-24.1c.1-.3.1-.6.3-.9.1-.6.1-1.2.1-1.7 0-.1.1-.3.3-.3H73c.1 0 .3.1.3.3l9.5 26.9c.1.3 0 .4-.1.4h-5.5c-.1 0-.4-.1-.4-.3-.1 0-2.3-6.4-2.3-6.4zm22.9 1.7V21.2c-.3-.1-.4-.1-.7-.1h-.9c-1 0-2 .1-3 .7-.9.4-1.6 1.2-2.2 1.9-.6 1-.9 2.2-.9 3.3 0 .9.1 1.9.4 2.7.3.7.7 1.3 1.2 1.9.4.4 1.2.9 1.7 1.2.7.3 1.4.4 2.3.3h1c.4-.2.8-.3 1.1-.5zM94.8 38c-1.9 0-3.9-.4-5.6-1.2-1.6-.7-3-2-3.9-3.6-1-1.9-1.4-3.9-1.4-5.9 0-1.9.4-3.9 1.4-5.5 1-1.7 2.5-3.2 4.2-4 2-1 4.3-1.6 6.7-1.4h1.4V8.1c0-.1.1-.3.3-.3h5.4c.1 0 .3.1.3.3v26.6c0 .6 0 1.2.1 1.4.1.3-.1.3-.3.4-1.4.6-2.9 1-4.3 1.3-1.7 0-3 .2-4.3.2zm22.1-16.9c-.7 0-1.6.3-2.2.7-.7.6-1.2 1.3-1.4 2-.4 1-.6 2.2-.6 3.2 0 1.2.1 2.2.6 3.2.3.9.9 1.6 1.6 2.2.7.6 1.6.7 2.5.7.7 0 1.6-.3 2.2-.7.7-.6 1.3-1.3 1.6-2 .4-1 .6-2.2.6-3.3 0-1-.1-2-.4-3-.3-.9-.7-1.6-1.4-2.2-1.2-.7-2.2-1-3.1-.8zm.2-4.9c1.6 0 3 .3 4.5.9 1.2.6 2.3 1.4 3.2 2.5.9 1 1.6 2.2 1.9 3.5.4 1.3.7 2.7.6 4 0 2-.4 4-1.3 5.8-.9 1.6-2 2.9-3.6 3.9s-3.5 1.4-5.4 1.4c-1.6 0-3.2-.3-4.6-1-1.3-.6-2.3-1.4-3.2-2.5-.9-1-1.4-2.2-1.9-3.5-.4-1.3-.6-2.6-.6-4 0-1.9.4-3.8 1.3-5.5.9-1.6 2.2-3 3.6-3.9 1.6-1.2 3.6-1.6 5.5-1.6zm27.3 10.5c0-1.2-.1-2.2-.7-3.2-.4-.9-1-1.4-1.9-1.9-.9-.4-1.7-.6-2.6-.6-.6 0-1 0-1.6.1-.3 0-.6.1-1 .3v11.4l.9.1h.9c1 0 2-.3 3-.7.9-.4 1.7-1.2 2.3-2 .4-.9.7-2.2.7-3.5zM131.1 7.6h5.2c.3 0 .4.1.4.3v8.7c.6-.1 1.2-.3 1.7-.3.6-.1 1.2-.1 1.7-.1 1.9 0 3.8.4 5.4 1.3 1.4.9 2.6 2.2 3.5 3.6.9 1.6 1.3 3.3 1.3 5.1s-.3 3.5-1 5.2c-.7 1.4-1.6 2.7-2.9 3.6-1.2 1-2.6 1.7-4 2.2-1.4.4-3 .7-4.6.7-1.2 0-2.2-.1-3.3-.3-1.2-.1-2.2-.4-3.2-.7-.1 0-.3-.3-.3-.4V7.9c-.2-.3-.1-.3.1-.3zm27.6 16.9h7.7v-.3c0-.3 0-.6-.1-1s-.3-.7-.6-1.2c-.3-.4-.7-.7-1.2-1-.6-.3-1.2-.4-1.7-.3-.7 0-1.4.1-2.2.6-.6.4-1 .9-1.3 1.4-.3.7-.6 1.3-.6 1.8zm8.2 4.1h-8.2c.1.7.3 1.6.9 2.2.4.7 1.2 1.2 1.9 1.6 1 .4 2.2.6 3.3.6.9 0 1.7-.1 2.7-.3.9-.1 1.7-.4 2.5-.7.1-.1.3 0 .3.1v4.3c0 .1-.1.1-.3.1-.9.4-1.7.7-2.7.9-1.2.3-2.5.3-3.8.3-1.7 0-3.5-.3-5.1-1-1.3-.6-2.5-1.3-3.3-2.5-.9-1-1.4-2.2-1.9-3.5s-.6-2.6-.6-3.9c0-1.4.3-2.9.7-4.2.4-1.3 1-2.5 2-3.6.9-1 2-1.9 3.2-2.5 1.3-.6 2.9-.9 4.3-.9s2.7.3 4 .7c1.2.6 2 1.3 2.7 2.2s1.3 1.9 1.6 2.9c.3 1 .4 2 .4 3.2v1.7c0 .4-.1.7-.1 1.2 0 .1-.1.3-.3.3s-.6 0-.9.1-.9 0-1.4 0-1.1.7-1.9.7zm24.2 9.4c-1.4 0-2.9-.1-4.2-.4-1.2-.1-2.2-.6-3.2-1.2-.1-.1-.3-.4-.3-.7v-5.1c0-.1 0-.1.1-.3h.3c1.2.7 2.5 1.3 3.8 1.6 1.3.3 2.6.6 3.9.6 1.2.1 2.5-.1 3.5-.7 1-.7 1.3-2 .7-3-.3-.4-.7-.9-1.2-1.2-.7-.4-1.4-.9-2.3-1.2l-2-.9c-1.4-.6-2.7-1.4-4-2.3-.9-.7-1.6-1.6-2-2.7-.4-1-.6-2-.6-3 0-3 1.7-5.9 4.5-7.1 1.7-.9 3.6-1.2 5.6-1.2 1.3 0 2.5.1 3.8.3 1 .1 2 .4 2.9.9.1.1.3.3.3.6v4.8c0 .1 0 .1-.1.3h-.3c-.9-.6-1.9-.9-2.9-1-1.2-.3-2.3-.3-3.6-.3-.7 0-1.4 0-2 .1-.4.1-.9.3-1.3.6-.3.1-.6.4-.7.7-.1.3-.3.6-.3 1s.1.9.3 1.2c.3.4.7.9 1.3 1.2.7.4 1.6.9 2.5 1.2l1.6.7c1.6.6 3 1.4 4.3 2.5 1 .7 1.7 1.7 2.2 2.7.4 1 .6 2 .6 3.2 0 1.6-.4 3-1.3 4.3-.9 1.3-2.2 2.3-3.6 2.9-2.3.6-4.3.9-6.3.9zm24.4-4.6v3.5c0 .3-.1.4-.3.6l-1.7.4c-.7.1-1.3.1-2 .1-1.6.1-3.2-.4-4.3-1.4-1.2-1.3-1.6-2.9-1.4-4.6V21.4h-2.6c-.3 0-.3-.1-.3-.4v-4.2c0-.1.1-.4.3-.4h2.6c0-.6 0-1 .1-1.7s0-1.3.1-1.9c.1-.6.1-1.2.1-1.4 0-.1 0-.1.1-.3.1 0 .1-.1.3-.1l4.9-.7h.3s.1.1.1.3c0 .7-.1 1.6-.1 2.6s-.1 2.2-.1 3.2h3.9c.3 0 .3.1.3.3v4.2c0 .1-.1.3-.3.3h-3.9V30c0 .7.1 1.4.6 2 .3.4.9.7 1.7.7h.7c.3 0 .4-.1.7-.1h.1l.1.8zm12-12.3c-.7 0-1.6.3-2.2.7-.7.6-1.3 1.3-1.6 2-.4 1-.6 2.2-.6 3.2 0 1.2.1 2.2.6 3.2.3.9.9 1.6 1.6 2.2.7.6 1.6.7 2.5.7.7 0 1.6-.3 2.2-.7.7-.6 1.3-1.3 1.6-2 .4-1 .6-2.2.6-3.3 0-1-.1-2-.4-3-.3-.9-.7-1.6-1.4-2.2-1-.7-1.8-1-2.9-.8zm.3-4.9c1.6 0 3 .3 4.5.9 1.2.6 2.3 1.4 3.2 2.5.9 1 1.6 2.2 2 3.5.4 1.3.7 2.7.6 4 0 2-.4 4-1.3 5.8-.9 1.6-2 2.9-3.6 3.8-1.6 1-3.5 1.4-5.4 1.4-1.6 0-3.2-.3-4.6-1-1.3-.6-2.3-1.4-3.2-2.5-.9-1-1.4-2.2-1.9-3.5-.4-1.3-.6-2.6-.6-4 0-1.9.4-3.8 1.3-5.5.9-1.6 2.2-3 3.6-3.9 1.5-1.1 3.4-1.5 5.4-1.5zm28.8 16.3v4.3c0 .1 0 .3-.1.3-.7.3-1.4.4-2.3.6-.9.1-1.6.1-2.5.1-1.6 0-3.2-.3-4.6-.7-1.3-.6-2.5-1.3-3.5-2.3-1-1-1.7-2.2-2.3-3.5-.6-1.4-.9-2.9-.9-4.3 0-2 .4-3.9 1.4-5.6 1-1.6 2.5-3 4.2-3.9 2-1 4-1.4 6.4-1.4.9 0 1.6 0 2.5.1.4 0 1 .1 1.4.3.1 0 .3.1.3.4v4.3c0 .3-.1.3-.3.3-.4-.1-1-.3-1.4-.4-.7-.1-1.3-.1-2-.1-1.2 0-2.2.1-3.2.7-1 .4-1.9 1-2.5 1.9-.6 1-.9 2-.9 3.2 0 1.2.3 2.5 1 3.5.6.9 1.4 1.4 2.5 1.9.9.3 1.9.6 2.9.6.7 0 1.4 0 2-.1.4 0 1-.1 1.4-.3.4 0 .5 0 .5.1zm9.3-24.6v29.2c0 .1-.1.4-.3.4h-5.2c-.3 0-.4-.1-.4-.4V7.9c0-.1 0-.1.1-.3.1-.1.1-.1.3-.1h5.1c.2.1.4.3.4.4zm7.5 8.7h5.5c.1 0 .3 0 .3.1v.3c-.3.3-.7.9-1.2 1.3-.4.4-1.2 1.2-1.7 2-.6.9-1.3 1.4-2 2.2s-1.3 1.4-1.7 2c-.4.6-1 1.2-1.3 1.4v.3c.6.7 1.3 1.6 2 2.6s1.6 1.9 2.5 2.9c.9 1 1.6 2 2.5 2.9.9.9 1.4 1.9 2.2 2.6v.3c0 .1-.1.1-.3.1h-6.9l-.3-.3c-.3-.4-.9-1.2-1.6-2-.7-.9-1.4-1.9-2.3-2.9-.9-1-1.6-2-2.3-3-.7-1-1.3-1.6-1.6-2.2-.1-.1-.1-.3-.1-.4 0-.1 0-.3.1-.4.3-.4.9-1 1.4-1.7.6-.7 1.2-1.4 1.9-2.2.7-.7 1.3-1.6 1.9-2.3.6-.7 1.2-1.4 1.6-2 .4-.6.9-1 1-1.3.1-.3.1-.3.3-.3h.1z"/></svg>