<svg xmlns="http://www.w3.org/2000/svg" xml:space="preserve" viewBox="0 0 113.7 32"><path d="M101.4 30.7 96 16.2v14.5h-3.3V1.3H96v14.3l5.7-14.3h3.5l-5.9 14.5 5.8 15h-3.7zM89.7 19.4v6.1c0 3.7-1.8 5.5-5.4 5.5h-1.1c-3.6 0-5.4-1.8-5.4-5.5v-19c0-3.7 1.8-5.5 5.4-5.5h1.1c3.5 0 5.3 1.8 5.3 5.4v5.3h-3.2V6.3c0-1.5-.7-2.2-2.2-2.2h-.8c-1.5 0-2.2.7-2.2 2.2v19.4c0 1.5.7 2.2 2.2 2.2h.9c1.5 0 2.2-.7 2.2-2.2v-6.3zM69.9 4.1h-1c-1.5 0-2.2.7-2.2 2.2v19.4c0 1.5.7 2.2 2.2 2.2h1c1.5 0 2.2-.7 2.2-2.2V6.3c0-1.5-.7-2.2-2.2-2.2M70 31h-1.2c-3.6 0-5.4-1.8-5.4-5.5v-19c0-3.7 1.8-5.5 5.4-5.5H70c3.6 0 5.4 1.8 5.4 5.5v19c0 3.7-1.8 5.5-5.4 5.5m-15.7-.3V4.4H50V1.3h12v3.1h-4.3v26.3zm-5.6-9.5v4.3c0 3.7-1.8 5.5-5.4 5.5h-.9c-3.5 0-5.3-1.8-5.3-5.4v-6.2h3.2v6.3c0 1.5.7 2.2 2.2 2.2h.7c1.5 0 2.2-.7 2.2-2.2v-4.4c0-1.5-.5-2.1-1.4-2.8l-4-3c-2.1-1.6-2.8-3.1-2.8-5.5V6.5C37.2 2.8 39 1 42.6 1h.8c3.5 0 5.3 1.8 5.3 5.4v5.3h-3.2V6.3c0-1.5-.7-2.2-2.2-2.2h-.6c-1.5 0-2.2.7-2.2 2.2V10c0 1.5.5 2.1 1.5 2.8l4 2.9c2 1.6 2.7 3 2.7 5.5m-20.5-3v-3.1h5.9v10.4c0 3.7-1.8 5.5-5.4 5.5h-1.2c-3.6 0-5.4-1.8-5.4-5.5v-19c0-3.7 1.8-5.5 5.4-5.5h1.2C32.2 1 34 2.8 34 6.4v4h-3.2V6.3c0-1.5-.7-2.2-2.2-2.2h-1c-1.5 0-2.2.7-2.2 2.2v19.4c0 1.5.7 2.2 2.2 2.2h1.1c1.5 0 2.2-.7 2.2-2.2v-7.5zM19 30.7h-3.3V1.3H19zm-14.7-3h2.8c1.5 0 2.2-.7 2.2-2.2v-5.8c0-1.7-.8-2.5-2.4-2.5H4.4v10.5zM6.9 4.3H4.2v9.9h2.4c1.7 0 2.4-.8 2.4-2.5V6.5c.1-1.5-.6-2.2-2.1-2.2m5.6 16v5c0 3.7-1.8 5.5-5.4 5.5H1V1.3h6c3.6 0 5.4 1.8 5.4 5.5v4.3c0 2.6-.9 4-2.5 4.6 1.7.7 2.6 2 2.6 4.6M107.4 1.8h-1v-.5h2.5v.5h-1v2.6h-.6V1.8zM109.5 1.3h.6l1 1.5 1-1.5h.6v3.1h-.6V2.1l-1 1.5-1-1.5v2.2h-.5v-3z" class="st0"/></svg>