<svg xmlns="http://www.w3.org/2000/svg" xml:space="preserve" viewBox="0 0 537.3 72.5"><g fill="#F1824B"><path d="M23.6 6.7c.6-3.8 4.2-6.9 8.2-6.7h29.6c4.1-.2 7.7 3.4 7.9 7.4.2 3.4.1 6.9 0 10.3-4.5-2.9-9.1-6.1-14.4-7.3-7.3-1.6-15.3-1.2-22.2 2-3.3 1.5-6.2 3.8-9.3 5.7 0-3.8-.3-7.6.2-11.4z"/><path d="M42.4 14.7c6.4-.8 13 .2 18.5 3.4 9.2 5 15.1 15.3 14.7 25.7.2 5.6-1.7 11.1-4.8 15.7-4.2 6.6-11.3 11-18.9 12.5-6.5 1.1-13.4.1-19.2-3.1-5.7-3.3-10.6-8.2-13-14.5-3.1-7.8-2.9-17 1.1-24.4 4.1-8.1 12.5-14 21.6-15.3M41 22.9c-11.1 2.8-18.4 15.7-14.8 26.6 2.7 9.4 12.4 16.1 22.1 15.2 9.2-.6 17.3-7.9 19.2-16.8 1.8-7.8-1.5-16.2-7.7-21.1-5.2-4.3-12.4-5.7-18.8-3.9z"/><path d="M8.6 18.7c4.8-.8 9.7-.4 14.6-.4-2.5 3.4-5.5 6.5-7.2 10.4-4.1 8.2-4.5 18-1.2 26.6 1.8 5 5 9.3 8.7 13.1-7.8.5-15.6.1-23.4.1-.2-11.7 0-23.3-.1-35 0-3.2-.2-6.7 1.6-9.5 1.4-2.8 4-4.8 7-5.3zM70.1 18.5c4.4-.4 8.8-.2 13.2 0 5.8.2 10.1 5.9 10 11.5v38.4c-2.9.3-5.8.2-8.6.1-4.9-.2-9.8.4-14.7-.1 2.5-3.3 5.6-6.3 7.2-10.1 4.5-9.4 4.6-20.9-.2-30.2-1.7-3.6-4.5-6.4-6.9-9.6zM43.7 27.6c9.3-2 19.2 5.9 18.8 15.5.7 8.2-6.4 15.6-14.4 16.2-5.1.4-10.6-1.6-13.8-5.7-4.2-5.2-4.8-13.1-1.2-18.8 2.3-3.7 6.4-6.2 10.6-7.2m0 4.8c-3.7 1-6.9 4-8 7.7-.8 3.6-.5 7.9 2.2 10.7 3.7 4.8 11.5 5.4 16.1 1.5 3-2.2 4.5-6.1 4.2-9.8-.6-6.8-8-12.2-14.5-10.1z"/></g><g fill="#383838"><path d="M363 9.5h10.5c.1 9.6-.1 19.2.1 28.8 2.4-.3 5.3.3 7.1-1.7 2.6-2.8 3.8-6.6 5.6-9.9 3.9 0 7.7 0 11.6.1-2.9 5.5-4.7 11.8-9.4 16 1.8 1.6 3.8 3.2 4.5 5.6 2 5.7 4 11.4 5.6 17.2-3.8.1-7.6.1-11.4-.1-1.7-5.1-2.7-10.4-5.1-15.2-1.5-3.1-5.6-2.5-8.5-2.9-.2 6 0 12.1-.2 18.1h-10.3c-.2-18.5-.1-37.3-.1-56zM237.4 13.5c6.5-3.9 14.5-3.3 21.6-1.8 3.3.7 6.4 2.2 9.3 3.9-1.5 3-3.1 5.9-4.6 8.9-5.9-2.7-12.8-5.6-19.1-2.7-3.5 1.2-4.7 6.6-1.5 8.8 3 2.2 6.9 2.7 10.4 3.6 5.3 1.2 10.9 3.2 14.4 7.6 3.9 5.8 3.2 14.4-1.9 19.3-3.2 2.9-7.5 4.5-11.7 5-9.2 1.4-18.9-1.1-26.1-7.1 2-2.8 4-5.4 6.1-8.1 5.8 4 13.2 7.1 20.2 4.8 4-1.1 5.7-7.1 1.9-9.5-6.9-4-15.9-3.5-22-9-7.1-6.4-5-19.1 3-23.7zM127.4 13.5c8.9-4.2 20-3.2 27.9 2.6-1.7 2.9-3.4 5.8-5.2 8.6-4.6-3.1-10.7-5-16.1-2.7-3.5 1.5-5.2 5.5-5.1 9.1 0 5.4-.1 10.7.1 16.1 0 5.2 5.1 9.3 10.2 8.9 4 .1 7.6-1.7 11-3.6.7 3.6 1.3 7.1 2.1 10.7-8.3 3.9-18.7 4.5-26.6-.5-4.7-2.8-7.7-8-7.7-13.5 0-7 0-14.1.1-21.1-.2-6.1 3.7-12 9.3-14.6z"/><path d="M274.6 17.1c2.8-.1 5.6-.1 8.3 0 0 3.2 0 6.5.1 9.7h9.4V35c-3.1.1-6.3 0-9.5 0v14.3c0 2.4-.1 5 1.5 7 3.1 1 6.3.3 9.4 0 .5 2.9 1.1 5.8 1.5 8.7-5.5 1.1-11.6 2.3-16.9-.2-3.7-1.6-5.3-5.8-5.5-9.6-.5-6.6-.2-13.2-.2-19.9-1.6-.2-3.1-.4-4.7-.6 0-2.6 0-5.3-.1-7.9 1.7-.1 3.3-.2 5-.2.6-3.1 1.2-6.3 1.7-9.5zM437.7 17.4c.8 0 2.4.1 3.2.1 0 6.5 0 12.9.1 19.3 5.4-3.1 12-6.4 18.2-3.6 5 2.6 4.9 9.1 4.8 14-.3 6.2.6 12.6-.5 18.7-.7 0-2-.1-2.7-.1-.2-7.8.1-15.5-.1-23.3-.1-2.9-1.7-6.2-4.8-6.8-5.4-1.1-10.3 2.2-14.8 4.7v25.1c-.8.1-2.5.2-3.3.3-.1-16.1-.1-32.2-.1-48.4zM404.2 19.3c6.3 0 12.6-.1 18.9 0 6.1 0 11.3 5 12 11 1.4 6.9-3.3 14.5-10.4 15.5-5.8.5-11.6 0-17.3.2-.1 6.6 0 13.1 0 19.7h-3.2c0-15.5-.1-30.9 0-46.4m3.3 3.2c-.1 6.7 0 13.4-.1 20.2 5.3 0 10.5.2 15.8-.1 5.4-.4 9.4-5.8 8.6-11.1-.4-4.6-4.2-8.6-8.8-8.9-5.2-.2-10.3-.1-15.5-.1zM498.5 24.8c.6 0 1.8-.1 2.3-.1.1 2.6.1 5.2.1 7.9 3.3 0 6.7-.1 10.1.2-.2.7-.5 1.9-.6 2.6-3.1.3-6.3.2-9.5.2 0 6.6-.1 13.2 0 19.8 0 2.2.1 4.8 1.7 6.5 2.8 3 8.8-1.3 10 3.7-4 .8-8.4 1.5-12.1-.6-2.6-2-2.9-5.6-2.9-8.6V35.8c-1.7-.2-3.4-.4-5.1-.7v-2.3c1.7-.2 3.4-.3 5.1-.5.4-2.6.6-5 .9-7.5zM155.1 30.8c7-4.5 16.1-5.9 24-3.4 5 1.5 7.9 6.7 8 11.7.3 8.9.1 17.7.1 26.6-2.9 0-5.7 0-8.6.1-.7-.9-1.4-1.8-2.1-2.6-5.2 2.5-11.5 4-17.1 1.9-7.7-3.1-9-15.3-2.1-19.9 5.8-4.3 13.4-2.4 20.1-3.1-.5-2.2-.4-5.3-3.1-6-5-1.7-10.3 0-14.8 2.4-1.8-2.5-3.4-4.9-4.4-7.7m10.4 19.7c-2.3 1-2.4 4.7-.1 5.8 3.9 1.8 8-.5 11.5-2.1 0-1.5-.1-3-.1-4.4-3.7.1-7.6-.5-11.3.7zM201.1 29.5c5.2-2.7 11.5-4.5 17.3-2.4 4.7 1.9 6.5 7.4 6.5 12.1 0 8.8 0 17.7-.1 26.5-3.4.1-6.8 0-10.2 0-.1-7.8 0-15.7 0-23.5-.1-2.1-.4-5.1-2.9-5.7-3.9-1.4-7.6 1.2-11.1 2.8-.1 8.8 0 17.7-.1 26.5h-10.2c-.1-13 0-25.9-.1-38.9 2.9-.1 5.9-.1 8.8-.1.9.9 1.5 1.8 2.1 2.7zM306.6 26.9c6.6-1.4 14.6-.7 19.4 4.6 3 3.1 3.4 7.6 3.3 11.7-.1 4 .3 8-.3 11.9-1.3 6.1-7.3 10.1-13.2 10.8-6.5 1-14.1-.4-18.3-5.9-3-3.5-2.5-8.4-2.5-12.7.2-4.5-.7-9.5 1.7-13.6 2.2-3.5 5.9-6 9.9-6.8m4.9 8.9c-2.4.3-5.1 1.3-5.9 3.8-.7 2.8-.4 5.8-.4 8.7.1 2.2-.2 4.7 1.6 6.3 3.4 4 11.9 2.1 12.1-3.6.2-3.5.3-7-.1-10.5-.6-3.1-4.2-5-7.3-4.7zM335 31.1c7.1-7 19.9-6.3 27.1.2-1.8 2.7-3.8 5.3-5.8 7.8-3.1-2.4-7.2-4.5-11.2-2.9-3.3 1.1-4 4.9-3.8 8 .2 3.9-.8 8.6 2.5 11.4 4 2.4 8.9.5 12.3-2.1 2.1 2.2 4.1 4.5 6.1 6.8-5.4 6-14.5 7.1-22 4.8-5.8-1.8-9.6-7.8-9.1-13.8.5-6.7-1.7-15 3.9-20.2zM476.5 32.5c5.2-.9 11.5.4 14.4 5.1 2.9 4.4 1.4 9.8 1.8 14.7.4 4.6-1 9.9-5.4 12.1-6.6 3.6-16.9 2.3-20-5.3-1.7-4.8-.6-10-.9-14.9-.3-5.8 4.5-10.9 10.1-11.7m.1 3.2c-4.4.8-7 5.4-6.9 9.7.1 4.2-.6 8.5.8 12.5 3 7.6 16.3 7.1 18.4-.9.9-4.5.4-9.2.4-13.7-.4-6-7.4-9.4-12.7-7.6z"/><path d="M518.6 32.8c5.4-1.6 12.2-.3 15.6 4.5 3.1 4.4 1.7 10 2 15 .3 4.5-1 9.5-5.1 11.9-6.5 3.9-16.9 2.6-20.2-4.8-1.8-5.2-.8-10.8-.9-16.2-.1-5 4-9.1 8.6-10.4m1.9 2.8c-4.2.5-7.2 4.6-7.3 8.7-.1 4.2-.4 8.5.4 12.7 2.2 9 17.6 8.3 19.1-.9.4-4.5.4-9 0-13.5-.9-5.5-7.2-8.3-12.2-7z"/></g></svg>