<svg xmlns="http://www.w3.org/2000/svg" xml:space="preserve" viewBox="0 0 177.3 33.8"><path fill="#81B441" d="M23.5 4.6C19.4-.3 5.8 9.2 5.9 21.5c0 .3-.3.6-.6.6-.2 0-.4-.1-.5-.3-.8-1.7-1.2-3.6-1.2-5.5 0-1.4.2-2.8.7-4.2.1-.3-.1-.6-.3-.7-.2-.1-.4 0-.6.2-6.8 7.5-3 19.5 6.8 21.7.9.2 1.9.3 2.8.3 18.5-.4 14.3-24.6 10.5-29z"/><path d="M177.3 20.3c.1 7.5-6.1 13.6-13.7 13.4-3.6.1-7.1-1.3-9.7-3.8-2.6-2.5-4-6-3.9-9.6 0-7.7 5.7-13.3 13.6-13.3 8 0 13.7 5.6 13.7 13.3zm-5.4 0c0-6.1-4.3-8.9-8.2-8.9s-8.2 2.8-8.2 8.9c0 4.5 2.8 9 8.2 9 4 0 8.2-2.9 8.2-9zM141.8 12v13c0 2.8.9 4.1 2.9 4.1.4 0 .7-.1 1.1-.2.3-.1.6-.1.9-.2 1.1 0 2 .8 2.1 1.9v.2c0 .9-.6 1.7-1.4 2.1-1 .4-2.2.6-3.3.6-4.9 0-7.4-2.8-7.4-8V2.9c-.1-1.1.5-2.2 1.5-2.7 1.8-.8 3.9.7 3.6 2.7v4.8h4.7c1-.1 1.9.4 2.2 1.3.7 1.5-.6 3.2-2.2 3h-4.7zm-8.9 4.9v13.8c.2 1.3-.7 2.5-2 2.6h-.4c-1.3 0-2.4-1-2.5-2.3v-1.6c-1.9 2.8-5.1 4.4-8.5 4.2-4.6 0-9.2-2.4-9.2-7.8 0-7.5 8.8-8.6 17.4-8.6v-.6c0-3.4-2.2-5.4-6.1-5.4-2.1 0-4.2.7-5.9 1.9-.5.3-1 .5-1.6.5-1.1 0-2-.9-2-2v-.1c0-.8.4-1.6 1.2-2.1 2.6-1.8 5.6-2.7 8.7-2.6 6.9.2 10.9 3.9 10.9 10.1zm-17.1 8.8c0 3.5 3.8 3.8 5 3.8 4.3 0 7.1-2.8 7.1-7.2v-1.2h-1.1c-4.8-.1-11.1.4-11 4.6zm-6.1-16c0 .5-.1 1-.3 1.4l-8.3 19.5c-1 2.3-2.6 2.8-3.8 2.8s-2.8-.5-3.8-2.8l-8.2-19.4c-.2-.5-.3-1-.3-1.5 0-1.4 1.2-2.5 2.6-2.5 1.3 0 2.3.9 2.7 2.1l7.1 18 7.1-18c.3-1.2 1.4-2.1 2.6-2.1 1.3-.1 2.5 1 2.5 2.3 0 .1.1.2.1.2zm-26.2 7.6v13.2c.1 1.1-.5 2.2-1.5 2.7-1.8.8-3.9-.7-3.7-2.7V18.9c0-5.1-1.7-7.6-5.6-7.6s-6.6 3.3-6.6 8.1v11c.1 1.1-.5 2.1-1.5 2.6-1.8.9-3.9-.6-3.7-2.6V10c-.2-1.3.8-2.6 2.1-2.7h.4c.5 0 2.4.1 2.4 2.8v1.7c1.7-3 4.8-4.8 8.2-4.7 7-.1 9.5 5.2 9.5 10.2zm-25.9.3c.1.5.1 1.1.1 1.7 0 1.8-.9 2.7-2.8 2.7H37.8c.3 4.2 3.8 7.4 8 7.4 2.4 0 4.7-.9 6.4-2.7.5-.5 1.1-.8 1.8-.8 1.2-.1 2.2.9 2.2 2v.2c0 .7-.3 1.4-.8 1.9-2.5 2.6-6 3.9-9.6 3.8-7.9 0-13.3-5.5-13.3-13.3S38 7 45.5 7c6.6 0 11.1 4 12.1 10.6zm-19.8.4h14.7c-.2-4.2-2.8-6.9-6.9-6.9-4 0-7.4 2.9-7.8 6.9z"/></svg>