<svg xmlns="http://www.w3.org/2000/svg" xml:space="preserve" viewBox="0 0 505.3 135.4"><path fill="#2D5FD4" d="M21.7 33.6c-3.4 3.5-6.3 7.4-8.7 11.7l-3.7-1.9c-.5-2.4-2.7-4-5.2-3.7-2.6.2-4.4 2.7-4.1 5.3.2 2.6 2.6 4.5 5.3 4.2.5-.1 1-.2 1.4-.5l3.6 1.9c-2 4.5-3.4 9.1-4.2 14l5.9 1.1c1.8-10.5 6.7-20.1 14-27.8l-4.3-4.3zm43.1-18.4c-1.3 0-2.7.1-4 .1l-.5-5c1.4-1.2 2.3-3.1 2.1-5.2-.3-3.1-3.1-5.4-6.2-5-3.1.3-5.3 3.2-4.9 6.4.3 2 1.5 3.7 3.2 4.5l.6 5c-5.6.9-11 2.6-16.2 5.2l2.6 5.5c7.3-3.6 15.4-5.4 23.5-5.4 3.9 0 7.8.5 11.6 1.3l1.2-5.9c-4.4-1.1-8.7-1.5-13-1.5zM116.6 35.5c2.6-.3 4.5-2.7 4.1-5.4-.4-2.6-2.7-4.6-5.3-4.2-2.4.3-4.2 2.5-4.2 4.8l-3.3 2.9c-3.3-3.5-7-6.5-11.1-9.1l-3.1 5.1c8.8 5.7 15.8 13.8 20.1 23.4l5.5-2.4c-2-4.4-4.5-8.6-7.4-12.4l3.1-2.8c.5.2 1.1.2 1.6.1zM60.5 96.9c-3 .2-6.1.3-9.1.3-6.9 0-13.6-.5-19.5-1.5-3-.5-6.6-1.3-10-2.4 8.2 14.9 24.1 25 42.3 25 22.4 0 41.3-15.3 46.8-36.1-5.4 3.6-11.8 6.6-19.3 9-9.3 3.2-20.1 5.1-31.2 5.7z"/><path fill="#2D5FD4" d="M85.1 72.2c-5.9 0-10.6-4.9-10.6-10.9s4.8-10.9 10.6-10.9c5.9 0 10.7 4.9 10.7 10.9-.1 6.1-4.8 10.9-10.7 10.9zm-37.2 7.3c-8 0-14.5-6.6-14.5-14.8s6.5-14.8 14.5-14.8 14.5 6.7 14.5 14.8-6.6 14.8-14.5 14.8zm16.9-52.2C38.5 27.3 17 48.7 17 74.9c0 3.4.4 6.8 1.1 10.1 5.3 3.9 21.3 7.1 42 5.9 22.6-1.4 41.6-7.7 52.4-17.3 0-1.5-.2-3.1-.3-4.6-3-23.8-23.4-41.7-47.4-41.7zm128.3 14.1c-2.3-.9-6.4-2.4-10.9-1.9-4.3.6-6.7 2.7-6.7 8v6.9h17.6v13.7h-17.6v43.6h-15.3V68.1h-10.6V54.4h10.6v-7.1c0-13.4 7.1-22.2 20.3-22.2 5 0 9.2 1 12.6 2.4v13.9zm37.1 26.5c-1.4-.2-2.8-.4-4.1-.4-7.1 0-12 4.4-12 12.9v31.2h-15.3V54.4h14.7v6.3c3.6-5.4 9-7.8 15.9-7.8 3.2 0 6.7 1 8.6 2.7l-7.8 12.3zm20.2 9.8h25.1c-1.5-7.4-5.8-11.5-12.3-11.5-7.3 0-11.5 4.4-12.8 11.5zm40.3 5.2c0 1.7-.1 3.9-.3 5.2h-40.2c1.6 8.3 7.4 11.9 14.6 11.9 5 0 10.3-2 14.3-5.5l8.9 9.9c-6.5 6-14.7 8.7-24.1 8.7-17.3 0-29.4-11.9-29.4-30 0-18 11.7-30.3 28.7-30.3 16.3 0 27.5 12.3 27.5 30.1zm20.1-5.2h25.1c-1.4-7.4-5.7-11.5-12.3-11.5-7.2 0-11.4 4.4-12.8 11.5zm40.4 5.2c0 1.7-.1 3.9-.3 5.2h-40.2c1.6 8.3 7.4 11.9 14.6 11.9 4.9 0 10.3-2 14.3-5.5l8.9 9.9c-6.5 6-14.7 8.7-24.1 8.7-17.4 0-29.4-11.9-29.4-30 0-18 11.7-30.3 28.7-30.3 16.3 0 27.5 12.3 27.5 30.1zm21.2.2c0 9 5.9 15.8 14.6 15.8 9 0 14.7-7 14.7-15.8s-5.6-15.8-14.7-15.8c-8.8-.1-14.6 6.8-14.6 15.8zm44.7 0c0 17.2-11.8 30.2-27.4 30.2-7.6 0-12.9-3-16.6-7.4v29.6h-15.2v-81h14.9v6.4c3.7-4.6 9.1-7.8 16.9-7.8 15.7-.3 27.4 12.8 27.4 30zm22.6 28.6h-15.3V54.4h15.3v57.3zm2-76c0 5.6-4.2 9.8-9.8 9.8-5.5 0-9.7-4.3-9.7-9.8s4.2-9.9 9.7-9.9c5.5-.1 9.8 4.3 9.8 9.9zm23.4 39.2 21.4-20.5h18.7l-27.5 26.9 27.6 30.3h-18.8L465 88.4v23.2h-15.3v-85H465v48.3h.1z"/></svg>