<svg xmlns="http://www.w3.org/2000/svg" xml:space="preserve" viewBox="0 0 933.3 312"><path d="M40.7 48.5c-7.8 3.4-15.4 15-15.4 23.5 0 4.5 2.9 12.1 6.3 16 5.6 6.7 12.9 9.7 21.9 9.1 13.3-1 22.5-10 23.6-23.1 1.2-15.2-9.9-27.3-24.9-27.3-4.2.1-9.4.9-11.5 1.8zm104-.5c-9.9 2.4-17.3 5.6-26 11.5-10 6.5-16 13.5-21.1 24.3-3.2 6.8-3.6 9.1-3.6 22.9 0 14.9.1 15.6 4.5 23.7 8.3 15.2 21.3 24.5 50.8 36.3 19.2 7.6 31.3 14.1 36 19.5 7.3 8.4 8.3 21.1 2.1 30.1-12.7 18.8-45.1 17.2-70.5-3.6l-7.6-6.1-13.2 13.7L82.9 234l3.5 3.1c21.5 18.3 47.2 28.3 72.8 28.3 23.2 0 40.5-6.5 55.1-20.8 14.1-13.9 20.1-31.5 17.6-51.9-3.2-25.6-20.1-41.7-61.2-58-32.9-13.1-40.8-21.1-35.3-35.5 7.3-19.1 41.7-22.1 64.8-5.7 2.3 1.6 4.1 2.7 4.4 2.4s4.9-7.1 10.5-15.1l10.1-14.5-3.1-2.4c-4.7-3.6-20.5-11.3-28.8-13.9-8.6-2.7-40.4-4-48.6-2zM696 156v106.7h40v-31.3c0-17.2.3-31.3.7-31.3.5 0 14.7 14.1 31.6 31.3l30.7 31.3h26.9l26.8-.1-41-40.6-41.1-40.7 36-32.9 36-33.1-27.5-.4-27.5-.3-16.8 15.6c-9.2 8.7-20.8 19.6-25.9 24.1l-9.1 8.5V49.3h-40L696 156z"/><path d="M269.3 94v20.7H228V148h41.3v31.9c0 44.1 2.4 55.3 14.7 68.7 10.9 11.7 25.7 16.9 48.7 16.7 8-.1 16.5-.5 18.7-1.1 4.8-1.1 4.8-2.4 1.3-21.6l-2.1-12.5-12.3.4c-10.7.4-13.1 0-18.1-2.7-10.4-5.3-10.8-7.2-10.8-46V148h49.5l-.4-16.4-.4-16.3-24.3-.4-24.4-.3V73.3h-40V94zm161.4 18.8c-16 3.1-30.7 10.9-42 22.4-15.5 15.6-22 31.6-22 53.7 0 21.3 7.5 39.7 22 54.3 14.5 14.4 34 22.1 56 22.1 35.6-.1 62.7-18.7 75.1-51.7 4.8-12.8 4.9-34 .4-48-7.6-23.2-25.1-41.1-48.3-49.2-7.7-2.8-12.8-3.6-23.9-3.9-7.7-.1-15.5 0-17.3.3zm29.7 38.5c12.8 5.3 22.3 19.2 23.3 34.1 1.7 23.7-13.2 42-35.6 43.6-12 .8-20.7-2.1-29.2-9.7-9.2-8.3-12.8-16.9-12.8-30.7.1-19.6 9.6-32.9 27.6-38.8 6.8-2.2 19.6-1.5 26.7 1.5zm134.3-37.4c-35.9 9.2-60 39.2-60 74.5 0 20.5 6.7 37.7 20.1 52.1 9.3 10 17.1 15.3 29.9 20.4 8.7 3.3 10.7 3.6 29.3 3.6 17.6.1 21.1-.3 28.7-3.1 11.3-4 25.1-13.2 32.5-21.7l6-6.8-14.8-11.2c-8.1-6.1-14.9-11.1-15.1-11.1-.1 0-2.9 2.7-6.3 5.7-9.6 9.3-16.9 12.3-30.4 12.3-9.7 0-12.4-.5-18.9-3.7-14.1-6.9-21.5-19.6-21.3-37.1 0-10.8 3.2-18.7 10.8-26.9 7.9-8.5 16.9-12.3 29.5-12.1 11.6 0 19.1 3.1 28.5 11.3l6 5.3 13.1-11.6c7.2-6.4 13.2-12 13.5-12.5.1-.4-3.2-4.3-7.5-8.3-7.9-7.5-19.6-14.4-30.8-18-8.8-2.7-33.8-3.4-42.8-1.1zM32 188.7v74h39.3l-.3-73.6-.4-73.7-19.3-.4-19.3-.5v74.2zm838 27.8c-18.5 8.1-20.5 34.1-3.6 44.9 6.9 4.4 17.1 5.2 24.7 2 7.9-3.2 15.6-14.8 15.6-23.5 0-4.5-2.9-12.1-6.3-16-7.1-8.4-20.7-11.6-30.4-7.4z"/></svg>