<svg xmlns="http://www.w3.org/2000/svg" xml:space="preserve" viewBox="0 0 183.9 49.9"><path fill="#0EA081" d="M8 0h33.9c4.4 0 8 3.6 8 8v33.9c0 4.4-3.6 8-8 8H8c-4.4 0-8-3.6-8-8V8c0-4.4 3.6-8 8-8z"/><path fill="#FFF" d="M18.6 33.6h7.1v-6.8h2.1c3.1 0 5.6-2.5 5.7-5.6s-2.5-5.6-5.6-5.7h-9.2v18.1zm10.8 3.7H15V12h12.9c5.1-.1 9.3 4 9.4 9.1.1 4.6-3.3 8.6-7.9 9.3v6.9z"/><path fill="#020203" d="M63.9 39.7h4.9V28.1h6.3c1.9 0 3.8-.4 5.5-1.2 1.5-.7 2.8-1.9 3.7-3.3.9-1.6 1.4-3.3 1.3-5.1.1-1.8-.4-3.6-1.3-5.2-.9-1.4-2.2-2.6-3.7-3.3-1.7-.8-3.6-1.2-5.5-1.2H63.9v30.9zm4.9-15.9V13.2h6.5c1.5-.1 2.9.4 4 1.4 1 1 1.6 2.4 1.5 3.9.1 1.4-.5 2.9-1.5 3.9-1.1 1-2.5 1.5-4 1.5l-6.5-.1zm30.4 16.4c2.1.1 4.2-.5 6-1.6 1.6-.9 2.8-2.3 3.6-4l-3.8-1.9c-.6.9-1.3 1.8-2.3 2.3-1 .6-2.2 1-3.5.9-1.7 0-3.3-.6-4.5-1.7-1.3-1.2-2-2.8-2.1-4.5h16.7c.1-.4.1-.7.2-1.1v-1.1c0-1.9-.4-3.7-1.3-5.4-.8-1.6-2.1-3-3.7-4-1.7-1-3.8-1.6-5.8-1.5-2 0-3.9.5-5.7 1.5-1.7 1-3 2.4-4 4.1-1 1.8-1.5 3.9-1.5 6s.5 4.2 1.5 6c.9 1.7 2.3 3.2 4 4.2 2 1.3 4.1 1.9 6.2 1.8zm-.4-19.5c1.5 0 2.9.5 4 1.5s1.7 2.4 1.7 3.9H92.7c.2-1.5.9-3 2.1-4 1.1-.9 2.5-1.4 4-1.4zm11.8 19h5.5l5.1-7.5 5.1 7.5h5.5L124 28.5l7.9-11.2h-5.5l-5.1 7.4-5.1-7.4h-5.5l7.8 11.2-7.9 11.2zm33.3.5c2.1.1 4.2-.5 6-1.6 1.6-.9 2.8-2.3 3.6-4l-3.8-1.9c-.6.9-1.3 1.8-2.3 2.3-1 .6-2.2 1-3.5.9-1.7 0-3.3-.6-4.5-1.7-1.3-1.2-2-2.8-2.1-4.5H154c.1-.4.1-.7.2-1.1v-1.1c0-1.9-.4-3.7-1.2-5.4-.8-1.6-2.1-3-3.7-4-1.7-1-3.8-1.6-5.8-1.5-2 0-3.9.5-5.7 1.5-1.7 1-3 2.4-4 4.1-1 1.8-1.5 3.9-1.5 6s.5 4.2 1.5 6c.9 1.7 2.3 3.2 4 4.2 1.9 1.3 4 1.9 6.1 1.8zm-.4-19.5c1.5 0 2.9.5 4 1.5s1.7 2.4 1.7 3.9h-11.8c.2-1.5.9-3 2.1-4 1.1-.9 2.6-1.4 4-1.4zm14.4 19h4.7V8.3h-4.7v31.4zm17.7.5c1.5 0 3-.3 4.4-.9 1.2-.5 2.2-1.3 2.9-2.4.7-1 1.1-2.3 1-3.5 0-1.5-.5-2.9-1.5-4-1.2-1.2-2.6-2.1-4.3-2.5l-3.7-1.1c-.7-.2-1.3-.5-1.9-.9-.6-.4-.9-1-.9-1.7s.3-1.5.9-1.9c.7-.5 1.6-.8 2.5-.7 1.1 0 2.3.3 3.2 1 .9.6 1.7 1.5 2.1 2.6l3.6-1.7c-.6-1.7-1.8-3.2-3.4-4.2-1.6-1-3.5-1.5-5.5-1.5-1.4 0-2.8.3-4.1.9-1.1.5-2.1 1.3-2.9 2.3-.7 1-1.1 2.3-1 3.5 0 1.4.5 2.8 1.4 3.9 1.2 1.2 2.7 2.1 4.3 2.5l3.5 1c.7.2 1.4.5 2 .9.6.4 1 1.1 1 1.8 0 .8-.4 1.6-1 2-.8.5-1.7.8-2.7.8-1.3 0-2.5-.4-3.5-1.1-1.1-.8-2-1.8-2.5-3l-3.6 1.7c.7 1.9 1.9 3.5 3.6 4.6 1.8 1.1 3.9 1.7 6.1 1.6z"/></svg>