<svg xmlns="http://www.w3.org/2000/svg" xml:space="preserve" viewBox="0 0 351.3 49.6"><path fill="#4E4E55" d="M209.7 27.7c-.5-.1-2.3-.4-2.8-.5-2.8-.5-5.2-1.2-5.2-4 0-2.4 2.6-3.6 5.7-3.6 4.7 0 8.9 2.1 9.3 2.4l2.6-6.8c-1-.5-5.2-2.8-11.9-2.8-6.1 0-13.5 3.2-13.5 11.1 0 7.1 5.1 9.4 10 10.3.7.1 2.8.5 3.4.6 3.3.6 5.1 1.8 5.1 3.9 0 2.7-2.6 4-6.5 4-6.2 0-9.9-1.9-10.9-2.3l-2.9 6.7c.9.5 5.1 2.9 13.4 2.9 8 0 14.5-4 14.5-11.4 0-6.9-4.6-9.5-10.3-10.5M234.3 0l-7.6 4.2v8.9h-4v7.3h4v15.7c0 6.7 2.8 12.8 12.5 12.8h3v-7.3h-1.1c-4.8 0-6.8-2.8-6.8-6.5V20.4h8.7v-7.3h-8.7V0m59.5 19.8c3 0 6 1.4 6.9 4.6l6.9-2.6c-1.9-6.8-8.3-9.4-13.9-9.4-10 0-14.1 6.2-14.1 12.3v12.6c0 6.1 4.1 12.3 14.1 12.3 5.6 0 12-2.6 13.9-9.4l-6.9-2.6c-.9 3.3-4 4.6-6.9 4.6-5.2 0-6.5-2.8-6.5-6.1V25.9c-.1-3.2 1.3-6.1 6.5-6.1m32.5 9.4 14.2-16.1h-9.4l-12.2 14V0h-7.6v48.9h7.6V37.5l2.5-2.8 10.9 14.2h9.1l-15.1-19.7"/><path fill="#E32124" d="M264.3 20.9h-7.9c-1.3 0-2.3 1-2.3 2.3v8.6h-7.8v-8.6c0-5.6 4.5-10.1 10.1-10.1h7.9v7.8m-6.4 20.2h7.9c1.3 0 2.3-1 2.3-2.3v-8.6h7.8v8.6c0 5.6-4.5 10.1-10.1 10.1h-7.9v-7.8m-129.2-28h8.7v7.3h-8.7v14.7c0 3.8 2 6.5 6.8 6.5h1.1v7.3h-3.1c-9.8 0-12.5-6-12.5-12.8V20.4h-12.8v14.7c0 3.8 2 6.5 6.8 6.5h1.1v7.3H113c-9.8 0-12.5-6-12.5-12.8V20.4h-3.9v-7.3h3.9V4.2l7.6-4.2v13.1h12.8V4.2l7.6-4.2.2 13.1m-82.2-.7c-2.4 0-4.9.5-7.1 1.4V0h-7.6v48.9h7.6V21c1.5-1 3.7-1.5 5.9-1.5 4.8 0 7 2.7 7 6.6V49h7.6V25c0-7.3-5.2-12.6-13.4-12.6m38.6 29.4c-1.5.8-3.3 1.2-5.1 1.2-5.7 0-7.8-2.9-7.8-6.9v-23h-7.6v23.2c0 9 5.2 13.3 14.5 13.3 4.5 0 9.4-1.1 13.7-3V13.1h-7.6v28.7M17.5 27.7c-.5-.1-2.3-.4-2.8-.5-2.8-.5-5.2-1.2-5.2-4 0-2.4 2.5-3.6 5.7-3.6 4.7 0 8.9 2.1 9.3 2.4l2.6-6.8c-1-.5-5.2-2.8-11.9-2.8-6.1 0-13.5 3.2-13.5 11.1 0 7.1 5.1 9.4 10 10.3.7.1 2.8.5 3.4.6 3.3.6 5.1 1.8 5.1 3.9 0 2.7-2.6 4-6.4 4-6.2 0-9.9-1.9-10.9-2.3L0 46.8c.9.5 5.1 2.9 13.4 2.9 8 0 14.5-4 14.5-11.4 0-7-4.7-9.6-10.4-10.6m143.8.6h-12.8v-2.6c0-2.9 1.5-6 6.5-6 4.8 0 6.4 3 6.4 5.9v2.7zm7.6-3.6c0-6.5-5-12.3-14-12.3-10.2 0-14.1 6.4-14.1 12.3v11.9c0 8.2 5.3 13 14.1 13 7.8 0 11.8-4.5 13.1-7.2l-6.4-3.9c-.5 1.6-3.1 3.8-6.6 3.8-4.7 0-6.5-2.6-6.5-5.9v-2H169l-.1-9.7m4.9.1V49h7.6V25.4c0-2.1 1.2-5.6 6.8-5.6.9 0 2.9.2 3.5.4v-7.4c-.7-.2-2.3-.4-3.9-.4-9.7 0-14 6.1-14 12.4"/><path fill="#4E4E55" d="M348.2 15.2c0-.3-.2-.5-.7-.5h-.5v1.2h.5c.6-.1.7-.3.7-.7zm0 2.5c-.1 0-.1 0 0 0l-.7-1.3h-.4v1.2s0 .1-.1.1h-.7s-.1 0-.1-.1V14h1.4c1 0 1.4.6 1.4 1.2v.1c0 .5-.3 1-.7 1.2l.7 1.3v.1l-.8-.2zm-.6-4.7c-1.6 0-2.8 1.3-2.8 2.9 0 1.5 1.2 2.8 2.8 2.8 1.6 0 2.8-1.3 2.8-2.8 0-1.6-1.3-2.9-2.8-2.9zm0 6.5c-2.1 0-3.7-1.6-3.7-3.6 0-2.1 1.7-3.7 3.7-3.7s3.7 1.7 3.7 3.7c0 2.1-1.6 3.6-3.7 3.6"/></svg>