<svg xmlns="http://www.w3.org/2000/svg" xml:space="preserve" enable-background="new 0 0 88.2 21.9" viewBox="0 0 88.2 21.9"><g><defs><filter id="a" width="88.2" height="21.9" x="0" y="0" filterUnits="userSpaceOnUse"><feColorMatrix values="1 0 0 0 0 0 1 0 0 0 0 0 1 0 0 0 0 0 1 0"/></filter></defs><mask id="b" width="88.2" height="21.9" x="0" y="0" maskUnits="userSpaceOnUse"><g filter="url(#a)"><path fill="#FFF" fill-rule="evenodd" d="M-1.1-16.6h90v60h-90v-60z" clip-rule="evenodd"/></g></mask><g mask="url(#b)"><path fill="#1654D3" fill-rule="evenodd" d="M80.4 6.5c4.3 0 7.7 3.5 7.7 7.7s-3.5 7.7-7.7 7.7c-4.3 0-7.7-3.5-7.7-7.7s3.5-7.7 7.7-7.7zm-30.1.3c2.9.8 5.2 3.5 5.5 6.5 0 .5.2 1.3-.2 1.8-.3.4-.8.6-1.3.6H43.6c.2.5.5 1.1.8 1.5 1.2 1.5 3.3 2.2 5.2 1.6.8-.2 1.3-.7 2-1.1.5-.2 1.2-.2 1.6.2.6.5.6 1.7 0 2.2-1.9 1.8-4.7 2.2-7.2 1.5-1.6-.5-3-1.5-4-2.9-1.5-2-1.8-4.9-.9-7.2.6-1.5 1.7-2.8 3-3.7 1.7-1.3 4.1-1.5 6.2-1zM19.7 7c.6.6.4 1.6.4 2.3v10.9c0 .4-.1.8-.4 1.2-.5.6-1.6.7-2.2 0-.3-.3-.3-.7-.4-1.2V8.3c0-.5 0-.9.4-1.3.6-.6 1.6-.6 2.2 0zm51.6.4c.2.4.2.8 0 1.3l-5.4 11.7c-.2.5-.4 1.1-1 1.4-.4.1-.9.1-1.2 0-.4-.2-.6-.5-.8-.9-1.7-3.7-3.4-7.4-5.1-11-.3-.6-.7-1.3-.6-2 0-.4.2-.7.5-1 .7-.5 1.8-.3 2.2.4 1.5 3.2 2.9 6.5 4.5 9.7l4.2-9.3c.2-.3.3-.7.6-.9.7-.5 1.7-.2 2.1.6zM38.1.7c.2.3.2.6.2 1v13.1c-.1 2.8-1.8 5.2-4.3 6.4-1.4.7-3 .9-4.6.7-2.9-.4-5.5-2.7-6.2-5.5-.4-1.3-.3-2.8 0-4.2.5-1.8 1.6-3.2 3.1-4.2 2.7-2 6.6-1.9 9.1.2V1.4c0-.5.2-.9.5-1.2.7-.4 1.8-.2 2.2.5zM14.2 7.6c.2.7-.2 1.2-.4 1.8-1.8 3.8-3.5 7.7-5.3 11.5-.2.3-.3.7-.7.8-.4.2-.9.2-1.3 0-.5-.2-.6-.6-.8-1C4 17.1 2.4 13.5.7 9.9c-.2-.5-.5-1-.7-1.6-.1-.6.2-1.3.8-1.6.7-.3 1.6-.1 1.9.7 1.5 3.2 2.9 6.4 4.4 9.6 1.5-3.1 2.9-6.3 4.4-9.5.2-.4.5-.8 1-.9.8-.2 1.5.2 1.7 1zm66.2 1.8c-2.7 0-4.8 2.1-4.8 4.8s2.2 4.8 4.8 4.8 4.8-2.1 4.8-4.8-2.1-4.8-4.8-4.8zm-51 .2c-1.1.3-2.1 1-2.7 2-.7 1.1-1 2.4-.7 3.6.3 1.3 1.1 2.4 2.2 3.1 1.2.7 2.8.9 4.1.4 1.9-.7 3.2-2.6 3.1-4.7-.1-2.2-1.8-4.1-3.9-4.5-.7-.1-1.4-.1-2.1.1zm14.1 3.2h9.2c-.6-1.6-2-2.9-3.7-3.2-2.3-.6-4.7.9-5.5 3.2zM19.8 2.6c.7.6.8 1.8 0 2.5-.7.7-1.8.6-2.5-.1-.8-.9-.4-2.3.6-2.7.7-.2 1.4-.2 1.9.3z" clip-rule="evenodd"/></g></g></svg>