<svg xmlns="http://www.w3.org/2000/svg" viewBox="0 0 512 512"><path d="M495.999 256.274v20.838c0 46.735-29.272 90.343-74.225 103.126a107.102 107.102 0 0 1-37.775 3.795v-65.307c2.672.565 5.164 1.621 8 1.621 22.063 0 40-17.958 40-40.046v-16.163c0-91.967-67.024-174.35-158.562-183.218C168.609 70.764 79.999 153.356 79.999 256.274c0 87.883 64.613 160.946 148.762 174.093 15.621 2.441 27.238 15.625 27.238 31.435 0 19.516-17.418 34.915-36.706 31.94C89.137 473.663-6.847 348.524 20.757 207.841c18.336-93.449 93.573-168.794 187.025-187.11 153.38-30.063 288.217 87.262 288.217 235.543Z" style="opacity:.4"/><path d="M384 318.726c-18.104-3.825-32-19.176-32-38.425V160.164c0-8.846-7.164-16.018-16-16.018h-32c-7.299 0-13.203 4.992-15.125 11.681-14.824-7.25-31.266-11.681-48.875-11.681-61.855 0-112 50.202-112 112.128s50.145 112.128 112 112.128c26.436 0 50.408-9.552 69.566-24.888 17.496 22.815 44.163 38.172 74.434 40.519v-65.307Zm-144-14.397c-26.467 0-48-21.558-48-48.055s21.533-48.055 48-48.055 48 21.558 48 48.055-21.533 48.055-48 48.055Z" class="fa-primary"/></svg>