<svg xmlns="http://www.w3.org/2000/svg" viewBox="0 0 384 512"><path d="m277.976 328.943 34.897 163.756c2.726 13.094-10.858 23.555-22.819 17.574l-98.441-49.22-98.442 49.22c-11.96 5.981-25.544-4.48-22.818-17.574l34.899-163.763c12.609 5.949 30.554-.207 44.414 3.498C163.627 336.168 176.478 352 191.613 352c15.125 0 27.976-15.83 41.928-19.559 13.867-3.705 31.828 2.471 44.435-3.498Z" style="opacity:.4"/><path d="M368 176c0-15.127-15.826-27.973-19.559-41.924-3.855-14.433 3.317-33.451-3.996-46.09-7.412-12.814-27.535-16.066-37.933-26.47-10.407-10.403-13.653-30.528-26.469-37.946-12.641-7.314-31.66-.146-46.092-4.006C219.99 15.832 207.139 0 192 0c-15.125 0-27.973 15.83-41.924 19.557-14.43 3.859-33.451-3.315-46.086 3.996-12.816 7.414-16.068 27.539-26.469 37.939-10.402 10.403-30.529 13.649-37.945 26.469-7.32 12.637-.15 31.654-4.008 46.088C31.834 148.01 16 160.861 16 176c0 15.127 15.834 27.973 19.562 41.922 3.856 14.435-3.32 33.451 3.993 46.09 7.418 12.816 27.539 16.066 37.937 26.47 10.406 10.405 13.653 30.528 26.469 37.948 12.641 7.312 31.656.144 46.092 4.004C164.014 336.168 176.865 352 192 352c15.125 0 27.977-15.83 41.928-19.559 14.433-3.857 33.447 3.317 46.086-3.996 12.818-7.414 16.07-27.537 26.468-37.937 10.407-10.404 30.53-13.651 37.95-26.469 7.316-12.639.146-31.656 4.004-46.09C352.17 203.99 368 191.137 368 176Zm-176 80c-44.188 0-80-35.834-80-80 0-44.271 35.812-80 80-80s80 35.729 80 80c0 44.166-35.812 80-80 80Z" class="fa-primary"/></svg>