<svg xmlns="http://www.w3.org/2000/svg" viewBox="0 0 512 512"><path d="M480 416H64V64c0-17.673-14.327-32-32-32C14.327 32 0 46.327 0 64v384c0 17.6 14.4 32 32 32h448c17.673 0 32-14.327 32-32 0-17.673-14.327-32-32-32Z" style="opacity:.4"/><path d="M352 352c35.25 0 64-28.75 64-64s-28.75-64-64-64-64 28.75-64 64 28.75 64 64 64Zm32-160c35.25 0 64-28.75 64-64s-28.75-64-64-64-64 28.75-64 64 28.75 64 64 64ZM176 352c26.438 0 48-21.562 48-48s-21.562-48-48-48-48 21.562-48 48 21.562 48 48 48Zm64-128c26.438 0 48-21.562 48-48s-21.562-48-48-48-48 21.562-48 48 21.562 48 48 48Z" class="fa-primary"/></svg>