<svg xmlns="http://www.w3.org/2000/svg" viewBox="0 0 512 512"><path d="M256 16C123.451 16 16 123.451 16 256s107.451 240 240 240 240-107.451 240-240S388.549 16 256 16Zm115.812 195.812-128 128C238.344 345.281 231.156 348 224 348s-14.344-2.719-19.812-8.188l-64-64c-10.907-10.937-10.907-28.687 0-39.624 10.937-10.938 28.687-10.938 39.624 0L224 280.406l108.188-108.218c10.937-10.938 28.687-10.938 39.624 0 10.907 10.937 10.907 28.687 0 39.624Z" style="opacity:.4"/><path d="m371.805 211.812-128 128c-5.469 5.469-12.657 8.188-19.813 8.188s-14.344-2.719-19.812-8.188l-64-64c-10.907-10.937-10.907-28.687 0-39.624 10.937-10.938 28.687-10.938 39.625 0l44.187 44.218L332.18 172.188c10.937-10.938 28.687-10.938 39.625 0 10.906 10.937 10.906 28.687 0 39.624Z" class="fa-primary"/></svg>