<svg xmlns="http://www.w3.org/2000/svg" viewBox="0 0 512 512"><path d="M494.605 255.883c-65.627-.82-118.596-54.139-118.596-119.88-65.744 0-119.065-52.968-119.768-118.592-25.665-3.867-51.798.234-74.767 12.07L116.668 62.41a125.098 125.098 0 0 0-54.259 54.257l-32.813 64.569a124.248 124.248 0 0 0-12.071 75.936l11.368 71.483a124.04 124.04 0 0 0 34.805 68.32l51.329 51.327c18.516 18.515 42.306 30.702 68.205 34.804l71.837 11.367c25.899 4.101 52.267-.117 75.587-11.953l64.806-33.046a123.364 123.364 0 0 0 54.142-54.14l32.93-64.569a124.492 124.492 0 0 0 12.071-74.882ZM176.007 367.996c-17.625 0-32-14.374-32-31.998s14.375-31.999 32-31.999 32 14.374 32 31.999-14.375 31.998-32 31.998Zm32-159.994c-17.625 0-32-14.374-32-31.999s14.375-31.998 32-31.998 32 14.374 32 31.998-14.375 31.999-32 31.999Zm160 127.996c-17.625 0-32-14.375-32-31.999s14.375-31.999 32-31.999 32 14.374 32 31.999-14.375 31.999-32 31.999Z" style="opacity:.4"/><path d="M176 303.999c-17.625 0-32 14.374-32 31.999s14.375 31.998 32 31.998 32-14.374 32-31.998-14.375-31.999-32-31.999Zm32-159.994c-17.625 0-32 14.374-32 31.998s14.375 31.999 32 31.999 32-14.374 32-31.999-14.375-31.998-32-31.998ZM368 272c-17.625 0-32 14.374-32 31.999s14.375 31.999 32 31.999 32-14.375 32-31.999S385.625 272 368 272Z" class="fa-primary"/></svg>