<svg xmlns="http://www.w3.org/2000/svg" viewBox="0 0 512 512"><path d="M359.5 133.672c-10.109-8.578-25.281-7.297-33.828 2.828L256 218.84l-69.672-82.34c-8.547-10.094-23.719-11.359-33.828-2.828-10.125 8.562-11.391 23.719-2.828 33.828l74.885 88.5-74.885 88.5c-8.563 10.109-7.297 25.266 2.828 33.828A23.889 23.889 0 0 0 167.984 384c6.813 0 13.594-2.891 18.344-8.5L256 293.16l69.672 82.34c4.75 5.609 11.531 8.5 18.344 8.5a23.889 23.889 0 0 0 15.484-5.672c10.125-8.562 11.391-23.719 2.828-33.828L287.443 256l74.885-88.5c8.563-10.109 7.297-25.266-2.828-33.828ZM256 16C123.451 16 16 123.451 16 256s107.451 240 240 240 240-107.451 240-240S388.549 16 256 16Zm0 432c-105.869 0-192-86.131-192-192S150.131 64 256 64s192 86.131 192 192-86.131 192-192 192Z"/></svg>