<svg xmlns="http://www.w3.org/2000/svg" viewBox="0 0 512 512"><path d="M256 16C123.451 16 16 123.451 16 256s107.451 240 240 240 240-107.451 240-240S388.549 16 256 16Zm-24 136c0-13.25 10.75-24 24-24s24 10.75 24 24v128c0 13.25-10.75 24-24 24s-24-10.75-24-24V152Zm24 248c-17.363 0-31.438-14.076-31.438-31.439 0-17.362 14.075-31.438 31.438-31.438s31.438 14.076 31.438 31.438C287.438 385.924 273.363 400 256 400Z" style="opacity:.4"/><path d="M256.438 304c13.25 0 24-10.75 24-24V152c0-13.25-10.75-24-24-24s-24 10.75-24 24v128c0 13.25 10.75 24 24 24Zm0 33.123c-17.364 0-31.438 14.076-31.438 31.438C225 385.924 239.074 400 256.438 400s31.437-14.076 31.437-31.439c0-17.362-14.074-31.438-31.437-31.438Z" class="fa-primary"/></svg>