<svg xmlns="http://www.w3.org/2000/svg" viewBox="0 0 512 512"><path d="M32 128h160.018V64H32C14.4 64 0 78.4 0 96s14.4 32 32 32Zm0 160h288.018v-64H32c-17.6 0-32 14.4-32 32s14.4 32 32 32Zm448-64h-63.982c0-.031-.018-.057-.018-.088V208c0-17.674-14.326-32-32-32s-32 14.326-32 32v96c0 17.672 14.326 32 32 32s32-14.328 32-32v-15.912c0-.031.018-.057.018-.088H480c17.6 0 32-14.4 32-32s-14.4-32-32-32ZM0 416c0 17.6 14.4 32 32 32h64.018v-64H32c-17.6 0-32 14.4-32 32Zm480-32H192.018c0-.031-.018-.057-.018-.088V368c0-17.674-14.326-32-32-32s-32 14.326-32 32v96c0 17.672 14.326 32 32 32s32-14.328 32-32v-15.912c0-.031.018-.057.018-.088H480c17.6 0 32-14.4 32-32s-14.4-32-32-32ZM256 176c17.674 0 32-14.328 32-32v-15.912c0-.031.018-.057.018-.088H480c17.6 0 32-14.4 32-32s-14.4-32-32-32H288.018c0-.031-.018-.057-.018-.088V48c0-17.674-14.326-32-32-32s-32 14.326-32 32v96c0 17.672 14.326 32 32 32Z"/></svg>