<svg xmlns="http://www.w3.org/2000/svg" xml:space="preserve" style="enable-background:new 0 0 18 18" viewBox="0 0 18 18"><path d="M3.6-4.8c0-.6-.1-1.3-.2-1.8H-5v3.5h4.8C-.4-2-1-1.1-2-.4v2.3h3c1.7-1.6 2.6-4 2.6-6.7z" style="fill-rule:evenodd;clip-rule:evenodd;fill:#4285f4" transform="translate(14 14)"/><path d="M-5 4c2.4 0 4.5-.8 6-2.2L-2-.4c-.8.5-1.8.9-3 .9-2.3 0-4.3-1.6-5-3.7h-3V-1c1.4 3 4.5 5 8 5z" style="fill-rule:evenodd;clip-rule:evenodd;fill:#34a853" transform="translate(14 14)"/><path d="M-10-3.3c-.2-.5-.3-1.1-.3-1.7s.1-1.2.3-1.7V-9h-3c-.6 1.2-1 2.6-1 4s.3 2.8 1 4l3-2.3z" style="fill-rule:evenodd;clip-rule:evenodd;fill:#fbbc05" transform="translate(14 14)"/><path d="M-5-10.4c1.3 0 2.5.5 3.4 1.3L1-11.7C-.5-13.1-2.6-14-5-14c-3.5 0-6.6 2-8 5l3 2.3c.7-2.1 2.7-3.7 5-3.7z" style="fill-rule:evenodd;clip-rule:evenodd;fill:#ea4335" transform="translate(14 14)"/><path d="M-14-14H4V4h-18v-18z" style="fill:none" transform="translate(14 14)"/></svg>