<svg xmlns="http://www.w3.org/2000/svg" viewBox="0 0 512 512"><path d="M176 0H48C21.49 0 0 21.49 0 48v128c0 26.51 21.49 48 48 48h128c26.51 0 48-21.49 48-48V48c0-26.51-21.49-48-48-48Zm288 288H336c-26.51 0-48 21.49-48 48v128c0 26.51 21.49 48 48 48h128c26.51 0 48-21.49 48-48V336c0-26.51-21.49-48-48-48Zm0-288H336c-26.51 0-48 21.49-48 48v128c0 26.51 21.49 48 48 48h128c26.51 0 48-21.49 48-48V48c0-26.51-21.49-48-48-48ZM176 288H48c-26.51 0-48 21.49-48 48v128c0 26.51 21.49 48 48 48h128c26.51 0 48-21.49 48-48V336c0-26.51-21.49-48-48-48Z"/></svg>