<svg xmlns="http://www.w3.org/2000/svg" viewBox="0 0 640 512"><path d="M608.002 128.228h-128c-40.978-40.929-64.556-63.926-122.509-63.926-10.494 0-19.979-.816-30.241 8.364l-110.25 90.901c-20.25 17.112-22.765 47.401-5.64 67.604 9.5 11.209 23.031 16.986 36.672 16.986 10.937 0 21.953-3.716 30.968-11.335l33.59-28.399h.002l5.983-5.059 165.3 135.382c4.362 3.54 7.092 8.123 9.047 12.986h115.078c17.6 0 32-14.383 32-31.963V160.195c0-17.654-14.326-31.967-32-31.967Z" style="opacity:.4"/><path d="M483.875 338.745c13.68 11.101 15.781 31.167 4.701 44.86L479 395.431c-11.125 13.74-31.25 15.738-45.001 4.747l-5.374-4.497-31.375 38.587c-13 15.855-36.5 18.353-52.375 5.367L327 424.151l-.25.25c-22.25 27.345-62.5 31.592-90 9.242l-90.5-81.787H31.988C14.395 351.856 0 337.473 0 319.893V160.202c0-17.586 14.4-31.975 32-31.975h96l.15-.148C168.753 87.613 223.632 64.376 280.945 64l46.305 8.666L217 163.567c-20.25 17.111-22.766 47.4-5.641 67.603 9.5 11.21 23.032 16.986 36.672 16.986 10.938 0 21.953-3.715 30.969-11.334l39.574-33.458 165.301 135.381Z" class="fa-primary"/></svg>