<svg xmlns="http://www.w3.org/2000/svg" viewBox="0 0 512 512"><path d="m511.623 36.863-64 415.997A32.004 32.004 0 0 1 415.998 480c-4.187 0-8.343-.812-12.312-2.468l-122.641-51.1L191.998 512V394.98a31.992 31.992 0 0 1 6.743-19.645L415.998 96.004 122.332 360.302 19.686 317.533C8.436 312.845.811 302.158.061 289.986s5.469-23.718 16.062-29.765l448-255.998c10.688-6.109 23.875-5.547 34 1.406s15.375 19.094 13.5 31.234Z" style="opacity:.4"/><path d="M415.666 96.004 198.408 375.335a31.997 31.997 0 0 0-6.742 19.645V512L122 360.302 415.666 96.004Z" class="fa-primary"/></svg>