<svg xmlns="http://www.w3.org/2000/svg" viewBox="0 0 576 512"><path d="M576 136c0 22.092-17.908 40-40 40-.248 0-.453-.137-.701-.141l-50.522 277.866C482.012 468.939 468.758 480 453.293 480H122.707c-15.465 0-28.719-11.061-31.484-26.275L40.701 175.859c-.248.004-.453.141-.701.141-22.092 0-40-17.908-40-40s17.908-40 40-40 40 17.908 40 40c0 8.998-3.521 16.889-8.537 23.57l89.627 71.701c15.908 12.727 39.502 7.545 48.613-10.675l57.598-115.198C255.963 98.34 248 86.342 248 72c0-22.092 17.908-40 40-40s40 17.908 40 40c0 14.342-7.963 26.34-19.301 33.398l57.598 115.198c9.111 18.22 32.705 23.402 48.613 10.675l89.627-71.701C499.521 152.889 496 144.998 496 136c0-22.092 17.908-40 40-40s40 17.908 40 40Z"/></svg>