<svg xmlns="http://www.w3.org/2000/svg" viewBox="0 0 512 512"><path d="M512 416c0 52.875-43.125 96-96 96H96s25.84-28.869 50.713-64H416c17.625 0 32-14.375 32-32s-14.375-32-32-32h-96c-52.875 0-96-43.125-96-96s43.125-96 96-96h45.287C390.16 227.131 416 256 416 256h-96c-17.625 0-32 14.375-32 32s14.375 32 32 32h96c52.875 0 96 43.125 96 96Z" style="opacity:.4"/><path d="M96 256c-53 0-96 43-96 96s96 160 96 160 96-107 96-160-43-96-96-96Zm0 128c-17.75 0-32-14.25-32-32s14.25-32 32-32 32 14.25 32 32-14.25 32-32 32ZM416 0c-53 0-96 43-96 96s96 160 96 160 96-107 96-160-43-96-96-96Zm0 128c-17.75 0-32-14.25-32-32s14.25-32 32-32 32 14.25 32 32-14.25 32-32 32Z" class="fa-primary"/></svg>