<svg xmlns="http://www.w3.org/2000/svg" viewBox="0 0 640 512"><path d="M495.997 448H351.998V153.25c23.5-10.25 41.125-31.5 46.375-57.25h113.624c17.673 0 31.999-14.326 31.999-32s-14.326-32-31.999-32H383.623c-14.625-19.375-37.5-32-63.625-32s-48.999 12.625-63.624 32H128c-17.674 0-32 14.326-32 32s14.326 32 32 32h113.624c5.25 25.75 22.875 47 46.374 57.25V448H144c-26.51 0-48 21.49-48 48 0 8.836 7.164 16 16 16h415.996c8.836 0 16-7.164 16-16 0-26.51-21.49-48-47.999-48Z" style="opacity:.4"/><path d="M554.874 154.5c-17.624-35.25-68.124-35.375-85.874 0-86.999 174.25-84.999 165.875-84.999 181.5 0 44.125 57.249 80 127.999 80s127.999-35.875 127.999-80c0-16.125 1.375-8.75-85.125-181.5ZM440 320l72-144 71.999 144H440ZM85.003 154.5C-1.996 328.75.004 320.375.004 336c0 44.125 57.249 80 127.999 80s127.999-35.875 127.999-80c0-16.125 1.375-8.75-85.125-181.5-17.624-35.25-68.124-35.375-85.874 0Zm-29 165.5 72-144 71.999 144H56.003Z" class="fa-primary"/></svg>