<svg xmlns="http://www.w3.org/2000/svg" viewBox="0 0 576 512"><path d="M320 224h95.998c17.673 0 32-14.328 32-32s-14.327-32-32-32H320c-17.674 0-32 14.328-32 32s14.326 32 32 32Zm0 128h159.998c17.673 0 32-14.328 32-32s-14.327-32-32-32H320c-17.674 0-32 14.328-32 32s14.326 32 32 32Zm0-256h32c17.673 0 32-14.328 32-32s-14.327-32-32-32h-32c-17.674 0-32 14.328-32 32s14.326 32 32 32Zm223.998 320H320c-17.674 0-32 14.328-32 32s14.326 32 32 32h223.998c17.673 0 32-14.328 32-32s-14.327-32-32-32Zm-351.594-85.336L160 366.062V64.031C160 46.328 145.671 32 128 32S96 46.328 96 64.031v302.032l-32.405-35.399c-6.312-6.883-14.937-10.383-23.609-10.383a31.874 31.874 0 0 0-21.609 8.414c-13.03 11.953-13.905 32.219-1.969 45.266l87.998 96.094c12.125 13.258 35.062 13.258 47.187 0l87.998-96.094c11.936-13.047 11.061-33.313-1.968-45.266-13.016-11.945-33.266-11.039-45.219 1.969Z"/></svg>