<svg xmlns="http://www.w3.org/2000/svg" viewBox="0 0 640 512"><path d="M224 96c-17.673 0-32 14.327-32 32v256c0 17.673 14.327 32 32 32 17.673 0 32-14.327 32-32V128c0-17.673-14.327-32-32-32ZM32 224c-17.673 0-32 14.327-32 32 0 17.673 14.327 32 32 32 17.673 0 32-14.327 32-32 0-17.673-14.327-32-32-32ZM320 0c-17.673 0-32 14.327-32 32v448c0 17.673 14.327 32 32 32 17.673 0 32-14.327 32-32V32c0-17.673-14.327-32-32-32ZM128 192c-17.673 0-32 14.327-32 32v64c0 17.673 14.327 32 32 32 17.673 0 32-14.327 32-32v-64c0-17.673-14.327-32-32-32Zm480 32c-17.673 0-32 14.327-32 32 0 17.673 14.327 32 32 32 17.673 0 32-14.327 32-32 0-17.673-14.327-32-32-32Zm-192-96c-17.673 0-32 14.327-32 32v192c0 17.673 14.327 32 32 32 17.673 0 32-14.327 32-32V160c0-17.673-14.327-32-32-32Zm96-64c-17.673 0-32 14.327-32 32v320c0 17.673 14.327 32 32 32 17.673 0 32-14.327 32-32V96c0-17.673-14.327-32-32-32Z"/></svg>