<svg xmlns="http://www.w3.org/2000/svg" viewBox="0 0 640 512"><path d="m488.69 269.922-96.744 33.709c-.192-39.754-32.573-71.826-72.326-71.635-39.627.192-71.647 32.375-71.635 72.004a71.097 71.097 0 0 0 15.375 43.799l-127.059 43.642c-8.754 3.008-18.051-.693-21.269-8.466l-8.743-21.108-64.109 26.555c-8.162 3.381-17.521-.496-20.902-8.66L1.219 331.34c-3.377-8.166.502-17.522 8.664-20.904l64.102-26.555-8.742-21.11c-3.219-7.773.738-16.964 9.054-21.029L409.44 78.572l79.25 191.35Z" style="opacity:.4"/><path d="M638.781 216.834c0-.002-.004-.004-.004-.004L553.062 9.881c-3.38-8.162-12.738-12.041-20.902-8.66L414.844 49.818c-8.162 3.381-12.039 12.739-8.658 20.901l.001.004 85.711 206.949c3.383 8.164 12.743 12.041 20.907 8.66l117.312-48.598c8.164-3.38 12.039-12.738 8.664-20.9ZM422.625 480l-46.416-131.51C385.943 336.211 392 320.887 392 304c0-39.766-32.234-72-72-72-39.764 0-72 32.234-72 72 0 16.887 6.057 32.211 15.791 44.49L217.375 480c-4.406 12.5 2.125 26.219 14.625 30.625a23.952 23.952 0 0 0 8 1.375c9.875 0 19.156-6.156 22.625-16l42.869-121.463c4.686.959 9.537 1.463 14.506 1.463s9.82-.504 14.506-1.463L377.375 496c3.469 9.844 12.719 16 22.625 16 2.656 0 5.344-.438 8-1.375 12.5-4.406 19.031-18.125 14.625-30.625ZM296 304c0-13.234 10.768-24 24-24 13.234 0 24 10.766 24 24 0 13.232-10.766 24-24 24-13.232 0-24-10.768-24-24Z" class="fa-primary"/></svg>