<svg xmlns="http://www.w3.org/2000/svg" xml:space="preserve" viewBox="0 0 500.3 460.9"><path stroke="#FFF" stroke-miterlimit="10" d="M346.1 242.5h58.6c36.3 0 65.9-29.7 65.9-65.9V93.3c0-36.3-29.7-65.9-65.9-65.9h-58.6c-36.3 0-65.9 29.7-65.9 65.9v83.3c0 36.2 29.7 65.9 65.9 65.9zM332.9 434H418c28.9 0 52.6-23.7 52.6-52.6v-42.8c0-28.9-23.7-52.6-52.6-52.6h-85.1c-28.9 0-52.6 23.7-52.6 52.6v42.8c-.1 28.9 23.6 52.6 52.6 52.6zM153.7 218.7H95.1c-36.3 0-65.9 29.7-65.9 65.9v83.3c0 36.3 29.7 65.9 65.9 65.9h58.6c36.3 0 65.9-29.7 65.9-65.9v-83.3c0-36.3-29.7-65.9-65.9-65.9zM167 27.2H81.8c-28.9 0-52.6 23.7-52.6 52.6v42.8c0 28.9 23.7 52.6 52.6 52.6H167c28.9 0 52.6-23.7 52.6-52.6V79.8c0-29-23.7-52.6-52.6-52.6z"/></svg>