<svg xmlns="http://www.w3.org/2000/svg" xml:space="preserve" viewBox="0 0 1204.6 1058.7"><path fill="#DBD1BD" d="m245.3 921.8 52.8-.2s150.2-168.5 177.2-253.5c23.4-73.4 13.6-163-47.5-216.3-72-62.8-184.5-61.6-184.5-61.6l2 531.6z"/><path fill="#EADFC7" d="M243.3 390.2s91.8 4.2 145.9 56.9c57.3 55.8 56.1 92.7 54.6 144.9-4 137.7-153.6 329.7-153.6 329.7l-45 .2-1.9-531.7z"/><path fill="#F4E9CE" d="M244.3 390.2s48.3 9.3 92.2 50.5c46.9 44 55.5 119.6 46.1 185.8-12.1 85.2-103.1 295.2-103.1 295.2l-33.2.1-2-531.6z"/><path fill="#8C7C72" d="m301.3 921.8-29.8 39.5 6.9 33.4-4.3.1-6.7-33.4 28.8-39.5z"/><path fill="#DBD1BD" d="M242.9 921.8h-52.8S39.3 753.8 11.9 669c-23.7-73.3-14.2-162.9 46.7-216.4 71.8-63.1 184.2-62.3 184.2-62.3v531.5z"/><path fill="#EADFC7" d="M242.9 390.2s-91.8 4.5-145.7 57.4c-57 56-55.8 93-54.1 145.1 4.5 137.6 154.8 329.1 154.8 329.1h45V390.2z"/><path fill="#F4E9CE" d="M242.9 390.2s-48.3 9.5-92 50.8c-46.7 44.1-55 119.8-45.4 186 12.4 85.1 104.2 294.8 104.2 294.8h33.2V390.2z"/><path fill="#FFF3D4" d="M292.1 447.4c-15.8-37.9-49.2-57.2-49.2-57.2s-33.3 19.4-48.9 57.4c-14.6 35.5-22 87.4-14.5 173.4s50.8 300.8 50.8 300.8l28-.1s42.2-215.1 49.3-301.1c7-85.9-.7-137.8-15.5-173.2z"/><path fill="#8C7C72" d="M187 918.3h114.3v3.5H187zM271.5 1058.7h-51.9c-3.9 0-7-3.1-7-7v-57.4h65.9v57.4c0 3.8-3.1 7-7 7z"/><path fill="#6D615A" d="M271.8 994.3v52.3c0 3.9-3.1 7-7 7h-51.9c.8 3 3.5 5.1 6.7 5.1h51.9c3.9 0 7-3.1 7-7v-57.4h-6.7z"/><path fill="#8C7C72" d="m187 921.8 30.4 39.1-4.8 33.4h4.3l4.6-33.4-29.3-39.1z"/><path fill="#8C7C72" d="m217.4 960.9 54.1.4 1.2 6.2h-56.2z"/><path fill="#334B8E" d="M67.8 445.1h175.1v-54.8c0-.1-103.3-.7-175.1 54.8z"/><path fill="#3B53A8" d="M242.9 445.1v-54.8s-88.8 4.4-143 54.8h143z"/><path fill="#4055BC" d="M146.8 445.1h96.1v-54.8s-48.3 9.5-92 50.8c-1.4 1.2-2.8 2.6-4.1 4z"/><path fill="#9461BC" d="M243.3 506.4v-61.3H68.2c-3.1 2.4-6.1 4.9-9.1 7.5-17.5 15.4-30.8 33.7-40.2 53.8h224.4z"/><path fill="#A869D1" d="M241.4 506.4v-61.3h-143c-.9.8-1.8 1.7-2.7 2.6-22.2 21.8-35.6 40.7-43.5 58.7h189.2z"/><path fill="#BF72E8" d="M111 506.4h130.9v-61.3h-96.1c-16.4 16.9-27.7 38.1-34.8 61.3z"/><path fill="#C671C6" d="M.1 582.5h242.6v-76.1H18.3C7.2 530 1.4 556.1.1 582.5z"/><path fill="#D879D4" d="M242.9 506.4H53.7c-11.1 25.2-11.6 48.8-10.9 76.1h200.1v-76.1z"/><path fill="#E880DE" d="M242.9 506.4h-131c-7.4 23.9-10.3 50.1-10 76.1h141v-76.1z"/><path fill="#C689B9" d="M242.9 582.5H.3C-.9 607.2 2 632.3 8.2 656h234.7v-73.5z"/><path fill="#D390C2" d="M242.8 582.5H42.7c.1 3.3.2 6.8.3 10.2.7 20.2 4.5 41.6 10.5 63.3h189.3v-73.5z"/><path fill="#E59ACE" d="M242.9 582.5h-141c.2 15 1.4 30 3.5 44.5 1.2 8.5 3.3 18.3 5.9 29h131.5v-73.5z"/><path fill="#485AD8" d="M183.4 656c-.2 2.3 7.7 86.1 58.5 86.1 50.9 0 61.7-86.1 61.7-86.1H183.4z"/><path fill="#4055BC" d="M112.9 661.3c-.1.8 16.1 82 44.8 80.9 28.7-1.1 26-85.9 26-85.9L153 683.8l-40.1-22.5z"/><path fill="#3B53A8" d="M53.5 656c.5 2.1 28.3 86.7 55.4 86.1 27-.6 3.7-80.5 3.7-80.5l-20.3 24.2L53.5 656z"/><path fill="#334B8E" d="M8.6 657.3s31.6 85 50.6 84.8c19-.2-6.7-89.2-5.7-86.1 1 3-13.7 33.8-13.7 33.8L8.6 657.3z"/><path fill="#E59ACE" d="M111.4 656s7.3 45.7 38 45.1c30.8-.6 34-45.1 34-45.1h-72z"/><path fill="#D390C2" d="M53.5 656s11.5 44.2 40 44.1c28 0 17.9-44.1 17.9-44.1H53.5z"/><path fill="#C689B9" d="M8.2 656s12.6 45.1 34.4 44.1c21.8-.9 10.9-44.1 10.9-44.1H8.2z"/><path fill="#334B8E" d="M418.2 445.1H243.1v-54.8c0-.1 103.3-.7 175.1 54.8z"/><path fill="#3B53A8" d="M243.1 445.1v-54.8s88.8 4.4 143 54.8h-143z"/><path fill="#4055BC" d="M339.2 445.1h-96.1v-54.8s48.3 9.5 92 50.8c1.4 1.2 2.8 2.6 4.1 4z"/><path fill="#9461BC" d="M242.6 506.4v-61.3h175.1c3.1 2.4 6.1 4.9 9.1 7.5 17.5 15.4 30.8 33.7 40.2 53.8H242.6z"/><path fill="#A869D1" d="M244.6 506.4v-61.3h143c.9.8 1.8 1.7 2.7 2.6 22.2 21.8 35.6 40.7 43.5 58.7H244.6z"/><path fill="#BF72E8" d="M375 506.4H244.1v-61.3h96.1c16.4 16.9 27.7 38.1 34.8 61.3z"/><path fill="#C671C6" d="M485.8 582.5H243.2v-76.1h224.4c11.2 23.6 17 49.7 18.2 76.1z"/><path fill="#D879D4" d="M243.1 506.4h189.2c11.1 25.2 11.6 48.8 10.9 76.1H243.1v-76.1z"/><path fill="#E880DE" d="M243.1 506.4H374c7.4 23.9 10.3 50.1 10 76.1H243v-76.1z"/><path fill="#C689B9" d="M243.1 582.5h242.6c1.2 24.7-1.7 49.8-7.9 73.5H243.1v-73.5z"/><path fill="#D390C2" d="M243.2 582.5h200.1c-.1 3.3-.2 6.8-.3 10.2-.7 20.2-4.5 41.6-10.5 63.3H243.2v-73.5z"/><path fill="#E59ACE" d="M243.1 582.5h141c-.2 15-1.4 30-3.5 44.5-1.2 8.5-3.3 18.3-5.9 29H243.1v-73.5z"/><path fill="#4055BC" d="M373.1 661.3c.1.8-16.1 82-44.8 80.9-28.7-1.1-26-85.9-26-85.9l30.8 27.5 40-22.5z"/><path fill="#3B53A8" d="M432.5 656c-.5 2.1-28.3 86.7-55.4 86.1-27-.6-3.7-80.5-3.7-80.5l20.3 24.2 38.8-29.8z"/><path fill="#334B8E" d="M477.4 657.3s-31.6 85-50.6 84.8c-19-.2 6.7-89.2 5.7-86.1-1 3 13.7 33.8 13.7 33.8l31.2-32.5z"/><path fill="#E59ACE" d="M374.6 656s-7.3 45.7-38 45.1c-30.8-.6-34-45.1-34-45.1h72z"/><path fill="#D390C2" d="M432.5 656s-11.5 44.2-40 44.1c-28 0-17.9-44.1-17.9-44.1h57.9z"/><path fill="#C689B9" d="M477.8 656s-12.6 45.1-34.4 44.1c-21.8-.9-10.9-44.1-10.9-44.1h45.3z"/><path fill="#D378F9" d="M194.1 447.6c-6.5 15.8-11.6 34.9-14.5 58.7h127.6c-3.1-24-8.3-43.2-14.9-59-.3-.8-.7-1.6-1-2.3h-96.1c-.4.9-.8 1.8-1.1 2.6z"/><path fill="#F484E4" d="M176.9 582.5h132.9c1-29.9-.1-54.9-2.8-76.1H179.4c-2.6 21.2-3.6 46.2-2.5 76.1z"/><path fill="#F2A0D5" d="M176.9 582.5c.5 12 1.3 24.8 2.5 38.5.9 10.1 2.3 21.9 4 35h120.3c1.7-13.2 3-25.2 3.9-35.3 1.1-13.6 1.9-26.3 2.3-38.2h-133zM183.4 656s11.7 47.7 58.5 47.8c52.3.2 61.7-47.8 61.7-47.8H183.4z"/><path fill="#485AD8" d="M194.9 445.1H291c-16.2-36.4-48.2-54.8-48.2-54.8-.1-.1-31.9 18.4-47.9 54.8z"/><path fill="#334B8E" d="M242.9 869.8h-97.3c19.4 23.5 35 41.2 41.4 48.4h55.9v-48.4z"/><path fill="#3B53A8" d="M242.9 869.8h-82.3c16.2 24 29.2 41.4 34.6 48.4h47.7v-48.4z"/><path fill="#4055BC" d="M242.9 869.8h-55.2c9.7 23.6 17.3 41.3 20.5 48.4H243v-48.4z"/><path fill="#334B8E" d="m245 870 97.8-1c-19.2 23.7-35.2 42-41.5 49.3l-55.8.2-.5-48.5z"/><path fill="#3B53A8" d="m245 870 82.3-.9c-16 24.2-29.1 42.2-34.4 49.3h-47.3L245 870z"/><path fill="#4055BC" d="m245 870 55.2-.6c-9.5 23.7-16.9 41.4-20 48.7l-34.8.4-.4-48.5z"/><path fill="#485AD8" d="M229.7 918.3h29.4c1.4-7.1 4.8-24.8 9.2-48.4h-48.1c4.6 23.5 8.1 41.2 9.5 48.4z"/><path fill="#FF440B" d="m914.8 637.5 63.3-.2s180.1-202.1 212.5-304c28-88.1 16.3-195.4-57-259.4C1047.2-1.4 912.4 0 912.4 0l2.4 637.5z"/><path fill="#EADFC7" d="M912.4 0s110.1 5 175 68.2c68.7 66.9 67.3 111.2 65.5 173.7-4.8 165.1-184.2 395.4-184.2 395.4l-53.9.2L912.4 0z"/><path fill="#FF603B" d="M912.4 0s57.9 11.2 110.6 60.5c56.2 52.7 66.6 143.5 55.3 222.9-14.5 102.2-123.7 354-123.7 354l-39.8.2L912.4 0z"/><path fill="#8C7C72" d="m981.9 637.5-35.7 47.4 8.3 40.1-5.2.1-8-40.1 34.5-47.4z"/><path fill="#FF440B" d="M911.9 637.5h-63.3S667.8 436.1 634.9 334.3c-28.4-88-17.1-195.4 56-259.6C777-.9 911.9 0 911.9 0v637.5z"/><path fill="#EADFC7" d="M911.9 0S801.8 5.4 737.1 68.9c-68.4 67.1-66.9 111.5-64.8 174 5.4 165 185.7 394.6 185.7 394.6h53.9V0z"/><path fill="#FF603B" d="M911.9 0S854 11.4 801.5 60.9c-56.1 52.9-66 143.7-54.5 223.1 14.9 102.1 125 353.5 125 353.5h39.8V0z"/><path fill="#FFF3D4" d="M970.9 68.6C952 23.1 911.9 0 911.9 0s-40 23.3-58.7 68.9c-17.5 42.5-26.4 104.8-17.4 207.9 9 103.1 60.9 360.7 60.9 360.7l33.6-.1s50.6-257.9 59.1-361.1c8.5-103.1-.8-165.3-18.5-207.7z"/><path fill="#8C7C72" d="M844.9 633.3H982v4.3H844.9zM946.2 801.7h-62.3c-4.6 0-8.4-3.8-8.4-8.4v-68.8h79.1v68.8c0 4.6-3.8 8.4-8.4 8.4z"/><path fill="#6D615A" d="M946.5 724.4v62.7c0 4.6-3.8 8.4-8.4 8.4h-62.3c1 3.5 4.2 6.1 8.1 6.1h62.3c4.6 0 8.4-3.8 8.4-8.4v-68.8h-8.1z"/><path fill="#8C7C72" d="m844.9 637.5 36.5 46.9-5.9 40h5.2l5.5-40-35.2-46.9z"/><path fill="#8C7C72" d="m881.4 684.4 64.8.5 1.5 7.4h-67.5z"/><path fill="#E0340B" d="M1194 329.2c8.8-27.8 11.1-91.8 10.5-87-3.8 28.1-6.9 33.7-8.9 39.8-17.1 54-42.2 105.5-74.3 152.2-18.4 26.9-39.2 52.2-61.9 75.5-26.8 27.4-56.4 52.1-83.4 79.3-12.1 12.2-24.5 27.8-22.3 44.3l27.8-.1s180-202.1 212.5-304z"/><path fill="#EADFC5" d="M918.7 633.2h12.8s50.6-257.9 59.1-361.1c1.8-22.3 2.8-42.8 3.1-61.5-8.8 14.6-8 42.6-10.6 57.9-4.1 24.1-8.6 48.2-14.2 72-6.8 29.4-15.2 58.5-21.1 88.1-4.6 23-7.7 46.3-10.9 69.5-6.1 45.1-12.2 90.1-18.2 135.1z"/><path fill="#DBC8AF" d="M971.6 633.2s175.5-231.3 181.7-396.3c-2.2 1.2-15.1 45.4-19.4 60.7-6.4 22.8-18.2 39-26.3 61.2-20.1 54.4-38.5 81.5-79.7 151.5-22.9 38.9-58.6 76-70.5 119.6-.3 1.1-.5 2.2-.7 3.3h14.9z"/><path fill="#E55438" d="M956.3 633.2s109.2-251.8 123.7-354c3.2-22.2 2.6-46.4 1.8-69.3-6 8.3-5.1 33.7-6.7 41.1-6.6 31-14.1 61.8-22.6 92.3-17.3 61.8-38.6 122.6-63.7 181.6-14.4 33.8-30 67-46.8 99.6-1.4 2.6-2.6 5.7-3.3 8.8l17.6-.1z"/></svg>