<svg xmlns="http://www.w3.org/2000/svg" xml:space="preserve" viewBox="0 0 500 500"><path fill="#92E3A9" d="M437.4 314.9s51.1-57.4 34.9-157.3C456 57.7 372.6 20.9 317.2 40.1c-55.4 19.2-67.8 52.7-113 71.8s-131.1 6-174 70.3c-42.9 64.3 11.9 170.8 81.7 237.6 69.7 66.9 247.9 25 325.5-104.9z"/><path fill="#FFF" d="M437.4 314.9s51.1-57.4 34.9-157.3C456 57.7 372.6 20.9 317.2 40.1c-55.4 19.2-67.8 52.7-113 71.8s-131.1 6-174 70.3c-42.9 64.3 11.9 170.8 81.7 237.6 69.7 66.9 247.9 25 325.5-104.9z" opacity=".7"/><path fill="none" stroke="#263238" stroke-miterlimit="10" d="M61.6 476.2h400.1"/><g stroke="#263238" stroke-miterlimit="10"><path fill="none" stroke-width="2" d="m123.7 324.3 15.9 151.8M136.7 444.9l-7-7.4"/><path fill="#92E3A9" d="M131.8 439.7s.2-3.3-2.8-6c-1.8-1.6-11.3-5.6-12.3-2.3-.9 3.7 8.8 10.9 15.1 8.3z"/><path fill="none" stroke-width=".5" d="m131.8 439.7-9.1-5.7"/><path fill="none" stroke-width="2" d="m138.5 461.9-7.1-7.5"/><path fill="#92E3A9" d="M133.6 456.7s.2-3.3-2.8-6c-1.8-1.6-11.3-5.6-12.3-2.3-1 3.6 8.8 10.8 15.1 8.3z"/><path fill="none" stroke-width=".5" d="m133.6 456.7-9.1-5.7"/><path fill="none" stroke-width="2" d="m132.4 403.5-7-7.5"/><path fill="#92E3A9" d="M127.5 398.3s.2-3.3-2.8-6c-1.8-1.6-11.3-5.6-12.3-2.3-.9 3.7 8.8 10.8 15.1 8.3z"/><path fill="none" stroke-width=".5" d="m127.5 398.3-9.1-5.7"/><path fill="none" stroke-width="2" d="m134.2 420.5-7.1-7.5"/><path fill="#92E3A9" d="M129.3 415.3s.2-3.3-2.8-6c-1.8-1.6-11.3-5.6-12.3-2.3-1 3.6 8.8 10.8 15.1 8.3z"/><path fill="none" stroke-width=".5" d="m129.3 415.3-9.1-5.7"/><path fill="none" stroke-width="2" d="m129.5 375.9-7-7.4"/><path fill="#92E3A9" d="M124.6 370.7s.2-3.3-2.8-6c-1.8-1.6-11.3-5.6-12.3-2.3-.9 3.7 8.8 10.9 15.1 8.3z"/><path fill="none" stroke-width=".5" d="m124.6 370.7-9.1-5.6"/><path fill="none" stroke-width="2" d="m126.6 348.3-7-7.5"/><path fill="#92E3A9" d="M121.7 343s.2-3.3-2.8-6c-1.8-1.6-11.3-5.6-12.3-2.3-.9 3.7 8.8 10.9 15.1 8.3z"/><path fill="none" stroke-width=".5" d="m121.7 343-9-5.6"/><path fill="none" stroke-width="2" d="m135.5 434.9 5.4-8.8"/><path fill="#92E3A9" d="M139.3 428.7s-.9-3.2 1.5-6.4c1.4-2 9.9-7.9 11.5-4.8 1.7 3.4-6.3 12.5-13 11.2z"/><path fill="none" stroke-width=".5" d="m139.3 428.7 8.2-7.8"/><path fill="none" stroke-width="2" d="m130.9 390.2 5.4-8.7"/><path fill="#92E3A9" d="M134.6 384.1s-.9-3.2 1.5-6.4c1.4-2 9.9-7.9 11.5-4.8 1.8 3.4-6.3 12.4-13 11.2z"/><path fill="none" stroke-width=".5" d="m134.6 384.1 8.2-7.8"/><path fill="none" stroke-width="2" d="m128.8 370.6 5.4-8.8"/><path fill="#92E3A9" d="M132.6 364.5s-.9-3.2 1.5-6.4c1.4-2 9.9-7.9 11.5-4.8 1.7 3.4-6.4 12.4-13 11.2z"/><path fill="none" stroke-width=".5" d="m132.6 364.5 8.1-7.8"/><path fill="none" stroke-width="2" d="m125.8 341.8 5.4-8.7"/><path fill="#92E3A9" d="M129.6 335.7s-.9-3.2 1.5-6.4c1.4-2 9.9-7.9 11.5-4.8 1.7 3.4-6.4 12.4-13 11.2z"/><path fill="none" stroke-width=".5" d="m129.6 335.7 8.1-7.8"/><path fill="#92E3A9" d="M123.5 323.4s-.9-3.2 1.5-6.4c1.4-2 9.9-7.9 11.5-4.8 1.8 3.4-6.3 12.4-13 11.2z"/><path fill="none" stroke-width=".5" d="m123.5 323.4 8.2-7.8"/><path fill="#92E3A9" d="M124 323.8s-3.3.5-6.2-2.2c-1.8-1.6-6.8-10.7-3.5-12 3.5-1.3 11.6 7.7 9.7 14.2z"/><path fill="none" stroke-width=".5" d="m124 323.8-6.9-9"/><path fill="none" stroke-width="2" d="m164.7 344.8-13.1 131.3M152.7 465.6l-5.4-8.8"/><path fill="#92E3A9" d="M148.9 459.4s.9-3.2-1.5-6.4c-1.4-2-9.9-7.8-11.5-4.7-1.7 3.3 6.4 12.4 13 11.1z"/><path fill="none" stroke-width=".5" d="m148.9 459.4-7.7-7.4"/><path fill="none" stroke-width="2" d="m157 424.2-5.4-8.8"/><path fill="#92E3A9" d="M153.2 418s.9-3.2-1.5-6.4c-1.4-2-9.9-7.8-11.5-4.7-1.7 3.3 6.4 12.3 13 11.1z"/><path fill="none" stroke-width=".5" d="m153.2 418-7.7-7.4"/><path fill="none" stroke-width="2" d="m155.2 441.1-5.4-8.7"/><path fill="#92E3A9" d="M151.5 435s.9-3.2-1.5-6.4c-1.4-2-9.9-7.8-11.5-4.7-1.8 3.3 6.3 12.3 13 11.1z"/><path fill="none" stroke-width=".5" d="m151.5 435-7.7-7.4"/><path fill="none" stroke-width="2" d="m159.8 396.6-5.3-8.8"/><path fill="#92E3A9" d="M156.1 390.5s.9-3.2-1.5-6.4c-1.4-2-9.9-7.8-11.5-4.7-1.7 3.3 6.3 12.3 13 11.1z"/><path fill="none" stroke-width=".5" d="m156.1 390.5-7.7-7.4"/><path fill="none" stroke-width="2" d="m162.7 368.9-5.4-8.7"/><path fill="#92E3A9" d="M159 362.8s.9-3.2-1.5-6.4c-1.4-2-9.9-7.8-11.5-4.7-1.8 3.3 6.3 12.3 13 11.1z"/><path fill="none" stroke-width=".5" d="m159 362.8-7.7-7.4"/><path fill="none" stroke-width="2" d="m153.6 455.5 7-7.5"/><path fill="#92E3A9" d="M158.5 450.3s-.2-3.3 2.8-6c1.8-1.6 11.3-5.6 12.3-2.3.9 3.7-8.8 10.8-15.1 8.3z"/><path fill="none" stroke-width=".5" d="m158.5 450.3 9.6-6"/><path fill="none" stroke-width="2" d="m158.2 410.8 7.1-7.4"/><path fill="#92E3A9" d="M163.1 405.6s-.2-3.3 2.8-6c1.8-1.6 11.3-5.6 12.3-2.3 1 3.7-8.8 10.9-15.1 8.3z"/><path fill="none" stroke-width=".5" d="m163.1 405.6 9.6-5.9"/><path fill="none" stroke-width="2" d="m160.3 391.2 7-7.4"/><path fill="#92E3A9" d="M165.2 386s-.2-3.3 2.8-6c1.8-1.6 11.3-5.6 12.3-2.3.9 3.7-8.8 10.9-15.1 8.3z"/><path fill="none" stroke-width=".5" d="m165.2 386 9.6-6"/><path fill="none" stroke-width="2" d="m163.2 362.4 7.1-7.4"/><path fill="#92E3A9" d="M168.2 357.2s-.2-3.3 2.8-6c1.8-1.6 11.3-5.6 12.3-2.3.9 3.7-8.9 10.9-15.1 8.3z"/><path fill="none" stroke-width=".5" d="m168.2 357.2 9.6-5.9"/><path fill="#92E3A9" d="M164.8 344s-.2-3.3 2.8-6c1.8-1.6 11.3-5.6 12.3-2.3.9 3.7-8.8 10.8-15.1 8.3z"/><path fill="none" stroke-width=".5" d="m164.8 344 9.6-6"/><path fill="#92E3A9" d="M165.2 344.4s-3.3-.1-5.7-3.4c-1.4-2-4.4-11.9-1-12.4 3.8-.6 9.9 9.8 6.7 15.8z"/><path fill="none" stroke-width=".5" d="m165.2 344.4-4.9-10.2"/><path fill="none" stroke-width="2" d="m147 284.1-1 192.2M147.1 444.4l-6.2-8.2"/><path fill="#92E3A9" d="M142.8 438.7s.5-3.3-2.2-6.2c-1.6-1.8-10.7-6.8-12-3.5-1.3 3.4 7.7 11.6 14.2 9.7z"/><path fill="none" stroke-width=".5" d="m142.8 438.7-8.4-6.6"/><path fill="none" stroke-width="2" d="m147.1 408.9-6.2-8.1"/><path fill="#92E3A9" d="M142.8 403.2s.5-3.3-2.2-6.2c-1.6-1.8-10.7-6.8-12-3.5-1.3 3.5 7.7 11.6 14.2 9.7z"/><path fill="none" stroke-width=".5" d="m142.8 403.2-8.4-6.6"/><path fill="none" stroke-width="2" d="m147.1 367.3-6.2-8.2"/><path fill="#92E3A9" d="M142.8 361.6s.5-3.3-2.2-6.2c-1.6-1.8-10.7-6.8-12-3.5-1.3 3.4 7.7 11.6 14.2 9.7z"/><path fill="none" stroke-width=".5" d="m142.8 361.6-8.4-6.6"/><path fill="none" stroke-width="2" d="m147.1 339.6-6.2-8.2"/><path fill="#92E3A9" d="M142.8 333.9s.5-3.3-2.2-6.2c-1.6-1.8-10.7-6.8-12-3.5-1.3 3.4 7.7 11.6 14.2 9.7z"/><path fill="none" stroke-width=".5" d="m142.8 333.9-8.4-6.6"/><path fill="none" stroke-width="2" d="m147.1 311.7-6.2-8.1"/><path fill="#92E3A9" d="M142.8 306s.5-3.3-2.2-6.2c-1.6-1.8-10.7-6.8-12-3.5-1.3 3.5 7.7 11.6 14.2 9.7z"/><path fill="none" stroke-width=".5" d="m142.8 306-8.4-6.5"/><path fill="none" stroke-width="2" d="m147 455.2 6.3-8.2"/><path fill="#92E3A9" d="M151.4 449.5s-.5-3.3 2.2-6.2c1.6-1.8 10.7-6.8 12-3.5 1.2 3.4-7.7 11.6-14.2 9.7z"/><path fill="none" stroke-width=".5" d="m151.4 449.5 8.9-6.9"/><path fill="none" stroke-width="2" d="m147 398.8 6.3-8.1"/><path fill="#92E3A9" d="M151.4 393.1s-.5-3.3 2.2-6.2c1.6-1.8 10.7-6.8 12-3.5 1.2 3.4-7.7 11.6-14.2 9.7z"/><path fill="none" stroke-width=".5" d="m151.4 393.1 8.9-6.9"/><path fill="none" stroke-width="2" d="m147 371 6.3-8.2"/><path fill="#92E3A9" d="M151.4 365.3s-.5-3.3 2.2-6.2c1.6-1.8 10.7-6.8 12-3.5 1.2 3.4-7.7 11.6-14.2 9.7z"/><path fill="none" stroke-width=".5" d="m151.4 365.3 8.9-7"/><path fill="none" stroke-width="2" d="m147 334.2 6.3-8.2"/><path fill="#92E3A9" d="M151.4 328.5s-.5-3.3 2.2-6.2c1.6-1.8 10.7-6.8 12-3.5 1.2 3.4-7.7 11.6-14.2 9.7z"/><path fill="none" stroke-width=".5" d="m151.4 328.5 8.9-7"/><path fill="none" stroke-width="2" d="m147 305.3 6.3-8.2"/><path fill="#92E3A9" d="M151.4 299.5s-.5-3.3 2.2-6.2c1.6-1.8 10.7-6.8 12-3.5 1.2 3.5-7.7 11.6-14.2 9.7z"/><path fill="none" stroke-width=".5" d="m151.4 299.5 8.9-6.9"/><path fill="#92E3A9" d="M146.6 286.7s-.5-3.3 2.2-6.2c1.6-1.8 10.7-6.8 12-3.5 1.3 3.5-7.6 11.6-14.2 9.7z"/><path fill="none" stroke-width=".5" d="m146.6 286.7 9-6.9"/><path fill="#92E3A9" d="M147.1 287.1s-3.3.2-6-2.8c-1.6-1.8-5.6-11.4-2.3-12.3 3.7-.9 10.8 8.8 8.3 15.1z"/><path fill="none" stroke-width=".5" d="m147.1 287.1-6-9.6"/></g><path fill="#263238" stroke="#263238" stroke-miterlimit="10" d="m401 476.2-5.7-66.6H258.4l-7.5 66.6z"/><path fill="#92E3A9" stroke="#263238" stroke-miterlimit="10" d="M317.2 207.7s-40 11-57.5 24.2-29.6 26.8-26.8 52.4c2.8 25.6 21.1 95.8 21.1 95.8s-2.5 28.5-2.5 30.2c0 1.7-.3 6.5 5.9 6.8 6.2.3 80.6 3.4 97.2 3.7 16.6.3 38.6-1.4 41.2-3.4 2.5-2 3.9-5.1 4.2-8.5.3-3.4 3.1-44.8 3.1-44.8l.3-18.6s18.3-60.9 19.4-80.6c1.1-19.7-6.2-26.2-14.4-32.4-8.2-6.2-33.6-16.7-47.4-20.9-13.6-4.1-43.8-3.9-43.8-3.9z"/><path fill="none" stroke="#263238" stroke-miterlimit="10" d="M327.1 302.3c-2 27.5-5.7 78-5.3 86.7.4 12-4.4 15.6-4.4 20M328.4 284.6s-.4 4.7-.9 12.1"/><path fill="#263238" stroke="#263238" stroke-miterlimit="10" d="m346.3 319.8 2.5 30.2 14.4-1zM332.7 372.5s35-5.5 37.6-4.9c2.6.6 20.6 9.3 23.2 9.8 2.6.6 4.9 1.7 4.9 1.7l3.9 3.3-1.3-9.9s-5.2-6.4-16.8-11c-11.6-4.6-17.4-2-20-1.2-2.6.9-31.5 12.2-31.5 12.2z"/><path fill="#FFF" stroke="#263238" stroke-miterlimit="10" d="m278.9 346.1 91-.3s29.3-2.8 30.4-3.1c1.1-.3 12.7 2.8 13.8 3.7 1.1.8 1.1 3.4.6 5.9l-.6 2.5s.8 4.5.8 6.5-2.3 2.5-2.5 3.4c-.3.8 1.7 3.9-.6 5.9l-2.3 2s-.3 5.4-1.4 6.8c-1.1 1.4-4.5 3.9-5.9 3.1s-.8-3.1-.8-4.5-.6-2.8-2.3-2.8c-1.7 0-2 1.4-10.7-.8-8.7-2.3-18.3-9.9-19.2-10.1-.8-.3-77.2 20.3-99.8 23.1s-24.5-.3-25.4-3.9c-.8-3.7-2.3-12.4-2.3-12.4l-3.9-17.2 41.1-7.8z"/><path fill="#92E3A9" stroke="#263238" stroke-miterlimit="10" d="M338.1 240.7s4.7-4.9 7.7-2.7 5.7 14.1 9.4 13.1 11.1-24 11.1-33.2c0-9.2-6.4-14.6-7.9-15.1s-39.3-1-43.8.7-6.2 17.3-7.9 26.7c-1.7 9.4 2.2 11.6 4.7 10.4 2.5-1.2 12.1-5.2 14.4-5.2 2.1.1 12.3 5.3 12.3 5.3z"/><path fill="#FFF" stroke="#263238" stroke-miterlimit="10" d="M363.4 188.5s-3.5 17.5-4.9 21.9c-1.4 4.3-11.4 17.5-14 20.3s-10 16.4-12 16.7c-2 .4-7.5-18.1-7.5-18.1s-7.1-12.2-8.5-15.4c-1.4-3.2-3.5-12.4-3.5-12.4s11.6 10 24 7.9 18.7-14.6 18.7-14.6l7.7-6.3zM315.3 153.6s-3.5-3.7-5.4 2c-2 5.7 2 15.8 2 15.8l3.4-17.8z"/><path fill="#FFF" stroke="#263238" stroke-miterlimit="10" d="M315.9 142s-5.7 40.6-5.7 43c0 2.4-1.6 10.2.8 15.4 2.4 5.1 9.5 11.4 15.2 12.2 5.7.8 16.9-.4 23.3-5.3 6.3-4.9 13.6-15.6 13.6-15.6s7.9-1.2 13-3.3c5.1-2.2 9.1-7.1 8.9-12.2-.2-5.1-3.3-9.1-3.3-9.1l-3-5.5 7.9-14.8s-4.5-8.5-19.1-16.6c-14.6-8.1-27.6-10.6-33.7-10.6-6.1 0-13.8 2.6-16 7.5-2.3 4.9-1.9 14.9-1.9 14.9z"/><path fill="#263238" stroke="#263238" stroke-miterlimit="10" d="M334.6 122.1s11.2 18.5 19.7 17.7c8.5-.8 11-4.7 11-4.7l5.7 7.7s-6.1 2.6-4.9 5.7c1.2 3.2 6.5 10.2 6.5 10.2l-4.3 18.5s3.3.6 3.9-.6c.6-1.2 3.5-8.5 3.5-8.5s1.2-.8 2.6-1.2c1.4-.4 3.2 0 3.2 0s2.2-7.3 3-7.5c.8-.2 8.7-2.4 11.6-10 3-7.7-1.6-19.9-11.8-29.6-10.2-9.7-31.9-12.2-33.1-14-1.2-1.8 5.5.8 4.1-3.2-1.4-3.9-10-9.1-21.1-3.5-11 5.5-9.5 11.6-8.3 13.6l1.2 2s-9.3-3.2-15.8.8c-6.5 3.9-9.7 11.8-6.7 12.6 3 .8 6.7-1 6.7-1s-3.9 6.5-2.8 7.9c1.2 1.4 7.3 6.9 7.3 6.9s2.4-13.8 7.3-15.8 11.5-4 11.5-4z"/><path fill="none" stroke="#263238" stroke-miterlimit="10" d="m331.1 148.7 1.8 5.8-10.1 18.9 10.6 4.1"/><path fill="#263238" stroke="#263238" stroke-miterlimit="10" d="M329.1 146.6s-4.7-3.7-8.7-2.8c-3.9 1-1.6 1.6 1.2 2.6s8.3 3.5 7.5.2zM343.7 145.8s-4.5 1.2-2.4 2.2c2.2 1 8.7-1 11.2 0 2.6 1 5.9 4.3 5.7 2.8-.2-1.6-1.8-4.7-5.3-5.9-3.5-1.3-9.2.9-9.2.9z"/><path fill="#263238" d="M326.5 155.3c-.3 1.4-1.3 2.4-2.2 2.2-.8-.2-1.3-1.5-.9-3 .3-1.4 1.3-2.4 2.2-2.2.8.3 1.3 1.6.9 3zM348 160.9c-.3 1.4-1.3 2.4-2.2 2.2-.8-.2-1.3-1.5-.9-3 .3-1.4 1.3-2.4 2.2-2.2.8.3 1.2 1.6.9 3z"/><path fill="none" stroke="#263238" stroke-miterlimit="10" d="m316.7 179.9 8.1 5.3"/><g stroke="#263238" stroke-miterlimit="10"><path fill="#92E3A9" d="M399.8 227.7s27.9 10.7 33.3 26.8c5.4 16.1-1.4 36.4-4.2 44.8s-20.3 41.4-23.1 49.3c-2.8 7.9-7 17.5-7 17.5s-3.9-23.7-14.7-38.3c-10.7-14.7-13.2-27.9-13.2-27.9s19.4-34.4 24.5-45.1"/><path fill="#92E3A9" d="M373.7 293.9s5.7-2.9 7.6-1.9c1.9 1 26.3 14 29.5 28.9 3.2 14.9-1.6 27.6-4.4 33-2.9 5.4-8.2 15.9-12.4 17.1-4.1 1.3-7.6-32.7-16.2-50.4-8.5-17.8-4.1-26.7-4.1-26.7z"/><path fill="none" d="M383.2 277.6s5.1-17.2 7-24"/></g><path fill="#FFF" stroke="#263238" stroke-miterlimit="10" d="M332.3 216.5s-7.9-11-14-18.3c-6.1-7.3-12.4-11.6-14.6-11-2.2.6-3 2.8-1.6 5.3 1.4 2.6 7.9 8.3 9.1 9.9 1.2 1.6 3 7.3 3 7.3s-5.7.4-6.7 1.6c-1 1.2-2.4 4.3-2.4 4.3s-2 1-3 2.6-1 2-1.2 2.8c-.2.8-3 2.2-2.8 5.7.2 3.5 3.5 8.7 4.7 11 1.2 2.4 9.9 12.8 11.4 14.6 1.6 1.8 10.6 17.5 13 22.9 2.4 5.3 25.2 67 31.9 76.3 6.7 9.3 19.1 18.1 25.8 21.3 6.7 3.2 11.4-2.2 14.6-8.9 3.2-6.7 5.9-20.1-.2-35.5-6.1-15.4-18.1-28.6-27.4-36.5-9.3-7.9-26.6-27.6-28.6-31.1s-4.5-11.4-4.5-11.4 5.1-15 5.5-18.5c.4-3.5-1.6-9.9-1-12.6s3-8.3 3.9-10.6c1-2.4 4.3-6.3 2.6-8.1-1.8-1.8-9.1.4-11.6 4.5-2.4 4-5.9 12.4-5.9 12.4z"/><g stroke="#263238" stroke-miterlimit="10"><path fill="#92E3A9" d="M271.4 259.2c.6-3.1 1-5.3 1-5.3M269.6 226.8s-14.9 2-30.4 18.6c-15.5 16.6-8.7 56.1-7.3 64.3 1.4 8.2 3.7 33.3 3.7 33.3l39.7-13.2s-6.5-44.3-7-48.2c-.3-2 .8-9 1.9-15.5"/><path fill="#92E3A9" d="M231.5 334.2s3.9 21.1 5.9 22.3c2 1.1 32.7-7.3 36.1-7.9 3.4-.6 5.4.3 5.4-2.5s-2.8-16.1-4.5-18.3c-1.7-2.3-38.3 2.5-41.4 3.4-3.2.8-1.5 3-1.5 3z"/><path fill="none" d="M254 317.9c11.4 4.5 20.3 9.9 20.3 9.9s-9.6-18-13.5-21.7M248.7 315.9l3.3 1.2"/></g><path fill="none" stroke="#263238" stroke-miterlimit="10" d="M341.2 408.2c7.3-2.6 14-5.5 18-8.3M306.8 418.2s15.6-3.7 30.4-8.7M372.3 398.7c-7.7 3.8-19.8 9.4-29.7 11.9M379.8 394.8s-1.6.9-4.2 2.2"/><g stroke="#263238" stroke-miterlimit="10"><g fill="#263238"><path d="M116.1 37.1C49 69.4 36.3 164.3 78.9 221.3c8.9 11.9 20.5 22 34.3 27.8 47 19.9 84.7-19.7 107.6-56.1 36.6-58.1 41.2-72.5 40.5-62.7s16.3 20.2 26.1-31.4c12.5-66-79.8-81-126.6-74.8-15.7 2.2-30.9 6.4-44.7 13z"/><path d="M266.3 148.6c-3.9 7.1-3.7 14.8.6 17.1 4.3 2.4 10.9-1.5 14.8-8.6 3.9-7.1 3.7-14.8-.6-17.1-4.3-2.4-10.9 1.5-14.8 8.6zM288.7 158.6c-2.3 4.2-2.2 8.7.4 10.1s6.4-.9 8.8-5.1c2.3-4.2 2.2-8.7-.4-10.1-2.6-1.4-6.5.9-8.8 5.1z"/></g><g fill="#FFF"><path d="M120 31C52.9 63.3 40.2 158.1 82.7 215.2c8.9 11.9 20.5 22 34.3 27.8 47 19.9 84.7-19.7 107.6-56.1 36.6-58.1 41.2-72.5 40.5-62.7-.7 9.8 16.3 20.2 26.1-31.4 12.5-66-79.8-81-126.6-74.8-15.6 2.1-30.8 6.3-44.6 13z"/><path d="M270.1 142.4c-3.9 7.1-3.7 14.8.6 17.1 4.3 2.4 10.9-1.5 14.8-8.6 3.9-7.1 3.7-14.8-.6-17.1-4.2-2.3-10.9 1.5-14.8 8.6zM292.6 152.4c-2.3 4.2-2.2 8.7.4 10.1 2.5 1.4 6.4-.9 8.8-5.1 2.3-4.2 2.2-8.7-.4-10.1-2.6-1.4-6.5.9-8.8 5.1z"/></g></g><g fill="#CCC"><path d="M84.6 102.5V89.2h8c.4-2.2 1-4.4 1.7-6.4l-7-4L94 67.4l7 4c1.4-1.7 3-3.3 4.7-4.7l-4-7 11.4-6.6 4 7c2.1-.8 4.2-1.3 6.4-1.7v-8h13.2v8c2.2.4 4.4 1 6.4 1.7l4-7 11.4 6.6-4 7c1.7 1.4 3.3 3 4.7 4.7l7-4 6.6 11.4-7 4c.8 2.1 1.3 4.2 1.7 6.4h8v13.2h-8c-.4 2.2-1 4.4-1.7 6.4l7 4-6.6 11.4-7-4c-1.4 1.7-3 3.3-4.7 4.7l4 7-11.4 6.6-4-7c-2.1.8-4.2 1.3-6.4 1.7v8h-13.2v-8c-2.2-.4-4.4-1-6.4-1.7l-4 7-11.4-6.6 4-7c-1.7-1.4-3.3-3-4.7-4.7l-7 4-6.6-11.4 7-4c-.8-2.1-1.3-4.2-1.7-6.4h-8.1zm45.5 18c13.6 0 24.6-11 24.6-24.6 0-13.6-11-24.6-24.6-24.6-13.6 0-24.6 11-24.6 24.6 0 13.6 11 24.6 24.6 24.6z"/><path d="M103.3 180.1v-10.7h6.5c.3-1.8.8-3.5 1.4-5.2l-5.7-3.3 5.4-9.3 5.7 3.3c1.2-1.4 2.4-2.7 3.8-3.8l-3.3-5.7 9.3-5.4 3.3 5.7c1.7-.6 3.4-1.1 5.2-1.4v-6.5h10.7v6.5c1.8.3 3.5.8 5.2 1.4l3.3-5.7 9.3 5.4-3.3 5.7c1.4 1.2 2.7 2.4 3.8 3.8l5.7-3.3 5.4 9.3-5.7 3.3c.6 1.7 1.1 3.4 1.4 5.2h6.5v10.7h-6.5c-.3 1.8-.8 3.5-1.4 5.2l5.7 3.3-5.4 9.3-5.7-3.3c-1.2 1.4-2.4 2.7-3.8 3.8l3.3 5.7-9.3 5.4-3.3-5.7c-1.7.6-3.4 1.1-5.2 1.4v6.5h-10.7v-6.5c-1.8-.3-3.5-.8-5.2-1.4l-3.3 5.7-9.3-5.4 3.3-5.7c-1.4-1.2-2.7-2.4-3.8-3.8l-5.7 3.3-5.4-9.3 5.7-3.3c-.6-1.7-1.1-3.4-1.4-5.2h-6.5zm37 14.6c11.1 0 20-9 20-20 0-11.1-9-20-20-20-11.1 0-20 9-20 20 0 11.1 9 20 20 20z"/><path d="M171.5 155.5v-8.2h5c.2-1.4.6-2.7 1.1-4l-4.3-2.5 4.1-7.1 4.3 2.5c.9-1.1 1.9-2 2.9-2.9l-2.5-4.3 7.1-4.1 2.5 4.3c1.3-.5 2.6-.8 4-1.1v-5h8.2v5c1.4.2 2.7.6 4 1.1l2.5-4.3 7.1 4.1-2.5 4.3c1.1.9 2 1.9 2.9 2.9l4.3-2.5 4.1 7.1-4.3 2.5c.5 1.3.8 2.6 1.1 4h5v8.2h-5c-.2 1.4-.6 2.7-1.1 4l4.3 2.5-4.1 7.1-4.3-2.5c-.9 1.1-1.9 2-2.9 2.9l2.5 4.3-7.1 4.1-2.5-4.3c-1.3.5-2.6.8-4 1.1v5h-8.2v-5c-1.4-.2-2.7-.6-4-1.1l-2.5 4.3-7.1-4.1 2.5-4.3c-1.1-.9-2-1.9-2.9-2.9l-4.3 2.5-4.1-7.1 4.3-2.5c-.5-1.3-.8-2.6-1.1-4h-5zm28.2 11.2c8.4 0 15.2-6.8 15.2-15.2 0-8.4-6.8-15.2-15.2-15.2-8.4 0-15.2 6.8-15.2 15.2 0 8.4 6.8 15.2 15.2 15.2zM200.7 79.9v-8.2h5c.2-1.4.6-2.7 1.1-4l-4.3-2.5 4.1-7.1 4.3 2.5c.9-1.1 1.9-2 2.9-2.9l-2.5-4.3 7.1-4.1 2.5 4.3c1.3-.5 2.6-.8 4-1.1v-5h8.2v5c1.4.2 2.7.6 4 1.1l2.5-4.3 7.1 4.1-2.5 4.3c1.1.9 2 1.9 2.9 2.9l4.3-2.5 4.1 7.1-4.3 2.5c.5 1.3.8 2.6 1.1 4h5v8.2h-5c-.2 1.4-.6 2.7-1.1 4l4.3 2.5-4.1 7.1-4.3-2.5c-.9 1.1-1.9 2-2.9 2.9l2.5 4.3-7.1 4.1-2.5-4.3c-1.3.5-2.6.8-4 1.1v5h-8.2v-5c-1.4-.2-2.7-.6-4-1.1l-2.5 4.3-7.1-4.1 2.5-4.3c-1.1-.9-2-1.9-2.9-2.9l-4.3 2.5-4.1-7.1 4.3-2.5c-.5-1.3-.8-2.6-1.1-4h-5zM228.9 91c8.4 0 15.2-6.8 15.2-15.2s-6.8-15.2-15.2-15.2-15.2 6.8-15.2 15.2S220.5 91 228.9 91z"/></g></svg>