<svg xmlns="http://www.w3.org/2000/svg" xml:space="preserve" viewBox="0 0 92.8 51.4"><path fill="#221DFF" d="m58 1.6 34.8 25.5-29.3 19.8c-2.9 2-6.7 1.9-9.5-.2L28.7 28.1c-4.6-3.4-4.5-10.2.2-13.4L48.5 1.4c2.9-1.9 6.7-1.9 9.5.2z"/><path fill="#FF31FA" d="M34.8 49.8 0 24.3 29.3 4.4c2.9-2 6.7-1.9 9.5.2l25.4 18.6c4.6 3.4 4.5 10.2-.2 13.4L44.3 49.9c-2.9 2-6.7 1.9-9.5-.1z"/><path fill="#8733FF" d="M64.1 23.2 41.2 6.4l-12.3 8.3c-4.7 3.2-4.8 10.1-.2 13.4l22.9 16.8 12.3-8.3c4.7-3.2 4.8-10.1.2-13.4z"/></svg>