<svg xmlns="http://www.w3.org/2000/svg" xml:space="preserve" style="enable-background:new 0 0 482.4 65.3" viewBox="0 0 482.4 65.3"><path d="M125.2 59.5c-4.1 0-7.8-.8-10.9-2.3s-5.5-3.7-7.3-6.7c-1.7-2.9-2.6-6.4-2.6-10.3 0-3.7.8-7 2.3-9.9 1.5-2.9 3.7-5.2 6.4-6.9 2.8-1.7 6-2.6 9.6-2.6 3.3 0 6.3.7 8.8 2.2 2.6 1.4 4.6 3.5 6 6.3 1.4 2.7 2.2 5.9 2.2 9.6 0 1.8-.1 3.2-.3 4.1h-26.8c.5 3.1 1.9 5.5 4.2 7.2 2.3 1.7 5.3 2.6 9 2.6 4.3 0 8.4-.9 12.2-2.8l.9 6.5c-1.8 1-3.9 1.7-6.3 2.3-2.3.4-4.8.7-7.4.7zm6.6-22.8c-.2-3-1.1-5.3-2.7-6.9-1.6-1.6-3.8-2.4-6.6-2.4-2.7 0-5 .8-6.7 2.4-1.7 1.6-2.8 3.9-3.2 6.9h19.2zm18-36.7h8.3v58.3h-8.3V0zm38.3 59.5c-4.1 0-7.8-.8-10.9-2.3-3.1-1.5-5.5-3.7-7.3-6.7-1.7-2.9-2.6-6.4-2.6-10.3 0-3.7.8-7 2.3-9.9 1.5-2.9 3.7-5.2 6.4-6.9 2.8-1.7 6-2.6 9.6-2.6 3.3 0 6.3.7 8.8 2.2 2.6 1.4 4.6 3.5 6 6.3 1.4 2.7 2.2 5.9 2.2 9.6 0 1.8-.1 3.2-.3 4.1h-26.8c.5 3.1 1.9 5.5 4.2 7.2s5.3 2.6 9 2.6c4.3 0 8.4-.9 12.2-2.8l.9 6.5c-1.8 1-3.9 1.7-6.3 2.3-2.3.4-4.8.7-7.4.7zm6.6-22.8c-.2-3-1.1-5.3-2.7-6.9-1.6-1.6-3.8-2.4-6.6-2.4-2.7 0-5 .8-6.7 2.4-1.7 1.6-2.8 3.9-3.2 6.9h19.2zm18-14.7h7.9l.1 4.7c1-1.9 2.5-3.3 4.5-4.3s4.3-1.5 7-1.5c2.6 0 4.9.6 6.8 1.7 1.9 1.1 3.4 2.8 4.4 4.9 1.1-2.1 2.7-3.7 4.9-4.9 2.2-1.2 4.6-1.8 7.2-1.8 4.4 0 7.8 1.3 10.1 4s3.5 6.5 3.5 11.5v22h-8.3V37.8c0-3.3-.6-5.7-1.8-7.3-1.2-1.6-3.1-2.4-5.6-2.4-2.6 0-4.7.9-6.2 2.7s-2.2 4.4-2.2 7.6v19.8h-8.3V37.8c0-3.3-.6-5.7-1.8-7.3s-3-2.3-5.6-2.3-4.6.9-6.2 2.8c-1.5 1.8-2.3 4.4-2.3 7.5v19.9h-8.3V22h.2zm86.2 37.5c-4.1 0-7.8-.8-10.9-2.3s-5.5-3.7-7.3-6.7c-1.7-2.9-2.6-6.4-2.6-10.3 0-3.7.8-7 2.3-9.9 1.5-2.9 3.7-5.2 6.4-6.9 2.8-1.7 6-2.6 9.6-2.6 3.3 0 6.3.7 8.8 2.2 2.6 1.4 4.6 3.5 6 6.3 1.4 2.7 2.2 5.9 2.2 9.6 0 1.8-.1 3.2-.3 4.1h-26.8c.5 3.1 1.9 5.5 4.2 7.2 2.3 1.7 5.3 2.6 9 2.6 4.3 0 8.4-.9 12.2-2.8l.9 6.5c-1.8 1-3.9 1.7-6.3 2.3-2.3.4-4.8.7-7.4.7zm6.6-22.8c-.2-3-1.1-5.3-2.7-6.9-1.6-1.6-3.8-2.4-6.6-2.4-2.7 0-5 .8-6.7 2.4-1.7 1.6-2.8 3.9-3.2 6.9h19.2zm18-14.7h7.9l.1 4.7c1-1.9 2.5-3.3 4.5-4.3s4.2-1.5 6.8-1.5c4.4 0 7.7 1.3 10 4s3.5 6.5 3.5 11.5v22H348V37.8c0-3.3-.6-5.7-1.8-7.3s-3.1-2.4-5.7-2.4c-2.8 0-4.9.9-6.5 2.7-1.5 1.8-2.3 4.4-2.3 7.6v19.8h-8.3l.1-36.2zm47.7 7h-7.6v-7h7.6V11.8h8.3V22h9.3v7h-9.3v29.4h-8.3V29zm29.9-15.4c-1.5 0-2.7-.5-3.7-1.5s-1.5-2.2-1.5-3.7.5-2.7 1.5-3.7 2.2-1.4 3.7-1.4 2.7.5 3.7 1.4c1 1 1.5 2.2 1.5 3.7s-.5 2.7-1.5 3.7-2.2 1.5-3.7 1.5zM397 22h8.3v36.4H397V22zm19.9 0h7.9l.1 6.1c1-2.2 2.4-3.8 4.2-5s3.9-1.7 6.2-1.7c.6 0 1.3.1 2.2.2.8.1 1.5.3 2.1.6l-.8 7.8c-1.3-.6-2.8-.9-4.3-.9-2.9 0-5.2 1.1-6.8 3.2-1.6 2.1-2.4 5.1-2.4 8.9v17.1H417V22h-.1zm44.7 37.5c-3.3 0-6.2-.8-8.8-2.4-2.6-1.6-4.7-3.8-6.2-6.8-1.5-2.9-2.3-6.3-2.3-10.2 0-3.5.7-6.6 2.2-9.6 1.5-2.9 3.6-5.3 6.3-7.1s5.7-2.7 9.1-2.7c2.7 0 5.1.5 7.3 1.6s3.9 2.6 5.1 4.6l.1-5h8v36.4h-8l-.1-5c-2.6 4.2-6.9 6.2-12.7 6.2zm2.1-7.4c3.3 0 5.9-1.1 8-3.3 2-2.2 3.1-5.1 3.1-8.6s-1-6.4-3.1-8.6c-2.1-2.2-4.7-3.3-7.9-3.3s-5.9 1.1-7.9 3.3c-2.1 2.2-3.1 5.1-3.1 8.6s1 6.4 3.1 8.6c1.9 2.2 4.5 3.3 7.8 3.3z"/><path d="M58 15.5 92.8 41 63.5 60.8c-2.9 2-6.7 1.9-9.5-.2L28.7 42c-4.6-3.4-4.5-10.2.2-13.4l19.6-13.3c2.9-1.9 6.7-1.9 9.5.2z" style="fill:#221dff"/><path d="M34.8 63.7 0 38.2l29.3-19.9c2.9-2 6.7-1.9 9.5.2l25.4 18.6c4.6 3.4 4.5 10.2-.2 13.4L44.3 63.8c-2.9 2-6.7 1.9-9.5-.1z" style="fill:#ff31fa"/><path d="M64.1 37.1 41.2 20.3l-12.3 8.3c-4.7 3.2-4.8 10.1-.2 13.4l22.9 16.8 12.3-8.3c4.7-3.2 4.8-10.1.2-13.4z" style="fill:#8733ff"/></svg>