<svg xmlns="http://www.w3.org/2000/svg" xml:space="preserve" viewBox="0 0 500 500"><path fill="#2A37D3" d="M467.3 299.9c-13.2 39.9-41.6 83.7-83.3 98-63.1 21.5-68.8 73.3-183.3 72.9-17.9-.1-34.4-1.9-49.7-5.3-8.2-1.8-16.1-4.1-23.6-6.8-67.9-24.5-105-82.7-110.3-144.9-7-81.8 48.7-123.1 85-147.4C138.3 142 179.7 51.7 292.3 51.1c17.2-.1 34.4 1.6 51.1 5.5 38.2 8.8 77.6 29.9 101.2 62.2 1.8 2.4 3.5 4.9 5.1 7.4 32 49.6 35.6 119.3 17.6 173.7z"/><path fill="#FFF" d="M467.3 299.9c-13.2 39.9-41.6 83.7-83.3 98-63.1 21.5-68.8 73.3-183.3 72.9-17.9-.1-34.4-1.9-49.7-5.3-8.2-1.8-16.1-4.1-23.6-6.8-67.9-24.5-105-82.7-110.3-144.9-7-81.8 48.7-123.1 85-147.4C138.3 142 179.7 51.7 292.3 51.1c17.2-.1 34.4 1.6 51.1 5.5 38.2 8.8 77.6 29.9 101.2 62.2 1.8 2.4 3.5 4.9 5.1 7.4 32 49.6 35.6 119.3 17.6 173.7z" opacity=".7"/><path fill="none" stroke="#263238" stroke-linecap="round" stroke-linejoin="round" stroke-miterlimit="10" d="M482.7 453.1H20.9"/><g fill="#263238"><path d="M38.2 389.9c2.2.9 7.4.8 7.4.8.1 0-1.1-3.4-1.2-3.7-1.2-2.4-4.8-6.4-7.8-6-2.1.3-3.3 2.4-2.8 4.4.4 2.1 2.5 3.7 4.4 4.5z"/><path d="M40 405.1c2.2.3 6.9-1 7.3-1.1.7 2.6 1.7 5.3 2.9 7.9.6 1.5 1.3 3 2.1 4.5-.4-.6-.8-1.2-.9-1.3-1.8-2-6.3-4.9-9.1-3.7-2 .8-2.6 3.2-1.6 5 1 1.9 3.5 2.8 5.4 3.1 2 .3 6-.8 7.1-1.1.3.6.6 1.1.8 1.7 1.4 2.7 2.7 5.4 4 8.1.4.9.8 1.9 1.3 2.8-.4-.6-.7-1-.8-1.1-1.8-2-6.3-4.9-9.1-3.7-2 .8-2.6 3.2-1.6 5 1 1.9 3.5 2.8 5.4 3.1 1.9.3 5.6-.7 6.9-1 .4 1 .8 2 1.1 2.9.2.7.5 1.3.6 2 .2.7.4 1.3.6 2l.9 3.9c.2.9.4 1.7.5 2.6-.4-.9-1.3-2.8-1.4-2.9-1.4-2.3-5.5-5.8-8.4-5.1-2.1.5-3 2.8-2.3 4.7.7 2 3 3.3 4.9 3.9 2.1.6 6.8.1 7.4 0 .3 1.4.5 2.8.8 4 .1.7.2 1.3.3 2H67c-.1-.7-.3-1.5-.4-2.3-.3-1.4-.6-2.9-1-4.5.4-.1 2.3-.9 4.1-1.9 1.5 1.7 5.5 3.6 6 3.9-.5 1.3-1.1 2.6-1.6 3.8-.2.4-.3.7-.5 1h2c0-.1.1-.2.1-.4.5-1.3 1.1-2.8 1.7-4.3.6.1 5.2 1.1 7.3.6 2-.4 4.3-1.5 5.2-3.5.9-1.9.1-4.2-2-4.9-2.8-1-7.2 2.3-8.8 4.4-.1.1-1 1.6-1.5 2.6.2-.6.5-1.2.7-1.8.5-1.2.9-2.5 1.3-3.8.2-.7.4-1.3.6-2 .2-.7.4-1.4.5-2.1.4-1.6.7-3.3 1-5 1.1.4 5 1.7 7 1.6 2-.1 4.5-.9 5.7-2.6 1.1-1.7.7-4.2-1.2-5.1-2.7-1.4-7.4 1.2-9.3 3.1-.1.1-1.3 1.6-2 2.5.2-1 .3-2 .5-3.1.4-3 .7-6 .9-9 .1-.9.2-1.8.3-2.8.4.1 5 1.8 7.2 1.7 2-.1 4.5-.9 5.7-2.6 1.1-1.7.7-4.2-1.2-5.1-2.7-1.4-7.4 1.2-9.3 3-.1.1-1.9 2.3-2.3 2.9.2-2 .4-4 .8-6 .4-2.7 1-5.4 1.7-7.9.2.1 4.9 1.9 7.2 1.7 2-.1 4.5-.9 5.7-2.6 1.1-1.7.7-4.2-1.2-5.1-2.7-1.4-7.4 1.2-9.3 3-.1.1-2 2.5-2.3 2.9 0-.2.1-.3.1-.5.8-2.7 2-5.2 3.1-7.5.7-1.3 1.4-2.6 2.1-3.8.9.4 4.8 2.3 6.9 2.4 2 .1 4.6-.4 5.9-2 1.3-1.6 1.2-4.1-.6-5.2-2.5-1.7-7.5.3-9.6 2-.1.1-1.2 1.1-1.9 1.9.3-.5.7-1.1 1-1.6 1.3-1.9 2.5-3.5 3.7-5 .7-.8 1.3-1.6 1.8-2.2 1.1 0 5.3-.1 7.2-1 1.8-.9 3.9-2.4 4.3-4.5.4-2-.8-4.1-3-4.4-3-.3-6.5 3.8-7.6 6.2-.1.2-1.2 3.7-1.1 3.7h.1c-.6.6-1.2 1.3-1.8 2.1-1.2 1.4-2.5 3.1-3.8 4.9-1.3 1.9-2.7 3.9-3.9 6.2-1.2 2.3-2.4 4.8-3.3 7.5v.1-3.5c-.3-2.7-2.6-7.6-5.5-8.1-2.1-.4-3.9 1.3-4.1 3.3-.2 2.1 1.4 4.2 2.9 5.6 1.7 1.5 6.4 3 6.7 3.1-.8 2.6-1.5 5.3-2 8.2-.3 1.6-.5 3.2-.7 4.9v-1.5c-.3-2.7-2.6-7.6-5.5-8.1-2.1-.4-3.9 1.3-4.1 3.3-.2 2.1 1.4 4.2 2.8 5.6 1.5 1.4 5.5 2.7 6.5 3-.1.6-.2 1.3-.2 1.9-.4 3-.7 6-1.1 9-.2 1-.3 2-.5 3.1v-1.3c-.3-2.7-2.6-7.6-5.5-8.1-2.1-.4-3.9 1.3-4.1 3.3-.2 2.1 1.4 4.2 2.9 5.6 1.4 1.3 5.1 2.5 6.3 2.9-.2 1-.4 2.1-.7 3.1-.2.7-.3 1.3-.6 2-.2.7-.4 1.3-.6 2-.5 1.2-.9 2.5-1.4 3.7-.3.8-.6 1.6-1 2.4.2-1 .4-3.1.4-3.2 0-1.8-.6-4.7-1.8-6.7v-.8c-.3-2-2.3-3.6-4.3-3-2.9.8-4.7 5.9-4.9 8.5 0 .2.1 1.9.2 3-.1-.6-.3-1.2-.4-1.9-.3-1.3-.6-2.6-1-3.9-.2-.7-.4-1.3-.6-2-.2-.7-.5-1.3-.7-2-.6-1.6-1.2-3.1-1.9-4.7 1.1-.3 5.1-1.3 6.7-2.5 1.6-1.2 3.3-3.2 3.3-5.3 0-2.1-1.7-3.9-3.8-3.6-3 .3-5.6 5.1-6.1 7.7 0 .2-.2 2.1-.3 3.2-.4-.9-.8-1.9-1.3-2.8-1.3-2.7-2.8-5.4-4.2-8-.4-.8-.9-1.6-1.3-2.5.4-.1 5.1-1.2 6.9-2.6 1.6-1.2 3.3-3.2 3.3-5.3 0-2.1-1.7-3.9-3.8-3.6-3 .3-5.6 5.1-6.1 7.7 0 .2-.3 3-.3 3.7-.9-1.8-1.9-3.6-2.7-5.4-1.2-2.5-2.1-5-2.9-7.6.2 0 5.1-1.2 7-2.6 1.6-1.2 3.3-3.2 3.3-5.3 0-2.1-1.7-3.9-3.8-3.6-3 .3-5.6 5.1-6.1 7.7 0 .2-.3 3.2-.3 3.7 0-.1-.1-.3-.2-.4-.8-2.7-1.2-5.4-1.5-8-.2-1.5-.2-2.9-.3-4.3.9-.1 5.3-.7 7-1.8 1.7-1 3.6-2.8 3.8-4.9.2-2.1-1.3-4-3.4-4-3 0-6.1 4.4-6.9 7 0 .1-.3 1.6-.5 2.7V389c0-2.3.1-4.3.3-6.2.1-1 .2-2 .3-2.9.9-.6 4.3-3 5.4-4.8 1-1.7 1.9-4.2 1.1-6.1-.8-1.9-3-3-4.9-2-2.7 1.4-3.4 6.7-2.9 9.4 0 .2 1 3.7 1.1 3.7h.1c-.1.8-.2 1.8-.3 2.8-.2 1.8-.4 3.9-.4 6.2-.1 2.3-.1 4.8.2 7.4.2 2.6.6 5.3 1.4 8.1v.1c-.5-.7-1.9-2.8-2-2.9-1.8-2-6.3-4.9-9.1-3.7-2 .8-2.6 3.2-1.6 5 0 .8 2.4 1.7 4.4 2z"/><path d="M91.4 391s1-3.5 1-3.7c.4-2.7-.5-8-3.2-9.3-1.9-.9-4.1.2-4.8 2.1-.7 2 .2 4.4 1.3 6.1 1.3 2 5.7 4.8 5.7 4.8z"/></g><g fill="#263238"><path d="M180.2 423.9c1 .4 3.4.4 3.4.4s-.5-1.6-.6-1.7c-.5-1.1-2.2-3-3.6-2.8-1 .1-1.5 1.1-1.3 2.1.3.9 1.2 1.7 2.1 2z"/><path d="M181 431c1 .2 3.2-.5 3.4-.5.3 1.2.8 2.4 1.3 3.6.3.7.6 1.4 1 2.1-.2-.3-.4-.5-.4-.6-.8-.9-2.9-2.3-4.2-1.7-.9.4-1.2 1.5-.7 2.3.5.9 1.6 1.3 2.5 1.4.9.1 2.8-.4 3.3-.5.1.3.3.5.4.8.6 1.3 1.3 2.5 1.8 3.7.2.4.4.9.6 1.3-.2-.3-.3-.5-.4-.5-.8-.9-2.9-2.3-4.2-1.7-.9.4-1.2 1.5-.7 2.3.5.9 1.6 1.3 2.5 1.4.9.1 2.6-.3 3.2-.5.2.5.4.9.5 1.4l.3.9.3.9c.1.6.3 1.2.4 1.8.1.4.2.8.2 1.2-.2-.4-.6-1.3-.7-1.4-.7-1-2.5-2.7-3.9-2.3-1 .2-1.4 1.3-1.1 2.2.3.9 1.4 1.5 2.3 1.8 1 .3 3.1 0 3.4 0 .1.6.2 1.3.4 1.9.1.3.1.6.2.9h.9c-.1-.3-.1-.7-.2-1.1-.1-.7-.3-1.3-.4-2.1.2-.1 1.1-.4 1.9-.9.7.8 2.5 1.7 2.8 1.8-.2.6-.5 1.2-.7 1.7-.1.2-.1.3-.2.5h.9c0-.1 0-.1.1-.2.3-.6.5-1.3.8-2 .3.1 2.4.5 3.4.3.9-.2 2-.7 2.4-1.6.4-.9 0-1.9-.9-2.3-1.3-.4-3.3 1-4.1 2 0 .1-.4.7-.7 1.2.1-.3.2-.6.3-.8.2-.6.4-1.1.6-1.8l.3-.9c.1-.3.2-.6.2-1 .2-.7.3-1.5.5-2.3.5.2 2.3.8 3.2.7.9-.1 2.1-.4 2.6-1.2.5-.8.3-1.9-.6-2.4-1.2-.6-3.4.5-4.3 1.4-.1.1-.6.8-.9 1.1.1-.5.1-.9.2-1.4.2-1.4.3-2.8.4-4.2 0-.4.1-.9.1-1.3.2.1 2.3.9 3.3.8.9-.1 2.1-.4 2.6-1.2.5-.8.3-1.9-.6-2.4-1.2-.6-3.4.5-4.3 1.4-.1.1-.9 1.1-1.1 1.3.1-.9.2-1.9.3-2.8.2-1.3.5-2.5.8-3.7.1 0 2.3.9 3.3.8.9-.1 2.1-.4 2.6-1.2.5-.8.3-1.9-.6-2.4-1.2-.6-3.4.5-4.3 1.4-.1.1-.9 1.1-1.1 1.4 0-.1 0-.1.1-.2.4-1.2.9-2.4 1.4-3.5.3-.6.7-1.2 1-1.7.4.2 2.2 1.1 3.2 1.1.9 0 2.1-.2 2.7-.9.6-.7.5-1.9-.3-2.4-1.2-.8-3.5.2-4.4.9-.1 0-.5.5-.9.9.2-.2.3-.5.5-.7.6-.9 1.2-1.6 1.7-2.3.3-.4.6-.7.8-1 .5 0 2.4-.1 3.3-.5.8-.4 1.8-1.1 2-2.1.2-.9-.4-1.9-1.4-2-1.4-.1-3 1.7-3.5 2.9 0 .1-.5 1.7-.5 1.7-.3.3-.5.6-.8 1-.5.7-1.1 1.4-1.7 2.3-.6.9-1.2 1.8-1.8 2.9-.6 1.1-1.1 2.2-1.5 3.5v-1.6c-.2-1.2-1.2-3.5-2.5-3.8-1-.2-1.8.6-1.9 1.5-.1 1 .6 1.9 1.3 2.6.8.7 2.9 1.4 3.1 1.4-.4 1.2-.7 2.5-.9 3.8-.1.7-.2 1.5-.3 2.2v-.7c-.2-1.2-1.2-3.5-2.5-3.8-1-.2-1.8.6-1.9 1.5-.1 1 .6 1.9 1.3 2.6.7.6 2.5 1.2 3 1.4 0 .3-.1.6-.1.9-.2 1.4-.3 2.8-.5 4.1-.1.5-.2.9-.2 1.4v-.6c-.2-1.2-1.2-3.5-2.5-3.8-1-.2-1.8.6-1.9 1.5-.1 1 .6 1.9 1.3 2.6.7.6 2.3 1.2 2.9 1.4-.1.5-.2 1-.3 1.4l-.3.9-.3.9c-.2.6-.4 1.2-.6 1.7-.1.4-.3.8-.4 1.1.1-.5.2-1.4.2-1.5 0-.8-.3-2.2-.9-3.1v-.4c-.2-.9-1-1.6-2-1.4-1.3.4-2.2 2.7-2.3 3.9 0 .1 0 .9.1 1.4-.1-.3-.1-.6-.2-.9-.1-.6-.3-1.2-.5-1.8l-.3-.9-.3-.9c-.3-.7-.6-1.4-.9-2.2.5-.1 2.4-.6 3.1-1.2.7-.6 1.5-1.5 1.5-2.5s-.8-1.8-1.8-1.7c-1.4.1-2.6 2.3-2.8 3.6 0 .1-.1 1-.1 1.5-.2-.4-.4-.9-.6-1.3-.6-1.2-1.3-2.5-1.9-3.7-.2-.4-.4-.8-.6-1.1.2 0 2.4-.6 3.2-1.2.7-.6 1.5-1.5 1.5-2.5s-.8-1.8-1.8-1.7c-1.4.1-2.6 2.3-2.8 3.6 0 .1-.1 1.4-.1 1.7-.4-.8-.9-1.7-1.2-2.5-.5-1.2-1-2.3-1.4-3.5.1 0 2.4-.5 3.2-1.2.7-.6 1.5-1.5 1.5-2.5s-.8-1.8-1.8-1.7c-1.4.1-2.6 2.3-2.8 3.6 0 .1-.1 1.5-.1 1.7 0-.1-.1-.1-.1-.2-.4-1.2-.6-2.5-.7-3.7-.1-.7-.1-1.3-.1-2 .4-.1 2.4-.3 3.3-.8.8-.5 1.7-1.3 1.8-2.3.1-1-.6-1.9-1.6-1.9-1.4 0-2.8 2-3.2 3.2 0 .1-.2.7-.3 1.2v-.9c0-1 .1-2 .1-2.9 0-.5.1-.9.1-1.3.4-.3 2-1.4 2.5-2.2.5-.8.9-1.9.5-2.8-.4-.9-1.4-1.4-2.3-.9-1.2.6-1.6 3.1-1.4 4.3 0 .1.5 1.7.5 1.7-.1.4-.1.8-.2 1.3-.1.8-.2 1.8-.2 2.9 0 1.1 0 2.2.1 3.4.1 1.2.3 2.5.6 3.7-.2-.3-.9-1.3-.9-1.3-.8-.9-2.9-2.3-4.2-1.7-.9.4-1.2 1.5-.7 2.3.4 1.4 1.5 1.8 2.4 2z"/><path d="M204.8 424.5s.4-1.6.5-1.7c.2-1.2-.2-3.7-1.5-4.3-.9-.4-1.9.1-2.2 1-.3.9.1 2 .6 2.8.5.9 2.6 2.2 2.6 2.2z"/></g><g fill="#263238"><path d="M370.3 389.9c2.2.9 7.4.8 7.4.8.1 0-1.1-3.4-1.2-3.7-1.2-2.4-4.8-6.4-7.8-6-2.1.3-3.3 2.4-2.8 4.4.5 2.1 2.6 3.7 4.4 4.5z"/><path d="M372.1 405.1c2.2.3 6.9-1 7.3-1.1.7 2.6 1.7 5.3 2.9 7.9.6 1.5 1.3 3 2.1 4.5-.4-.6-.8-1.2-.9-1.3-1.8-2-6.3-4.9-9.1-3.7-2 .8-2.6 3.2-1.6 5 1 1.9 3.5 2.8 5.4 3.1 2 .3 6-.8 7.1-1.1.3.6.6 1.1.8 1.7 1.4 2.7 2.7 5.4 4 8.1.4.9.8 1.9 1.3 2.8-.4-.6-.7-1-.8-1.1-1.8-2-6.3-4.9-9.1-3.7-2 .8-2.6 3.2-1.6 5 1 1.9 3.5 2.8 5.4 3.1 1.9.3 5.6-.7 6.9-1 .4 1 .8 2 1.1 2.9.2.7.5 1.3.6 2 .2.7.4 1.3.6 2l.9 3.9c.2.9.4 1.7.5 2.6-.4-.9-1.3-2.8-1.4-2.9-1.4-2.3-5.5-5.8-8.4-5.1-2.1.5-3 2.8-2.3 4.7.7 2 3 3.3 4.9 3.9 2.1.6 6.8.1 7.4 0 .3 1.4.5 2.8.8 4 .1.7.2 1.3.3 2h1.9c-.1-.7-.3-1.5-.4-2.3-.3-1.4-.6-2.9-1-4.5.4-.1 2.3-.9 4.1-1.9 1.5 1.7 5.5 3.6 6 3.9-.5 1.3-1.1 2.6-1.6 3.8-.2.4-.3.7-.5 1h2c0-.1.1-.2.1-.4.5-1.3 1.1-2.8 1.7-4.3.6.1 5.2 1.1 7.3.6 2-.4 4.3-1.5 5.2-3.5.9-1.9.1-4.2-2-4.9-2.8-1-7.2 2.3-8.8 4.4-.1.1-1 1.6-1.5 2.6.2-.6.5-1.2.7-1.8.5-1.2.9-2.5 1.3-3.8.2-.7.4-1.3.6-2 .2-.7.4-1.4.5-2.1.4-1.6.7-3.3 1-5 1.1.4 5 1.7 7 1.6 2-.1 4.5-.9 5.7-2.6 1.1-1.7.7-4.2-1.2-5.1-2.7-1.4-7.4 1.2-9.3 3.1-.1.1-1.3 1.6-2 2.5.2-1 .3-2 .5-3.1.4-3 .7-6 .9-9 .1-.9.2-1.8.3-2.8.4.1 5 1.8 7.2 1.7 2-.1 4.5-.9 5.7-2.6 1.1-1.7.7-4.2-1.2-5.1-2.7-1.4-7.4 1.2-9.3 3-.1.1-1.9 2.3-2.3 2.9.2-2 .4-4 .8-6 .4-2.7 1-5.4 1.7-7.9.2.1 4.9 1.9 7.2 1.7 2-.1 4.5-.9 5.7-2.6 1.1-1.7.7-4.2-1.2-5.1-2.7-1.4-7.4 1.2-9.3 3-.1.1-2 2.5-2.3 2.9 0-.2.1-.3.1-.5.8-2.7 2-5.2 3.1-7.5.7-1.3 1.4-2.6 2.1-3.8.9.4 4.8 2.3 6.9 2.4 2 .1 4.6-.4 5.9-2 1.3-1.6 1.2-4.1-.6-5.2-2.5-1.7-7.5.3-9.6 2-.1.1-1.2 1.1-1.9 1.9.3-.5.7-1.1 1-1.6 1.3-1.9 2.5-3.5 3.7-5 .7-.8 1.3-1.6 1.8-2.2 1.1 0 5.3-.1 7.2-1 1.8-.9 3.9-2.4 4.3-4.5.4-2-.8-4.1-3-4.4-3-.3-6.5 3.8-7.6 6.2-.1.2-1.2 3.7-1.1 3.7h.1c-.6.6-1.2 1.3-1.8 2.1-1.2 1.4-2.5 3.1-3.8 4.9-1.3 1.9-2.7 3.9-3.9 6.2-1.2 2.3-2.4 4.8-3.3 7.5v.1-3.5c-.3-2.7-2.6-7.6-5.5-8.1-2.1-.4-3.9 1.3-4.1 3.3-.2 2.1 1.4 4.2 2.9 5.6 1.7 1.5 6.4 3 6.7 3.1-.8 2.6-1.5 5.3-2 8.2-.3 1.6-.5 3.2-.7 4.9v-1.5c-.3-2.7-2.6-7.6-5.5-8.1-2.1-.4-3.9 1.3-4.1 3.3-.2 2.1 1.4 4.2 2.8 5.6 1.5 1.4 5.5 2.7 6.5 3-.1.6-.2 1.3-.2 1.9-.4 3-.7 6-1.1 9-.2 1-.3 2-.5 3.1v-1.3c-.3-2.7-2.6-7.6-5.5-8.1-2.1-.4-3.9 1.3-4.1 3.3-.2 2.1 1.4 4.2 2.9 5.6 1.4 1.3 5.1 2.5 6.3 2.9-.2 1-.4 2.1-.7 3.1-.2.7-.3 1.3-.6 2-.2.7-.4 1.3-.6 2-.5 1.2-.9 2.5-1.4 3.7-.3.8-.6 1.6-1 2.4.2-1 .4-3.1.4-3.2 0-1.8-.6-4.7-1.8-6.7v-.8c-.3-2-2.3-3.6-4.3-3-2.9.8-4.7 5.9-4.9 8.5 0 .2.1 1.9.2 3-.1-.6-.3-1.2-.4-1.9-.3-1.3-.6-2.6-1-3.9-.2-.7-.4-1.3-.6-2-.2-.7-.5-1.3-.7-2-.6-1.6-1.2-3.1-1.9-4.7 1.1-.3 5.1-1.3 6.7-2.5 1.6-1.2 3.3-3.2 3.3-5.3 0-2.1-1.7-3.9-3.8-3.6-3 .3-5.6 5.1-6.1 7.7 0 .2-.2 2.1-.3 3.2-.4-.9-.8-1.9-1.3-2.8-1.3-2.7-2.8-5.4-4.2-8-.4-.8-.9-1.6-1.3-2.5.4-.1 5.1-1.2 6.9-2.6 1.6-1.2 3.3-3.2 3.3-5.3 0-2.1-1.7-3.9-3.8-3.6-3 .3-5.6 5.1-6.1 7.7 0 .2-.3 3-.3 3.7-.9-1.8-1.9-3.6-2.7-5.4-1.2-2.5-2.1-5-2.9-7.6.2 0 5.1-1.2 7-2.6 1.6-1.2 3.3-3.2 3.3-5.3 0-2.1-1.7-3.9-3.8-3.6-3 .3-5.6 5.1-6.1 7.7 0 .2-.3 3.2-.3 3.7 0-.1-.1-.3-.2-.4-.8-2.7-1.2-5.4-1.5-8-.2-1.5-.2-2.9-.3-4.3.9-.1 5.3-.7 7-1.8 1.7-1 3.6-2.8 3.8-4.9.2-2.1-1.3-4-3.4-4-3 0-6.1 4.4-6.9 7 0 .1-.3 1.6-.5 2.7V389c0-2.3.1-4.3.3-6.2.1-1 .2-2 .3-2.9.9-.6 4.3-3 5.4-4.8 1-1.7 1.9-4.2 1.1-6.1-.8-1.9-3-3-4.9-2-2.7 1.4-3.4 6.7-2.9 9.4 0 .2 1 3.7 1.1 3.7h.1c-.1.8-.2 1.8-.3 2.8-.2 1.8-.4 3.9-.4 6.2-.1 2.3-.1 4.8.2 7.4.2 2.6.6 5.3 1.4 8.1v.1c-.5-.7-1.9-2.8-2-2.9-1.8-2-6.3-4.9-9.1-3.7-2 .8-2.6 3.2-1.6 5 0 .8 2.5 1.7 4.4 2z"/><path d="M423.6 391s1-3.5 1-3.7c.4-2.7-.5-8-3.2-9.3-1.9-.9-4.1.2-4.8 2.1-.7 2 .2 4.4 1.3 6.1 1.2 2 5.7 4.8 5.7 4.8z"/></g><g fill="none" stroke="#263238" stroke-linecap="round" stroke-linejoin="round" stroke-miterlimit="10"><path d="M224.3 58.3c-6.1 3.5-8.3 10.4-9.4 13.7-1.5 4.5-6.8-3-17.4.8-10.6 3.8-12.1 12.1-14.4 14.4s-17.4 8.3-17.4 8.3h152M325.2 95.4h18.4s3-16.7-3.8-25-22 3.8-26.5-8.3c0 0-13.6-19.7-30.3-21.2-16.7-1.5-23.5 11.4-28.8 18.2-5.3 6.8-8.3-3-21.2-3"/><path d="M252.5 81.9c-3.1 2.9-3.5 6.7-3.5 6.7M310.3 68.9s-10.6-10.6-22.7-9.8c-12.1.8-7.6 15.1-12.9 19.7s-11.4-1.5-18.2.8M72.4 105.6c-4 2.3-5.4 6.8-6.2 8.9-1 3-4.5-2-11.4.5s-7.9 7.9-9.4 9.4-11.4 5.4-11.4 5.4h99.3M138.3 129.8h12s2-10.9-2.5-16.3-14.3 2.5-17.3-5.4c0 0-8.9-12.9-19.8-13.9s-15.3 7.4-18.8 11.9-5.4-2-13.9-2"/><path d="M90.8 121c-2 1.9-2.3 4.4-2.3 4.4M128.6 112.5s-6.9-6.9-14.8-6.4-4.9 9.9-8.4 12.9-7.4-1-11.9.5M274.6 145.4c-2.8 1.6-3.8 4.7-4.3 6.2-.7 2.1-3.1-1.4-7.9.3-4.8 1.7-5.5 5.5-6.6 6.6-1 1-7.9 3.8-7.9 3.8h69.2M320.5 162.3h8.4s1.4-7.6-1.7-11.4-10 1.7-12.1-3.8c0 0-6.2-9-13.8-9.7s-10.7 5.2-13.1 8.3c-2.4 3.1-3.8-1.4-9.7-1.4"/><path d="M287.4 156.2c-1.4 1.3-1.6 3.1-1.6 3.1M313.7 150.3s-4.8-4.8-10.3-4.5c-5.5.3-3.4 6.9-5.9 9-2.4 2.1-5.2-.7-8.3.3"/></g><g fill="#263238" stroke="#263238" stroke-linecap="round" stroke-linejoin="round" stroke-miterlimit="10"><path d="M103.6 362.9v-41.7H52.9v-24.7l44.2-103.3h33.7v105h17.4v23.1h-17.4V363h-27.2zm-26.4-64.8h26.4v-73.8l-26.4 73.8zM207.8 365.4c-9.9 0-18.1-2.1-24.6-6.3-6.5-4.2-11.4-10-14.7-17.4-3.3-7.4-4.9-15.9-4.9-25.6v-75.2c0-9.9 1.6-18.6 4.7-26.1s8-13.3 14.5-17.5c6.5-4.2 14.8-6.3 25-6.3s18.5 2.1 25 6.3c6.5 4.2 11.3 10 14.5 17.5 3.1 7.5 4.7 16.2 4.7 26.1v75.2c0 9.6-1.6 18.2-4.9 25.6-3.3 7.4-8.2 13.2-14.7 17.4-6.5 4.2-14.7 6.3-24.6 6.3zm0-24.9c4.3 0 7.5-1.3 9.6-4 2.1-2.7 3.5-5.9 4.2-9.6.7-3.8 1-7.5 1-11.1v-74.4c0-3.9-.3-7.8-.9-11.6-.6-3.8-2-7.1-4.1-9.7-2.1-2.7-5.4-4-9.9-4s-7.8 1.3-9.9 4c-2.1 2.7-3.5 5.9-4.1 9.7-.6 3.8-.9 7.7-.9 11.6v74.4c0 3.6.4 7.3 1.2 11.1.8 3.8 2.2 7 4.3 9.6 2.1 2.7 5.3 4 9.5 4zM321.1 362.9v-41.7h-50.7v-24.7l44.2-103.3h33.7v105h17.4v23.1h-17.4V363h-27.2zm-26.4-64.8h26.4v-73.8l-26.4 73.8z"/></g><g fill="#FFF" stroke="#263238" stroke-linecap="round" stroke-linejoin="round" stroke-miterlimit="10"><path d="M116.2 362.9v-41.7H65.5v-24.7l44.2-103.3h33.7v105h17.4v23.1h-17.4V363h-27.2zm-26.4-64.8h26.4v-73.8l-26.4 73.8zM220.4 365.4c-9.9 0-18.1-2.1-24.6-6.3-6.5-4.2-11.4-10-14.7-17.4-3.3-7.4-4.9-15.9-4.9-25.6v-75.2c0-9.9 1.6-18.6 4.7-26.1s8-13.3 14.5-17.5c6.5-4.2 14.8-6.3 25-6.3s18.5 2.1 25 6.3c6.5 4.2 11.3 10 14.5 17.5 3.1 7.5 4.7 16.2 4.7 26.1v75.2c0 9.6-1.6 18.2-4.9 25.6-3.3 7.4-8.2 13.2-14.7 17.4-6.5 4.2-14.7 6.3-24.6 6.3zm0-24.9c4.3 0 7.5-1.3 9.6-4 2.1-2.7 3.5-5.9 4.2-9.6.7-3.8 1-7.5 1-11.1v-74.4c0-3.9-.3-7.8-.9-11.6-.6-3.8-2-7.1-4.1-9.7-2.1-2.7-5.4-4-9.9-4s-7.8 1.3-9.9 4c-2.1 2.7-3.5 5.9-4.1 9.7-.6 3.8-.9 7.7-.9 11.6v74.4c0 3.6.4 7.3 1.2 11.1.8 3.8 2.2 7 4.3 9.6 2.2 2.7 5.3 4 9.5 4zM333.8 362.9v-41.7h-50.7v-24.7l44.2-103.3H361v105h17.4v23.1H361V363h-27.2zm-26.4-64.8h26.4v-73.8l-26.4 73.8z"/></g><g fill="#263238"><path d="M108.5 184.9c-2.4 0-4.2-.4-5.6-1.3-1.4-.9-2.4-2.1-3-3.8-.6-1.6-.9-3.6-.9-5.8v-12.4c0-2.2.3-4.2.9-5.8.6-1.6 1.6-2.8 3-3.7 1.4-.8 3.3-1.3 5.6-1.3 2.4 0 4.3.4 5.7 1.3 1.4.8 2.4 2.1 3 3.7.6 1.6.9 3.5.9 5.8v12.5c0 2.2-.3 4.1-.9 5.8-.6 1.6-1.6 2.9-3 3.8-1.4.8-3.3 1.2-5.7 1.2zm0-4.4c1 0 1.8-.2 2.2-.7.5-.4.8-1 1-1.8.2-.8.2-1.6.2-2.5v-15.3c0-.9-.1-1.8-.2-2.5-.2-.7-.5-1.3-1-1.7-.5-.4-1.2-.6-2.2-.6-1 0-1.7.2-2.2.6-.5.4-.8 1-1 1.7s-.2 1.6-.2 2.5v15.3c0 .9.1 1.7.2 2.5s.5 1.4 1 1.8c.5.4 1.2.7 2.2.7zM131.6 184.9c-2.4 0-4.2-.4-5.6-1.3-1.4-.9-2.4-2.1-3-3.8-.6-1.6-.9-3.6-.9-5.8v-12.4c0-2.2.3-4.2.9-5.8.6-1.6 1.6-2.8 3-3.7 1.4-.8 3.3-1.3 5.6-1.3 2.4 0 4.3.4 5.7 1.3 1.4.8 2.4 2.1 3 3.7.6 1.6.9 3.5.9 5.8v12.5c0 2.2-.3 4.1-.9 5.8-.6 1.6-1.6 2.9-3 3.8-1.4.8-3.2 1.2-5.7 1.2zm0-4.4c1 0 1.8-.2 2.2-.7.5-.4.8-1 1-1.8.2-.8.2-1.6.2-2.5v-15.3c0-.9-.1-1.8-.2-2.5-.2-.7-.5-1.3-1-1.7-.5-.4-1.2-.6-2.2-.6-1 0-1.7.2-2.2.6-.5.4-.8 1-1 1.7-.2.7-.2 1.6-.2 2.5v15.3c0 .9.1 1.7.2 2.5s.5 1.4 1 1.8c.5.4 1.3.7 2.2.7zM145.7 184.5v-33.3h9.8c2 0 3.6.4 4.9 1.1 1.2.7 2.2 1.8 2.8 3.2.6 1.4.9 3.1.9 5.1 0 2.2-.4 3.9-1.1 5.2-.7 1.3-1.8 2.3-3.1 2.9-1.3.6-2.9.9-4.7.9h-3.3v14.8h-6.2zm6.1-19.1h2.3c1.1 0 2-.2 2.6-.5.6-.3 1-.8 1.3-1.5.2-.7.3-1.6.3-2.8 0-1.2-.1-2.2-.3-2.9-.2-.8-.6-1.3-1.1-1.7-.6-.4-1.5-.5-2.8-.5h-2.3v9.9zM175.6 184.9c-2 0-3.7-.4-5-1.2-1.3-.8-2.4-1.9-3-3.4-.7-1.5-1.1-3.4-1.2-5.5l5.2-1c.1 1.3.2 2.4.5 3.4s.7 1.7 1.2 2.3c.5.5 1.2.8 2.1.8 1 0 1.7-.3 2.1-.9.4-.6.6-1.3.6-2.2 0-1.5-.3-2.6-1-3.6-.7-.9-1.5-1.9-2.6-2.8l-4.2-3.7c-1.2-1-2.1-2.1-2.8-3.4-.7-1.2-1-2.8-1-4.6 0-2.6.8-4.7 2.3-6.1 1.5-1.4 3.6-2.1 6.3-2.1 1.6 0 2.9.2 3.9.7 1 .5 1.9 1.1 2.5 2 .6.8 1.1 1.8 1.4 2.9.3 1.1.5 2.2.6 3.4l-5.2.9c-.1-1-.2-2-.3-2.8-.2-.8-.5-1.5-.9-1.9-.5-.5-1.1-.7-2-.7-.9 0-1.6.3-2.1.9-.5.6-.7 1.3-.7 2.2 0 1.1.2 2 .7 2.8.5.7 1.1 1.5 2 2.2l4.1 3.7c1.4 1.1 2.5 2.5 3.5 4s1.5 3.4 1.5 5.6c0 1.6-.3 3-1 4.2-.7 1.2-1.7 2.2-2.9 2.9-1.5.7-2.9 1-4.6 1zM186.6 184.5v-5.4h5.4v5.4h-5.4zm1.8-7.8-1.7-25.4h5.6l-2 25.4h-1.9z"/></g></svg>