<svg xmlns="http://www.w3.org/2000/svg" xml:space="preserve" style="enable-background:new 0 0 750 500" viewBox="0 0 750 500"><path d="M178.2 440.9c1.6.7 2.8 2.2 3.5 3.9.6 1.7.7 3.5.5 5.3-.4 3.4-2.3 6.9-4.4 9.7-2.9-2.5-3.6-6.9-3.8-9.2-.4-3.6 1.2-10.3 4.2-9.7m2.8 24.5c-.5-1.9.3-4.1 1.8-5.4s3.6-1.9 5.6-1.7c.9.1 1.9.3 2.4 1.1.5.7.4 1.7 0 2.5s-1.1 1.3-1.8 1.8c-2.4 1.5-5.2 2.6-8 1.7" style="fill:#e0e0e0"/><path d="M177.3 475.9s0-.3.1-.7c.1-.5.2-1.1.4-1.9.3-1.6.7-3.9 2-6.1 1.2-2.2 2.9-3.8 4.4-4.6.7-.4 1.3-.7 1.8-.8.2-.1.4-.1.5-.1h.2c0 .1-1 .2-2.4 1.1-1.4.8-3 2.4-4.2 4.6s-1.7 4.4-2 6c-.2.8-.3 1.4-.4 1.9-.3.4-.4.6-.4.6z" style="fill:#ebebeb"/><path d="M177.4 446v.3c0 .2 0 .5.1.9 0 .8.1 1.9.1 3.3.1 2.8.2 6.6.1 10.8 0 4.2-.1 8-.2 10.8-.1 1.4-.1 2.5-.2 3.3 0 .4 0 .7-.1.9v.3-1.2c0-.8 0-1.9.1-3.3.1-2.8.1-6.6.2-10.8 0-4.2 0-8-.1-10.8 0-1.4 0-2.5-.1-3.3v-.9c.1-.2.1-.3.1-.3z" style="fill:#ebebeb"/><path d="M176 467.5c-.7-4.2-3.5-7.9-7.3-9.7-1-.5-2.2-.8-3 0-.8.7-.6 2-.2 3 1.6 4.2 6 7.1 10.4 7.1" style="fill:#e0e0e0"/><path d="m169.2 461 .6.3c.2.1.4.2.7.4.3.2.6.3.9.6.3.2.7.5 1 .8.4.3.7.6 1.1 1 .7.7 1.4 1.6 2 2.6s1 2.1 1.3 3c.1.5.3 1 .3 1.4.1.4.1.9.2 1.3s0 .7 0 1v.8c0 .4-.1.7-.1.7-.1 0 0-1-.1-2.5-.1-.4-.1-.8-.2-1.2-.1-.4-.2-.9-.4-1.4-.3-1-.7-2-1.3-3s-1.3-1.9-2-2.6l-1-1c-.3-.3-.7-.5-1-.8-1.1-.9-2-1.3-2-1.4z" style="fill:#ebebeb"/><path d="M236.8 456.1c.1 0 .7.9 1.6 2.6.9 1.6 2 3.9 3.1 6.6 1.1 2.6 1.9 5.1 2.4 6.9s.7 2.9.7 2.9c-.1 0-.4-1.1-1-2.8-.6-1.8-1.4-4.2-2.5-6.8-1.1-2.6-2.1-4.9-2.9-6.6-1-1.7-1.5-2.8-1.4-2.8zm13.7-7.2c.1 0-.3 1.5-.8 3.9s-1 5.8-1 9.6c-.1 3.8.2 7.2.6 9.6.4 2.4.7 3.9.6 4 0 0-.2-.4-.3-1-.2-.7-.4-1.6-.6-2.9-.5-2.4-.8-5.9-.8-9.7.1-3.8.6-7.2 1.2-9.6.3-1.2.6-2.2.8-2.8.1-.7.2-1.1.3-1.1zm8.2 13.3c.1.1-1.6 2.9-3 6.8-1.4 3.8-2 7.1-2.1 7.1s0-.8.2-2.2c.2-1.3.7-3.2 1.4-5.1s1.6-3.6 2.3-4.8c.6-1.2 1.1-1.8 1.2-1.8z" style="fill:#e0e0e0"/><circle cx="471.9" cy="225.2" r="1" style="fill-rule:evenodd;clip-rule:evenodd;fill:#e0e0e0"/><circle cx="376.5" cy="249.9" r=".3" style="fill-rule:evenodd;clip-rule:evenodd;fill:#e0e0e0"/><circle cx="447.8" cy="245.5" r=".3" style="fill-rule:evenodd;clip-rule:evenodd;fill:#e0e0e0"/><path d="M384.1 248c0 .2.1.3.3.3s.3-.1.3-.3-.1-.3-.3-.3-.3.1-.3.3zm108 1.7c0 .2.1.3.3.3s.3-.1.3-.3-.1-.3-.3-.3-.3.1-.3.3zm11.4-1.1c0 .2.1.3.3.3.2 0 .3-.1.3-.3s-.1-.3-.3-.3c-.2 0-.3.2-.3.3zm-55.7 7.3c0 .2.1.3.3.3s.3-.1.3-.3-.1-.3-.3-.3-.3.2-.3.3z" style="fill-rule:evenodd;clip-rule:evenodd;fill:#e0e0e0"/><circle cx="452.1" cy="217.2" r=".6" style="fill-rule:evenodd;clip-rule:evenodd;fill:#e0e0e0"/><circle cx="455.3" cy="216.6" r=".6" style="fill-rule:evenodd;clip-rule:evenodd;fill:#e0e0e0"/><path d="M465.1 180.1c0 .3.3.6.6.6s.6-.3.6-.6-.3-.6-.6-.6c-.3-.1-.6.2-.6.6zm24 .6c0 .3.3.6.6.6s.6-.3.6-.6-.3-.6-.6-.6-.6.2-.6.6zm-78.2-35.5c0 .3.3.6.6.6s.6-.3.6-.6-.3-.6-.6-.6-.6.3-.6.6z" style="fill-rule:evenodd;clip-rule:evenodd;fill:#e0e0e0"/><circle cx="473.6" cy="222" r=".6" style="fill-rule:evenodd;clip-rule:evenodd;fill:#e0e0e0"/><circle cx="446.9" cy="138.1" r=".6" style="fill-rule:evenodd;clip-rule:evenodd;fill:#e0e0e0"/><circle cx="390.8" cy="248.1" r=".6" style="fill-rule:evenodd;clip-rule:evenodd;fill:#e0e0e0"/><circle cx="313.2" cy="122.7" r=".6" style="fill-rule:evenodd;clip-rule:evenodd;fill:#e0e0e0"/><circle cx="310" cy="123.3" r=".6" style="fill-rule:evenodd;clip-rule:evenodd;fill:#e0e0e0"/><circle cx="275.7" cy="159.1" r=".6" style="fill-rule:evenodd;clip-rule:evenodd;fill:#e0e0e0"/><circle cx="275.1" cy="160.9" r=".6" style="fill-rule:evenodd;clip-rule:evenodd;fill:#e0e0e0"/><circle cx="364.8" cy="186.1" r=".6" style="fill-rule:evenodd;clip-rule:evenodd;fill:#e0e0e0"/><path d="M591.1 337.9c-13.8-7.3-30-10.1-45.9-12.8-17.8-3-33.8-12-50.8-6.6-26.4 8.5-43.4 40.6-67.8 53-17.1-23.8-95.9-45.5-140.2-21.7-13-25.4-28.7-41.1-45.4-64.7-4.7-6.6-91-20.6-91-20.6-12.9 6.1-22.7 16.3-32.2 26.2-24.5 25.8-57 65.2-74.4 94.5l658.6.3c-11.6-22.5-87-34.9-110.9-47.6zm-196-99.5c-2.1-1.3-4.8-.7-6.1 1.4-1 1.6-.9 3.7.3 5.1.4.5 1 .9 1.6 1.2l51.6 24.2-47.4-31.9z" style="fill:#f5f5f5"/><path d="M390.3 245.8c-.4-.3-.7-.6-1-.9-1.2-1.5-1.3-3.5-.3-5.1 1.3-2.1 4.1-2.7 6.1-1.4-2.1-1.3-4.8-.7-6.1 1.4-1 1.6-.9 3.6.3 5.1.4.5.9.9 1.6 1.2l51.6 24.2-51.6-24.2-.6-.3z" style="fill:#f5f5f5"/><path d="M396 244.2c-1.1 1.7-3.4 2.2-5.1 1.1-1.7-1.1-2.2-3.4-1.1-5.1 1.1-1.7 3.4-2.2 5.1-1.1 1.7 1.1 2.2 3.4 1.1 5.1z" style="fill:#e0e0e0"/><path d="M228.6 128.4c-1.8-1.1-4.2-.6-5.3 1.2-.9 1.4-.8 3.2.2 4.4.4.5.9.8 1.4 1.1l44.8 21-41.1-27.7z" style="fill:#f5f5f5"/><path d="M224.4 134.8c-.4-.2-.6-.5-.9-.8-1-1.3-1.1-3.1-.2-4.5 1.1-1.8 3.5-2.3 5.3-1.2-1.8-1.1-4.2-.6-5.3 1.2-.9 1.4-.8 3.2.2 4.4.3.4.8.8 1.4 1.1l44.8 21-44.8-21c-.2 0-.3-.1-.5-.2z" style="fill:#f5f5f5"/><path d="M229.4 133.4c-1 1.5-2.9 1.9-4.4 1-1.5-1-1.9-2.9-1-4.4 1-1.5 2.9-1.9 4.4-1s1.9 2.9 1 4.4z" style="fill:#e0e0e0"/><path d="M482.2 60.8c.2-7.4 6.3-13.2 13.6-13 7.4.2 13.2 6.3 13 13.6-.2 7.4-6.3 13.2-13.6 13-7.3-.2-13.1-6.3-13-13.6z" style="fill:#ebebeb"/><path d="M535.2 59.2c0-1.2 1-2.1 2.2-2.1s2.1 1 2.1 2.2-1 2.1-2.2 2.1-2.1-1-2.1-2.2zm4.4 5.1c0-.7.6-1.3 1.3-1.2.7 0 1.3.6 1.2 1.3 0 .7-.6 1.3-1.3 1.2-.7 0-1.2-.6-1.2-1.3zm-1.7 3.9c.3 0 .5.2.5.5s-.2.5-.5.5-.5-.2-.5-.5.2-.6.5-.5z" style="fill:#f5f5f5"/><path d="M709.8 385.6c0 .1-151.2.3-337.8.3s-337.8-.1-337.8-.3c0-.1 151.2-.3 337.8-.3 186.5 0 337.8.1 337.8.3zM597 476.1c0 .1-107.2.3-239.4.3-132.3 0-239.4-.1-239.4-.3 0-.1 107.2-.3 239.4-.3s239.4.1 239.4.3z" style="fill:#263238"/><path d="M404.4 96c0 28.4-23 51.5-51.5 51.5-24.2 0-44.4-16.6-50-39.1-1-4-1.5-8.1-1.5-12.4 0-1.9.1-3.7.3-5.6 2.8-25.8 24.6-45.9 51.2-45.9 28.5.1 51.5 23.1 51.5 51.5z" style="fill-rule:evenodd;clip-rule:evenodd;fill:#5352ed"/><path d="M404.4 96s0-.3-.1-.8c0-.6-.1-1.4-.1-2.4 0-.5-.1-1.1-.1-1.8-.1-.7-.2-1.4-.3-2.2-.1-.8-.3-1.6-.4-2.5-.1-.5-.2-.9-.3-1.4-.1-.5-.2-.9-.4-1.4-.9-4-2.8-8.7-5.7-13.7-3-5-7.2-10.1-13-14.6-.7-.5-1.5-1.1-2.2-1.7l-2.4-1.5c-.8-.5-1.6-1-2.5-1.4s-1.8-.8-2.7-1.3c-.4-.2-.9-.4-1.4-.6-.5-.2-.9-.3-1.4-.5-1-.3-1.9-.7-2.9-1.1-1-.3-2-.5-3-.8-1-.2-2-.6-3.1-.7-2.1-.3-4.3-.7-6.5-.8-1.1 0-2.2-.1-3.3-.1-1.1.1-2.3.1-3.4.2-4.5.4-9.2 1.2-13.7 2.9s-8.9 3.9-13 7c-4 3-7.7 6.7-10.8 10.9-6.3 8.4-9.8 19.2-9.9 30.3 0 11.1 3.7 21.9 9.9 30.3 6.2 8.4 14.7 14.6 23.8 17.9 4.5 1.6 9.2 2.5 13.7 2.9 1.1 0 2.3.1 3.4.1s2.2-.1 3.3-.1c2.2 0 4.4-.4 6.5-.8 1.1-.1 2.1-.5 3.1-.7 1-.3 2-.5 3-.8 1-.4 1.9-.7 2.9-1.1.5-.2 1-.3 1.4-.5.5-.2.9-.4 1.4-.6.9-.4 1.8-.9 2.7-1.3.9-.4 1.7-1 2.5-1.4l2.4-1.5c.7-.6 1.5-1.1 2.2-1.7 5.8-4.4 10.1-9.6 13-14.6s4.8-9.7 5.7-13.7c.1-.5.3-1 .4-1.4.1-.5.2-.9.3-1.4.1-.9.3-1.7.4-2.5s.3-1.5.3-2.1c0-.7.1-1.3.1-1.8.1-1.1.1-1.9.1-2.4.1-.5.1-.8.1-.8v.8c0 .6-.1 1.4-.1 2.4 0 .5 0 1.1-.1 1.8s-.2 1.4-.3 2.2c-.1.8-.2 1.6-.4 2.5 0 .5-.2.9-.3 1.4-.1.5-.2 1-.4 1.4-.9 4-2.7 8.7-5.6 13.8-2.9 5-7.2 10.2-13.1 14.7-.7.6-1.5 1.1-2.2 1.7l-2.4 1.5c-.8.5-1.6 1.1-2.5 1.5s-1.8.9-2.7 1.3c-.5.2-.9.4-1.4.7-.5.2-1 .3-1.4.5-1 .4-1.9.7-2.9 1.1-1 .3-2 .5-3 .8-1 .2-2 .6-3.1.7-2.1.3-4.3.8-6.5.8-1.1 0-2.2.1-3.4.1-1.1 0-2.3-.1-3.4-.1-4.6-.4-9.3-1.3-13.8-2.9-9.1-3.3-17.8-9.5-24-18-6.3-8.5-10.1-19.3-10-30.6.1-11.2 3.7-22.1 10.1-30.6 3.1-4.2 6.9-7.9 10.9-11 4.1-3 8.6-5.3 13.1-7 4.5-1.8 9.3-2.5 13.8-2.9 1.1-.1 2.3-.1 3.4-.2 1.1 0 2.3.1 3.4.1 2.2 0 4.4.5 6.5.8 1.1.1 2.1.5 3.1.7 1 .3 2.1.5 3 .8 1 .4 1.9.7 2.9 1.1.5.2 1 .4 1.4.5.5.2.9.4 1.4.7.9.4 1.8.9 2.7 1.3.9.4 1.7 1 2.5 1.5l2.4 1.5c.8.6 1.5 1.1 2.2 1.7 5.8 4.5 10.1 9.7 13.1 14.7 2.9 5 4.8 9.8 5.6 13.8.1.5.2 1 .4 1.4.1.5.2.9.3 1.4.1.9.3 1.7.4 2.5s.2 1.5.3 2.2c0 .7.1 1.3.1 1.8 0 1.1.1 1.9.1 2.4-.1.5-.1.7-.1.7z" style="fill:#263238"/><path d="M303 108.4c1.7 7.8 7.1 16.3 7.1 16.3 3.8.6 8 2.7 10.6 5.6 1 1.1 1.9 2.4 3.3 2.8 1.8.5 3.7-.8 4.4-2.5s.3-3.7-.5-5.3c-.9-1.8-2.3-3.9-1.3-5.6.6-1.1 2-1.5 3.3-1.5s2.5.4 3.7.6c3 .3 6.3-.8 9 .8 2 1.2 3 3.6 3.5 5.8.5 2.3.6 4.7 1.5 6.8s3 4 5.4 3.7c2.2-.3 3.7-2.3 4.6-4.3s1.6-4.2 3.3-5.7c1-.9 2.3-1.4 3.2-2.4 1.7-1.9 1.4-4.9.2-7.1-.8-1.5-1.9-2.8-2.5-4.3s-.7-3.5.5-4.7c1.1-1.1 2.8-1.2 4.2-.8 3.7.9 6.3 3.9 9.2 6.3 2.9 2.4 7 4.3 10.3 2.5 2.9-1.5 3.8-5.1 4.4-8.3.7-3.7 1-8-1.8-10.5-1-.9-2.2-1.3-3.5-1.8-2.6-1-5.3-2-7.1-4.1-2.5-2.9-2.5-7.6-.1-10.6.8-1 1.9-1.8 2.7-2.9 1.1-1.6 1.3-3.5 1.6-5.4.5-4.1.7-9.1-2.7-11.4-2.3-1.6-5.5-1.2-8.2-.6-1.9.5-3.7 1.1-5.2 2.3s-2.6 3.1-2.3 5c.3 2.1 2 4.3 1 6.1-1.3 2.1-4.6 1-6.8 2-1.4.6-2.3 2.1-3.3 3.3-2.7 3.1-7.3 4.4-11.2 3.3-1.5-.4-2.9-1.2-4.2-2-1.2-.7-2.4-1.3-3.6-2-1.6-.3-2.1-2.1-2.4-3.7-.5-3.1-.7-7 2.1-8.6-.3-3.1 2.7-6.2 5.9-5.9 1 .1 2 .4 2.9.1.9-.3 1.5-1.8.6-2.3-3.3 0-6.7.4-9.6 2-2.9 1.5-5.4 4.2-6.1 7.4-.5 2.4-.1 5-.9 7.4-.9 2.5-3.1 4.4-5.1 6.1-1.9 1.6-3.9 3.2-5.8 4.7-4.1 3.4-10 6.7-15.2 7.8-.7 6.2-.3 11.6.9 15.6z" style="opacity:.2;fill-rule:evenodd;clip-rule:evenodd;enable-background:new"/><path d="M404.4 96s0-.3-.1-.8c0-.6-.1-1.4-.1-2.4 0-.5-.1-1.1-.1-1.8-.1-.7-.2-1.4-.3-2.2-.1-.8-.3-1.6-.4-2.5-.1-.5-.2-.9-.3-1.4-.1-.5-.2-.9-.4-1.4-.9-4-2.8-8.7-5.7-13.7-3-5-7.2-10.1-13-14.6-.7-.5-1.5-1.1-2.2-1.7l-2.4-1.5c-.8-.5-1.6-1-2.5-1.4s-1.8-.8-2.7-1.3c-.4-.2-.9-.4-1.4-.6-.5-.2-.9-.3-1.4-.5-1-.3-1.9-.7-2.9-1.1-1-.3-2-.5-3-.8-1-.2-2-.6-3.1-.7-2.1-.3-4.3-.7-6.5-.8-1.1 0-2.2-.1-3.3-.1-1.1.1-2.3.1-3.4.2-4.5.4-9.2 1.2-13.7 2.9s-8.9 3.9-13 7c-4 3-7.7 6.7-10.8 10.9-6.3 8.4-9.8 19.2-9.9 30.3 0 11.1 3.7 21.9 9.9 30.3 6.2 8.4 14.7 14.6 23.8 17.9 4.5 1.6 9.2 2.5 13.7 2.9 1.1 0 2.3.1 3.4.1s2.2-.1 3.3-.1c2.2 0 4.4-.4 6.5-.8 1.1-.1 2.1-.5 3.1-.7 1-.3 2-.5 3-.8 1-.4 1.9-.7 2.9-1.1.5-.2 1-.3 1.4-.5.5-.2.9-.4 1.4-.6.9-.4 1.8-.9 2.7-1.3.9-.4 1.7-1 2.5-1.4l2.4-1.5c.7-.6 1.5-1.1 2.2-1.7 5.8-4.4 10.1-9.6 13-14.6s4.8-9.7 5.7-13.7c.1-.5.3-1 .4-1.4.1-.5.2-.9.3-1.4.1-.9.3-1.7.4-2.5s.3-1.5.3-2.1c0-.7.1-1.3.1-1.8.1-1.1.1-1.9.1-2.4.1-.5.1-.8.1-.8v.8c0 .6-.1 1.4-.1 2.4 0 .5 0 1.1-.1 1.8s-.2 1.4-.3 2.2c-.1.8-.2 1.6-.4 2.5 0 .5-.2.9-.3 1.4-.1.5-.2 1-.4 1.4-.9 4-2.7 8.7-5.6 13.8-2.9 5-7.2 10.2-13.1 14.7-.7.6-1.5 1.1-2.2 1.7l-2.4 1.5c-.8.5-1.6 1.1-2.5 1.5s-1.8.9-2.7 1.3c-.5.2-.9.4-1.4.7-.5.2-1 .3-1.4.5-1 .4-1.9.7-2.9 1.1-1 .3-2 .5-3 .8-1 .2-2 .6-3.1.7-2.1.3-4.3.8-6.5.8-1.1 0-2.2.1-3.4.1-1.1 0-2.3-.1-3.4-.1-4.6-.4-9.3-1.3-13.8-2.9-9.1-3.3-17.8-9.5-24-18-6.3-8.5-10.1-19.3-10-30.6.1-11.2 3.7-22.1 10.1-30.6 3.1-4.2 6.9-7.9 10.9-11 4.1-3 8.6-5.3 13.1-7 4.5-1.8 9.3-2.5 13.8-2.9 1.1-.1 2.3-.1 3.4-.2 1.1 0 2.3.1 3.4.1 2.2 0 4.4.5 6.5.8 1.1.1 2.1.5 3.1.7 1 .3 2.1.5 3 .8 1 .4 1.9.7 2.9 1.1.5.2 1 .4 1.4.5.5.2.9.4 1.4.7.9.4 1.8.9 2.7 1.3.9.4 1.7 1 2.5 1.5l2.4 1.5c.8.6 1.5 1.1 2.2 1.7 5.8 4.5 10.1 9.7 13.1 14.7 2.9 5 4.8 9.8 5.6 13.8.1.5.2 1 .4 1.4.1.5.2.9.3 1.4.1.9.3 1.7.4 2.5s.2 1.5.3 2.2c0 .7.1 1.3.1 1.8 0 1.1.1 1.9.1 2.4-.1.5-.1.7-.1.7z" style="fill:#263238"/><path d="M400.2 89.2s.1.2.1.6c.1.4.2.9.3 1.6.2 1.4.4 3.5.4 6 0 5.1-1.1 12.2-4.6 19.2s-8.5 12.2-12.5 15.2c-2 1.6-3.8 2.6-5 3.3-.6.4-1.1.6-1.4.8s-.5.2-.5.2.7-.4 1.9-1.2c1.2-.7 2.9-1.9 4.9-3.4 3.9-3.1 8.8-8.3 12.3-15.2 3.4-6.9 4.6-13.9 4.7-18.9.1-2.5 0-4.6-.2-6-.3-1.4-.4-2.2-.4-2.2zM308.4 94c-.1 0 .3-.7.4-1.9.1-1.2-.2-3.1-1.7-4.5l-.1-.1.1-.2c.7-1.3 1.4-2.9 1.7-4.7.4-1.8.5-3.5.3-5.1v-.2h.2c2-.2 3.6-1.1 4.5-1.9s1.3-1.4 1.4-1.4c0 0-.1.2-.2.5-.2.3-.5.7-1 1.1-.9.9-2.5 1.9-4.7 2.2l.2-.3c.2 1.6.1 3.4-.3 5.2-.4 1.8-1.1 3.4-1.8 4.8v-.3c1.6 1.6 1.8 3.7 1.6 4.9-.1.6-.3 1.1-.4 1.4-.1.4-.2.5-.2.5zm89.7-11.3c-.1 0-.6-1.5-1.3-3.4-.7-1.9-1.4-3.3-1.3-3.4s1.1 1.3 1.8 3.2c.7 1.9.9 3.6.8 3.6z" style="fill:#263238"/><path d="M316.5 69.5s.3-.6.8-1.5c.3-.5.6-1.1 1.1-1.7s1-1.4 1.6-2.2c.3-.4.7-.8 1-1.2l1.2-1.2c.8-.9 1.8-1.7 2.8-2.6 2-1.7 4.5-3.4 7.2-4.8s5.5-2.5 8-3.2c1.3-.3 2.5-.7 3.7-.8.6-.1 1.1-.2 1.7-.3.5-.1 1.1-.1 1.6-.2 1-.1 1.9-.1 2.7-.1h2c1.1.1 1.7.1 1.7.2h-3.7c-.8.1-1.7.1-2.7.2-.5.1-1 .1-1.6.2-.5.1-1.1.2-1.7.3-1.2.2-2.4.5-3.6.9-2.5.8-5.2 1.8-7.9 3.2-2.7 1.4-5.1 3.1-7.1 4.8-1 .9-2 1.7-2.8 2.5l-1.2 1.2c-.4.4-.7.8-1 1.2-.7.7-1.2 1.5-1.7 2.1s-.9 1.2-1.2 1.7c-.6.8-.9 1.3-.9 1.3zm30.7 72s-.2 0-.6-.1-.9-.2-1.7-.3c-1.4-.3-3.5-.8-6-1.6-5-1.6-11.9-4.4-18.2-9.6-3.1-2.6-5.7-5.5-7.6-8.5-1.9-2.9-3.3-5.8-4.1-8.3-.8-2.5-1.2-4.6-1.3-6.1-.1-.7-.1-1.3-.1-1.7v-.6s.1.8.3 2.3c.2 1.5.6 3.5 1.5 6 1.7 4.9 5.5 11.4 11.7 16.5 6.2 5.1 13 8 17.9 9.7 2.5.8 4.6 1.4 6 1.7.7.2 1.2.3 1.6.4.4.1.6.1.6.2z" style="fill:#fff"/><path d="m282.9 277.4.4 2.8c.4.7 1.1 1.3 1.8 1.7l1.5.3-1.5.4c-.7.4-1.3 1.1-1.7 1.8l-.3 2.4-.4-2.4c-.4-.7-1.1-1.3-1.8-1.7l-1.7-.3 1.6-.4c.7-.4 1.3-1.1 1.7-1.8l.4-2.8zm404.3-55.9.4 2.8c.4.7 1.1 1.3 1.8 1.7l1.5.3-1.5.4c-.7.4-1.3 1.1-1.7 1.8l-.3 2.4-.4-2.4c-.4-.7-1.1-1.3-1.8-1.7l-1.7-.3 1.6-.4c.7-.4 1.3-1.1 1.7-1.8l.4-2.8zm-249-77.7.4 2.8c.4.7 1.1 1.3 1.8 1.7l1.5.3-1.5.4c-.7.4-1.3 1.1-1.7 1.8l-.3 2.4-.4-2.4c-.4-.7-1.1-1.3-1.8-1.7l-1.7-.3 1.6-.4c.7-.4 1.3-1.1 1.7-1.8l.4-2.8zM235.9 54.1l.4 2.8c.4.7 1.1 1.3 1.8 1.7l1.5.3-1.5.4c-.7.4-1.3 1.1-1.7 1.8l-.3 2.4-.4-2.4c-.4-.7-1.1-1.3-1.8-1.7l-1.7-.3 1.6-.4c.7-.4 1.3-1.1 1.7-1.8l.4-2.8zM47.3 201.7l.4 2.8c.4.7 1.1 1.3 1.8 1.7l1.5.3-1.5.4c-.7.4-1.3 1.1-1.7 1.8l-.3 2.4-.4-2.4c-.4-.7-1.1-1.3-1.8-1.7l-1.7-.3 1.6-.4c.7-.4 1.3-1.1 1.7-1.8l.4-2.8zm638.3-143 .4 2.6c.4.7 1 1.2 1.7 1.5l1.4.3-1.4.4c-.7.4-1.2 1-1.5 1.7l-.3 2.2-.4-2.2c-.4-.7-1-1.2-1.7-1.5l-1.5-.3 1.5-.4c.7-.4 1.2-1 1.5-1.7l.3-2.6zm-512.3 71 .6 4.6c.7 1.2 1.7 2.1 2.9 2.7l2.5.5-2.4.6c-1.2.7-2.1 1.7-2.7 2.9l-.5 3.9-.6-3.8c-.7-1.2-1.7-2.1-2.9-2.7l-2.7-.5 2.6-.6c1.2-.7 2.1-1.7 2.7-2.9l.5-4.7zm306.3-41.2.5 4c.6 1 1.5 1.8 2.5 2.3l2.1.5-2.1.5c-1 .6-1.8 1.5-2.3 2.5l-.5 3.3-.5-3.3c-.6-1-1.5-1.8-2.5-2.3l-2.3-.5 2.3-.5c1-.6 1.8-1.5 2.3-2.5l.5-4zM261 259.9l.7 5.4c.8 1.4 2 2.5 3.4 3.2l2.9.6-2.8.7c-1.4.8-2.5 2-3.2 3.4l-.6 4.5-.7-4.5c-.8-1.4-2-2.5-3.4-3.2l-3.1-.6 3.1-.7c1.4-.8 2.5-2 3.2-3.4l.5-5.4z" style="fill:#5352ed"/><path d="M156.2 244.4h207.3c-2.5-4.9-12.6-17.4-18-18.5s-11.2.3-15.5 3.8c-4-10.2-10.9-19.2-19.8-25.7-7.5-5.5-16.9-9.1-26.1-7.6-9.2 1.6-17.5 9.6-17.2 18.9-5.9-6.8-16-9.7-24.6-6.8-8.6 2.8-15.1 11.1-15.8 20.1-5.7-4.2-13.2-5.9-20.2-4.8-7 1.2-13.5 5.2-17.5 11-8.8-4.2-20.1-2.4-27.2 4.2l-5.4 5.4z" style="fill:#f5f5f5"/><path d="M345.6 225.8c-5.4-1.1-11.2.3-15.5 3.8-4-10.2-10.9-19.2-19.8-25.7-7.5-5.5-16.9-9.1-26.1-7.6-9.2 1.6-17.5 9.6-17.2 18.9-5.9-6.8-16-9.7-24.6-6.8-8.6 2.8-15.1 11.1-15.8 20.1-5.7-4.2-13.2-5.9-20.2-4.8-7 1.2-13.5 5.2-17.5 11-8.8-4.2-20.1-2.4-27.2 4.2 0 0 14.4-9.2 28.1 0 0 0 8.3-8.6 20-9.4 11.7-.7 20 5.3 20 5.3s2-13.7 14.7-20c12.6-6.3 28.7 10.7 28.7 10.7s.1-20 17.7-21c17.3-.9 34.1 15.5 36.1 32.5 4.4-6.3 10.3-10.5 18.6-11.2z" style="fill:#fff"/><path d="m156.2 244.4 1.7-1.7 2.1-2.1 1.4-1.4c.5-.5 1.1-1 1.7-1.4 1.2-1 2.7-1.9 4.5-2.7s3.8-1.5 6-1.9c4.4-.9 9.9-.7 15.3 1.7h-.2c1.7-2.4 3.9-4.6 6.5-6.5 2.7-1.9 5.8-3.4 9.3-4.2s7.3-1 11.1-.3 7.6 2.2 11 4.7l-.3.1c.3-4.1 1.8-8.2 4.3-11.7s6-6.5 10.3-8.2c8.5-3.4 19.5-1.1 26.1 6.4l-.4.2c0-1.7.2-3.4.7-5.1.5-1.7 1.3-3.2 2.3-4.7 1-1.4 2.2-2.8 3.5-4s2.8-2.2 4.4-3.1c1.6-.8 3.3-1.5 5-2 1.8-.4 3.6-.7 5.4-.7 3.7-.1 7.4.6 10.9 1.8 7.1 2.4 13.4 6.9 18.9 12.4 5.4 5.5 9.8 12.2 12.7 19.6l-.4-.1c3.5-2.9 8.4-4.5 13.3-4.2 1.2.1 2.5.3 3.7.8.6.3 1.1.5 1.6.9.5.3 1 .7 1.5 1.1 1.9 1.5 3.7 3.2 5.3 5 1.6 1.8 3.1 3.6 4.6 5.5 1.4 1.9 2.8 3.8 3.9 5.8l.2.4h-.4c-117-.3-204.8-.4-207.5-.4 2.7 0 90.4-.1 207.3-.3l-.2.4c-1.1-2-2.4-3.9-3.8-5.7-1.4-1.9-2.9-3.7-4.5-5.4s-3.3-3.5-5.2-4.9c-.5-.4-1-.7-1.5-1s-1-.6-1.6-.9c-1.1-.5-2.3-.6-3.5-.7-4.8-.4-9.5 1.3-12.9 4.1l-.3.2-.1-.3c-2.9-7.3-7.2-14-12.6-19.4s-11.7-9.9-18.6-12.3c-3.5-1.2-7.1-1.8-10.7-1.8-1.8.1-3.6.3-5.3.7-1.7.5-3.4 1.1-4.9 1.9-1.5.9-3 1.9-4.3 3-1.3 1.2-2.4 2.5-3.4 3.9-.9 1.4-1.7 3-2.2 4.6s-.7 3.3-.7 4.9v.6l-.4-.5c-6.5-7.4-17.3-9.7-25.6-6.3-4.2 1.7-7.6 4.6-10.1 8s-4 7.5-4.3 11.5v.3l-.3-.2c-3.3-2.4-7.1-3.9-10.8-4.6-3.8-.7-7.5-.6-11 .3-3.4.8-6.6 2.3-9.2 4.1-2.6 1.9-4.8 4.1-6.5 6.4l-.1.1h-.1c-5.3-2.5-10.7-2.6-15.1-1.8-2.2.4-4.2 1.1-5.9 1.9-1.7.8-3.2 1.7-4.5 2.7-.6.5-1.2 1-1.7 1.4-.5.5-1 .9-1.4 1.3-.9.8-1.6 1.5-2.2 2.1-1.1 1.1-1.6 1.6-1.8 1.7z" style="fill:#263238"/><path d="M260.8 225.1s-.2-.1-.4-.4c-.1-.2-.3-.3-.5-.5s-.4-.4-.7-.6c-1.1-.9-2.8-2.2-5.3-2.9-2.4-.7-5.6-.9-8.8 0s-6.4 3.1-8.7 6.3c-2.8 3.9-4 8.5-4 12.4v1.2l-.4-1.1c-.8-2-2.6-3.4-4.3-3.9-1.7-.6-3.4-.3-4.6.2-1.2.5-2 1.2-2.5 1.7s-.7.8-.7.8 0-.1.1-.3.2-.4.5-.7c.5-.6 1.2-1.3 2.5-1.9 1.2-.6 2.9-.9 4.8-.3 1.8.5 3.7 1.9 4.6 4.1l-.4.1c0-4 1.1-8.7 4-12.7 2.3-3.2 5.6-5.6 9-6.4 3.4-.9 6.6-.7 9.1.1s4.3 2.1 5.3 3.1c.2.3.5.5.7.7s.3.4.4.6c.2.2.3.4.3.4zm30.3-.9c-.1.1-1.1-.9-3.2-1.7s-5.3-1.4-8.6-.4c-3.3 1-5.7 3.3-6.9 5.1-1.3 1.9-1.6 3.3-1.7 3.2 0 0 0-.4.2-1s.6-1.5 1.2-2.5c1.2-1.9 3.6-4.3 7.1-5.4 3.4-1 6.8-.4 8.9.6 1.1.5 1.8 1 2.4 1.4.3.4.6.6.6.7zm41.3 16c-.1 0-.3-.9-1.1-2.2-.8-1.2-2.3-2.8-4.4-3.6s-4.3-.5-5.7-.1c-1.4.5-2.2 1-2.2 1s.1-.2.5-.5c.3-.3.9-.6 1.6-.9 1.4-.6 3.7-.9 6-.1s3.8 2.5 4.5 3.9c.4.7.6 1.3.7 1.7.1.5.1.7.1.8z" style="fill:#263238"/><path d="M63.3 106.9h158.5c-1.9-3.7-9.6-13.3-13.7-14.2-4.1-.8-8.6.3-11.8 2.9-3-7.8-8.4-14.7-15.1-19.6-5.8-4.2-13-7-20-5.8s-13.4 7.4-13.2 14.5c-4.5-5.2-12.3-7.4-18.8-5.2-6.6 2.2-11.5 8.5-12.1 15.4-4.4-3.2-10.1-4.5-15.4-3.6-5.4.9-10.3 4-13.4 8.4-6.7-3.2-15.4-1.8-20.8 3.2l-4.2 4z" style="fill:#f5f5f5"/><path d="M208.1 92.7c-4.1-.8-8.6.3-11.8 2.9-3-7.8-8.4-14.7-15.1-19.6-5.8-4.2-13-7-20-5.8s-13.4 7.4-13.2 14.5c-4.5-5.2-12.3-7.4-18.8-5.2-6.6 2.2-11.5 8.5-12.1 15.4-4.4-3.2-10.1-4.5-15.4-3.6-5.4.9-10.3 4-13.4 8.4-6.7-3.2-15.4-1.8-20.8 3.2 0 0 11-7.1 21.5 0 0 0 6.4-6.6 15.3-7.2s15.3 4 15.3 4 1.6-10.4 11.2-15.3c9.7-4.8 21.9 8.2 21.9 8.2s.1-15.3 13.5-16.1c13.4-.8 26.3 11.7 27.8 24.7 3.3-4.8 7.8-8 14.1-8.5z" style="fill:#fff"/><path d="m63.3 106.9 1.3-1.3 1.6-1.6 1.1-1.1c.4-.4.8-.7 1.3-1.1.9-.7 2.1-1.5 3.4-2.1s2.9-1.2 4.6-1.5c3.4-.7 7.6-.6 11.7 1.3h-.2c2.6-3.7 6.8-6.9 12.1-8.2 5.3-1.3 11.7-.4 16.9 3.4l-.3.1c.5-6.2 4.7-12.6 11.2-15.2 6.5-2.6 15-.9 20 4.9l-.4.2c0-1.3.2-2.6.5-3.9.4-1.3 1-2.5 1.7-3.6.8-1.1 1.7-2.1 2.7-3.1 1-.9 2.1-1.7 3.3-2.4 1.2-.6 2.5-1.2 3.9-1.5s2.7-.5 4.1-.6c2.8-.1 5.6.4 8.3 1.4 5.4 1.9 10.3 5.3 14.4 9.5s7.5 9.3 9.7 15l-.4-.1c2.7-2.2 6.5-3.5 10.2-3.2.9.1 1.9.2 2.8.6.9.4 1.7.9 2.4 1.5 1.5 1.2 2.8 2.5 4 3.8 2.5 2.7 4.7 5.5 6.5 8.6l.2.4h-.4c-89-.1-155.5-.2-158.2-.2 2.7 0 69.2-.1 158.5-.3l-.2.4c-1.7-3-4-5.8-6.4-8.5-1.2-1.3-2.5-2.6-4-3.8-.7-.6-1.5-1.1-2.3-1.5-.8-.3-1.7-.5-2.6-.5-3.6-.3-7.3 1-9.9 3.1l-.3.2-.1-.3c-2.2-5.6-5.5-10.7-9.6-14.8-4.1-4.1-8.9-7.5-14.2-9.4-2.6-.9-5.4-1.4-8.2-1.3-1.4 0-2.7.2-4 .5-1.3.4-2.6.9-3.7 1.5-1.2.7-2.3 1.4-3.3 2.3s-1.8 1.9-2.6 3c-.7 1.1-1.3 2.3-1.7 3.5s-.5 2.5-.5 3.8v.6l-.4-.5c-4.9-5.7-13.2-7.4-19.5-4.8-6.4 2.6-10.5 8.8-11 14.8v.3l-.3-.2c-5.1-3.7-11.4-4.6-16.6-3.3-5.3 1.3-9.4 4.5-12 8.1l-.1.1h-.1c-4-1.9-8.2-2-11.6-1.4-1.7.3-3.2.8-4.5 1.4s-2.5 1.3-3.4 2.1c-.5.4-.9.7-1.3 1.1s-.7.7-1.1 1c-.7.6-1.2 1.2-1.7 1.6-.8.7-1.1 1.1-1.3 1.2z" style="fill:#263238"/><path d="M668.7 144.1H461.2c2.5-4.9 12.6-17.5 18-18.6s11.2.3 15.5 3.8c4-10.2 10.9-19.3 19.8-25.7 7.5-5.5 17-9.2 26.1-7.6 9.2 1.6 17.5 9.6 17.3 19 5.9-6.9 16.1-9.7 24.7-6.9 8.6 2.8 15.1 11.1 15.8 20.1 5.7-4.2 13.2-5.9 20.2-4.8 7 1.2 13.5 5.2 17.6 11.1 8.8-4.2 20.1-2.4 27.3 4.2l5.2 5.4z" style="fill:#f5f5f5"/><path d="M479.1 125.4c5.4-1.1 11.2.3 15.5 3.8 4-10.2 10.9-19.3 19.8-25.7 7.5-5.5 17-9.2 26.1-7.6 9.2 1.6 17.5 9.6 17.3 19 5.9-6.9 16.1-9.7 24.7-6.9 8.6 2.8 15.1 11.1 15.8 20.1 5.7-4.2 13.2-5.9 20.2-4.8 7 1.2 13.5 5.2 17.6 11.1 8.8-4.2 20.1-2.4 27.3 4.2 0 0-14.5-9.3-28.1 0 0 0-8.3-8.6-20-9.4-11.7-.7-20 5.3-20 5.3s-2-13.7-14.7-20c-12.6-6.3-28.7 10.7-28.7 10.7s-.1-20-17.7-21.1c-17.5-1.1-34.4 15.3-36.4 32.4-4.5-6.1-10.4-10.3-18.7-11.1z" style="fill:#fff"/><path d="M668.7 144.1c-.2-.2-.7-.6-1.8-1.7-.6-.6-1.3-1.3-2.2-2.1-.4-.4-.9-.9-1.4-1.3-.5-.5-1.1-.9-1.7-1.4-1.2-.9-2.7-1.9-4.5-2.7-1.7-.8-3.7-1.5-6-1.9-4.4-.9-9.9-.7-15.1 1.8h-.1l-.1-.1c-1.7-2.4-3.8-4.6-6.5-6.4-2.6-1.8-5.8-3.3-9.2-4.2-3.4-.8-7.2-.9-11-.3-3.8.7-7.5 2.2-10.9 4.6l-.3.2v-.3c-.3-4-1.8-8-4.3-11.5-2.5-3.4-6-6.4-10.1-8-8.3-3.4-19.2-1.1-25.6 6.3l-.4.5v-.6c0-1.7-.2-3.3-.7-5-.5-1.6-1.3-3.1-2.2-4.6-1-1.4-2.1-2.7-3.4-3.9-1.3-1.1-2.7-2.1-4.3-3-1.6-.8-3.2-1.5-4.9-1.9s-3.5-.6-5.3-.7c-3.6-.1-7.2.6-10.7 1.8-7 2.4-13.3 6.8-18.7 12.3-5.4 5.5-9.7 12.1-12.6 19.4l-.1.3-.3-.2c-3.4-2.8-8.2-4.4-13-4.1-1.2.1-2.4.3-3.5.7-.5.3-1.1.5-1.6.9-.5.3-1 .7-1.5 1-1.9 1.5-3.6 3.2-5.2 4.9-1.6 1.8-3.1 3.6-4.6 5.4-1.4 1.9-2.8 3.8-3.8 5.7l-.2-.4c117.3.4 205.1.5 207.8.5-2.7 0-90.5.1-207.5.3h-.4l.2-.4c1.1-2 2.5-3.9 3.9-5.8s3-3.7 4.6-5.5 3.4-3.5 5.3-5c.5-.4 1-.8 1.5-1.1.5-.4 1.1-.6 1.6-.9 1.2-.5 2.4-.7 3.7-.8 4.9-.4 9.8 1.3 13.3 4.2l-.4.1c2.9-7.4 7.3-14.1 12.7-19.6 5.4-5.5 11.8-10 18.9-12.4 3.5-1.2 7.2-1.9 10.9-1.8 1.8.1 3.6.3 5.4.7 1.8.5 3.4 1.1 5 2s3 1.9 4.4 3.1c1.3 1.2 2.5 2.5 3.5 4s1.7 3.1 2.3 4.7c.5 1.7.7 3.4.7 5.1l-.4-.2c6.6-7.6 17.7-9.9 26.2-6.4 4.2 1.7 7.8 4.7 10.3 8.2s4 7.6 4.4 11.7l-.3-.1c3.4-2.4 7.2-4 11-4.7s7.6-.6 11.1.3c3.5.8 6.6 2.4 9.3 4.2 2.7 1.9 4.9 4.2 6.5 6.5h-.2c5.4-2.5 10.9-2.6 15.3-1.7 2.2.4 4.2 1.1 6 1.9 1.7.8 3.2 1.8 4.5 2.7.6.5 1.2 1 1.7 1.4.5.5 1 .9 1.4 1.4l2.1 2.1c.9 1.2 1.3 1.6 1.5 1.8z" style="fill:#263238"/><path d="M564 124.8s.1-.2.3-.5c.1-.2.3-.3.4-.6l.7-.7c1-1 2.8-2.3 5.3-3.1 2.5-.8 5.7-1 9.1-.1 3.4.9 6.7 3.2 9 6.5 2.9 4 4 8.8 4 12.7l-.4-.1c.9-2.2 2.8-3.6 4.6-4.1 1.8-.6 3.6-.2 4.8.3 1.2.6 2 1.3 2.5 1.9.2.3.4.5.5.7s.1.2.1.3c0 0-.2-.3-.7-.8s-1.3-1.2-2.5-1.7-2.8-.8-4.6-.2c-1.7.5-3.4 1.9-4.3 3.9l-.4 1.1v-1.2c0-3.9-1.2-8.5-4-12.4-2.3-3.2-5.4-5.4-8.7-6.3-3.2-.9-6.4-.7-8.8 0-2.5.7-4.2 1.9-5.3 2.9-.3.2-.5.5-.7.6-.2.2-.3.4-.5.5l-.4.4zm-30.3-1s.2-.3.7-.7c.5-.4 1.3-.9 2.4-1.4 2.1-1 5.4-1.6 8.9-.6 3.4 1.1 5.9 3.5 7.1 5.4.6 1 1 1.8 1.2 2.5.2.6.3 1 .2 1s-.5-1.4-1.7-3.2-3.6-4.1-6.9-5.1c-3.3-1-6.5-.4-8.6.4s-3.2 1.8-3.3 1.7zm-41.3 16s0-.2.1-.7c.1-.4.3-1 .7-1.7.7-1.4 2.3-3.1 4.5-3.9 2.3-.8 4.6-.5 6 .1.7.3 1.3.6 1.6.9.3.3.5.4.5.5-.1.1-.8-.5-2.2-1-1.4-.5-3.5-.7-5.7.1-2.1.8-3.6 2.3-4.4 3.6-.8 1.2-1 2.1-1.1 2.1zM87.6 372.4s.8.4 1.9 1.4 2.4 2.5 3.5 4.4 1.8 3.8 2.1 5.3c.3 1.4.4 2.3.3 2.3-.2 0-.7-3.6-2.9-7.3-2.1-3.8-5-6-4.9-6.1zm14.2-6.9c.1 0-.3 1.1-.8 2.9s-1.1 4.2-1.5 7-.5 5.3-.6 7.1c0 1.8 0 3-.1 3s-.2-1.1-.3-3c-.1-1.8 0-4.4.4-7.2s1.1-5.3 1.6-7c.8-1.8 1.2-2.8 1.3-2.8zm5.7 11.5c.1.1-1.4 1.8-2.6 4.3-1.3 2.4-1.8 4.6-1.9 4.6s.2-2.3 1.5-4.8c1.2-2.6 2.9-4.2 3-4.1zm117.5 8.9c-.2 0-.6-2.2-1.9-4.8-1.2-2.5-2.8-4.3-2.6-4.4.1-.1 1.8 1.6 3.1 4.2s1.5 5 1.4 5zm1.5-25.5c.1 0 1 5.6 1.8 12.5.9 6.9 1.5 12.6 1.3 12.6-.1 0-1-5.6-1.8-12.5s-1.4-12.5-1.3-12.6zm10.2 13.9c.1.1-1.3 2.3-2.1 5.3-.8 3.1-.7 5.7-.9 5.7-.1 0-.5-2.6.4-5.8.8-3.2 2.5-5.3 2.6-5.2zm66.7-3.8s.8.6 1.8 1.8c1 1.2 2.3 2.9 3.4 5s1.9 4.1 2.4 5.6c.4 1.5.6 2.4.5 2.4s-.4-.9-.9-2.3-1.3-3.4-2.5-5.4c-1.1-2-2.3-3.8-3.2-5-.9-1.3-1.5-2.1-1.5-2.1zm12.2-4.4c.1 0 0 1.1-.1 2.9s-.1 4.2 0 6.9c.2 2.7.5 5.1.8 6.8.3 1.7.5 2.8.4 2.8s-.4-1-.8-2.8c-.4-1.7-.8-4.2-.9-6.9-.2-2.7 0-5.2.1-6.9.2-1.7.4-2.8.5-2.8zm8.3 10.2c.1.1-1 2-2 4.5s-1.4 4.7-1.6 4.7c-.1 0 .1-2.3 1.1-4.9 1.1-2.6 2.4-4.4 2.5-4.3zm62.6-6s.8.6 1.8 1.8c1 1.2 2.3 2.9 3.4 5s1.9 4.1 2.4 5.6c.4 1.5.6 2.4.5 2.4s-.4-.9-.9-2.3-1.3-3.4-2.5-5.4c-1.1-2-2.3-3.8-3.2-5-1-1.3-1.6-2-1.5-2.1zm12.1-4.3c.1 0 0 1.1-.1 2.9s-.1 4.2 0 6.9c.2 2.7.5 5.1.8 6.8.3 1.7.5 2.8.4 2.8s-.4-1-.8-2.8c-.4-1.7-.8-4.2-.9-6.9-.2-2.7 0-5.2.1-6.9.2-1.7.5-2.8.5-2.8zm8.4 10.1c.1.1-1 2-2 4.5s-1.4 4.7-1.6 4.7c-.1 0 .1-2.3 1.1-4.9 1-2.5 2.4-4.4 2.5-4.3zm263.5-5.8s.8.6 1.8 1.8c1 1.2 2.3 2.9 3.4 5s1.9 4.1 2.4 5.6c.4 1.5.6 2.4.5 2.4s-.4-.9-.9-2.3-1.3-3.4-2.5-5.4c-1.1-2-2.3-3.8-3.2-5-.9-1.3-1.5-2-1.5-2.1zm12.2-4.3c.1 0 0 1.1-.1 2.9s-.1 4.2 0 6.9c.2 2.7.5 5.1.8 6.8.3 1.7.5 2.8.4 2.8s-.4-1-.8-2.8c-.4-1.7-.8-4.2-.9-6.9-.2-2.7 0-5.2.1-6.9.2-1.7.4-2.8.5-2.8zm8.3 10.1c.1.1-1 2-2 4.5s-1.4 4.7-1.6 4.7c-.1 0 .1-2.3 1.1-4.9 1.1-2.5 2.4-4.4 2.5-4.3z" style="fill:#263238"/><path d="M143.7 335.1c2.3 1 4.1 3.2 4.9 5.6.9 2.4.9 5 .7 7.5-.6 4.9-3.3 9.8-6.3 13.7-4.1-3.6-5.1-9.9-5.3-13.1-.6-5 1.7-14.4 6-13.7m4 34.9c-.7-2.8.5-5.8 2.6-7.7 2.1-1.9 5.1-2.7 7.9-2.5 1.3.1 2.7.5 3.5 1.6.7 1 .6 2.4.1 3.5-.6 1.1-1.6 1.9-2.6 2.6-3.6 2.2-7.4 3.8-11.5 2.5" style="fill:#5352ed"/><path d="M142.4 385s0-.4.1-1c.1-.7.3-1.6.5-2.7.5-2.3 1-5.5 2.8-8.7 1.7-3.1 4.2-5.5 6.2-6.6 1-.6 1.9-.9 2.5-1.1.3-.1.6-.1.7-.2h.3c0 .1-1.4.3-3.4 1.6-2 1.2-4.3 3.5-6 6.6s-2.4 6.3-2.9 8.6c-.2 1.1-.5 2.1-.6 2.7 0 .5-.1.8-.2.8z" style="fill:#263238"/><path d="M142.6 342.5s0 .2.1.4c0 .3 0 .7.1 1.3.1 1.1.1 2.7.2 4.6.1 3.9.2 9.3.2 15.3s-.2 11.4-.3 15.3c-.1 2-.2 3.5-.2 4.6 0 .5-.1.9-.1 1.3 0 .3 0 .4-.1.4V384c0-1.1.1-2.7.1-4.6.1-3.9.2-9.3.2-15.3s0-11.4-.1-15.3c0-1.9-.1-3.5-.1-4.6v-1.7z" style="fill:#263238"/><path d="M140.6 373c-.9-5.9-4.9-11.3-10.3-13.9-1.4-.7-3.2-1.1-4.3-.1-1.1 1-.9 2.9-.3 4.3 2.3 5.9 8.5 10.1 14.9 10" style="fill:#5352ed"/><path d="M130.9 363.8s.3.1.9.4c.3.1.6.3 1 .5s.8.5 1.3.8c.4.3 1 .7 1.4 1.1.5.4 1 .9 1.5 1.4 1 1 2 2.3 2.9 3.7.9 1.5 1.5 2.9 1.9 4.3.2.7.4 1.4.5 2s.2 1.2.2 1.8c.1.5.1 1 .1 1.5v1.1c0 .6-.1.9-.1.9-.1 0 .1-1.4-.2-3.5-.1-.5-.1-1.1-.3-1.8-.1-.6-.3-1.3-.5-2-.4-1.4-1.1-2.8-1.9-4.2-.9-1.4-1.9-2.7-2.8-3.7-.5-.5-1-1-1.5-1.4s-1-.8-1.4-1.1c-1.8-1.2-3-1.7-3-1.8zM346 461.2s.8.6 1.8 1.8c1 1.2 2.3 2.9 3.4 5s1.9 4.1 2.4 5.6c.4 1.5.6 2.4.5 2.4s-.4-.9-.9-2.3-1.3-3.4-2.5-5.4c-1.1-2-2.3-3.8-3.2-5-1-1.3-1.6-2.1-1.5-2.1zm12.1-4.4c.1 0 0 1.1-.1 2.9s-.1 4.2 0 6.9c.2 2.7.5 5.1.8 6.8.3 1.7.5 2.8.4 2.8s-.4-1-.8-2.8c-.4-1.7-.8-4.2-.9-6.9-.2-2.7 0-5.2.1-6.9.2-1.7.5-2.8.5-2.8zm8.4 10.2c.1.1-1 2-2 4.5s-1.4 4.7-1.6 4.7c-.1 0 .1-2.3 1.1-4.9s2.4-4.4 2.5-4.3z" style="fill:#263238"/><path d="M514.1 446.2c1.4.6 2.4 1.9 2.9 3.3s.6 2.9.4 4.4c-.3 2.9-2 5.8-3.7 8.1-2.4-2.1-3-5.8-3.1-7.7-.3-3 1-8.5 3.5-8.1m2.4 20.5c-.4-1.6.3-3.4 1.5-4.5s3-1.6 4.7-1.5c.8.1 1.6.3 2 .9s.4 1.4 0 2.1c-.3.6-.9 1.1-1.5 1.5-2 1.3-4.3 2.2-6.7 1.5" style="fill:#455a64"/><path d="M513.4 475.5s0-.2.1-.6.2-1 .3-1.6c.3-1.3.6-3.2 1.6-5.1 1-1.8 2.5-3.2 3.7-3.9.6-.3 1.1-.6 1.5-.7.2-.1.3-.1.4-.1h.2s-.8.2-2 .9-2.5 2-3.6 3.9c-1 1.8-1.4 3.7-1.7 5-.1.7-.3 1.2-.4 1.6 0 .4-.1.6-.1.6zm.1-25v1c0 .6.1 1.6.1 2.7.1 2.3.1 5.5.1 9s-.1 6.7-.2 9c0 1.2-.1 2.1-.1 2.7 0 .3 0 .5-.1.7v.3-1c0-.7 0-1.6.1-2.7.1-2.3.1-5.5.1-9s0-6.7-.1-9v-3.4c.1-.2.1-.3.1-.3z" style="fill:#263238"/><path d="M512.3 468.4c-.6-3.5-2.9-6.6-6.1-8.1-.8-.4-1.9-.6-2.5 0-.7.6-.5 1.7-.2 2.5 1.4 3.5 5 5.9 8.7 5.9" style="fill:#455a64"/><path d="M506.7 463s.2.1.5.2l.6.3c.2.1.5.3.7.5.3.2.6.4.8.6.3.2.6.5.9.8.6.6 1.2 1.3 1.7 2.2.5.9.9 1.7 1.1 2.5l.3 1.2c.1.4.1.7.1 1v1.6c0 .4 0 .6-.1.6 0 0 0-.8-.1-2.1 0-.3-.1-.7-.2-1l-.3-1.2c-.3-.8-.6-1.7-1.1-2.5-.5-.8-1.1-1.6-1.7-2.2-.3-.3-.6-.6-.9-.8-.3-.3-.6-.5-.8-.6-.8-.7-1.6-1-1.5-1.1zm-78.9-6.9c.1 0 .7.9 1.6 2.6.9 1.6 2 3.9 3.1 6.6 1.1 2.6 1.9 5.1 2.4 6.9s.7 2.9.7 2.9c-.1 0-.4-1.1-1-2.8-.6-1.8-1.4-4.2-2.5-6.8-1.1-2.6-2.1-4.9-2.9-6.6-1-1.7-1.5-2.8-1.4-2.8zm13.7-7.2c.1 0-.3 1.5-.8 3.9s-1 5.8-1 9.6c-.1 3.8.2 7.2.6 9.6s.7 3.9.6 4c0 0-.2-.4-.3-1-.2-.7-.4-1.6-.6-2.9-.5-2.4-.8-5.9-.8-9.7.1-3.8.6-7.2 1.2-9.6.3-1.2.6-2.2.8-2.8.1-.7.3-1.1.3-1.1zm8.2 13.3c.1.1-1.6 2.9-3 6.8-1.4 3.8-2 7.1-2.1 7.1s0-.8.2-2.2c.2-1.3.7-3.2 1.4-5.1.7-1.9 1.6-3.6 2.3-4.8.7-1.2 1.2-1.8 1.2-1.8zm119 13.7c-.2 0-.6-2.6-2-5.4s-3.3-4.7-3.1-4.8c.1-.1 2.1 1.6 3.6 4.6 1.4 2.9 1.6 5.6 1.5 5.6zm.1-18.7c.1 0 .5.9 1.1 2.6.6 1.6 1.3 3.9 1.9 6.5.6 2.6.9 5 1 6.7s.1 2.8 0 2.8-.2-1.1-.4-2.8c-.2-1.7-.6-4-1.1-6.6-.6-2.6-1.2-4.8-1.7-6.5-.5-1.6-.8-2.7-.8-2.7z" style="fill:#263238"/><circle cx="122.8" cy="183.1" r="19.7" style="fill:#455a64"/><path d="M118.6 188.2c-.5 1.7-2.3 2.6-4 2.1s-2.6-2.3-2.1-4 2.3-2.6 4-2.1 2.6 2.3 2.1 4zM117 178c-.3 1-1.4 1.5-2.3 1.2-1-.3-1.5-1.4-1.2-2.3.3-1 1.4-1.5 2.3-1.2 1 .3 1.5 1.3 1.2 2.3z" style="opacity:.3;fill:#fff;enable-background:new"/><path d="M103.2 181.9c0 .4-21 10.8-17.9 15.4 3.1 4.6 23.3 1.7 42-5.7s37-17.7 34.5-22.8-24.8.5-24.8.5l1.8 2.1s13.6-3.7 16.2.2c2.7 3.9-10.9 11.7-28.6 17.7s-33.8 8.9-35.1 5.4c-1.2-3.5 11.9-9.9 11.9-9.9v-2.9z" style="fill:#263238"/><path d="M116.7 166.6c.1.2-1.5.9-3.6 2.6-2.1 1.7-4.7 4.6-6 8.5s-1 7.8-.4 10.4c.7 2.6 1.5 4.2 1.3 4.3-.1.1-1.4-1.2-2.3-4-.5-1.4-.9-3.1-.9-5-.1-1.9.2-4.1.9-6.2.7-2.1 1.8-4 3-5.5s2.6-2.6 3.8-3.4c2.3-1.5 4.1-1.8 4.2-1.7z" style="opacity:.3;fill:#fff;enable-background:new"/><path d="m635.5 449.1 1.1 20.1s-20 7.9-20.2 11.6l39-.8-.5-31.4-19.4.5z" style="fill:#455a64"/><path d="M648.7 467.3c.8.2 1.3 1 1.1 1.8s-1 1.3-1.8 1.1c-.8-.2-1.4-1.2-1.2-1.9.2-.7 1.3-1.3 1.9-1" style="fill:#e0e0e0"/><path d="m655.5 480.1-.2-3.2-37.4 2s-1.7.8-1.5 2l39.1-.8z" style="opacity:.6;fill:#fff;enable-background:new"/><path d="M636 469.1c0 .2 1 .3 1.9.9 1 .6 1.5 1.4 1.6 1.3.2 0-.1-1.2-1.3-1.9-1.1-.8-2.2-.5-2.2-.3zm-4 1.7c0 .2.8.5 1.5 1.3s.9 1.6 1.1 1.6c.2 0 .3-1.1-.6-2.1-.9-.9-2-.9-2-.8zm-2.3 5c.2 0 .4-.9-.1-2-.5-1-1.4-1.4-1.5-1.3-.1.2.5.7.9 1.6.5.9.5 1.7.7 1.7zm6.6-11.3c.1.2 1-.1 2-.1 1.1 0 1.9.4 2 .2.1-.1-.7-.8-2-.9-1.2 0-2.1.6-2 .8z" style="fill:#263238"/><path d="m608.7 449.9 1.8 20.1s-19.8 8.5-19.8 12.3l39-2-1.5-31.4-19.5 1z" style="fill:#455a64"/><path d="M622.4 467.7c.8.2 1.3 1 1.2 1.8s-1 1.4-1.7 1.2c-.8-.2-1.5-1.1-1.3-1.9s1.2-1.4 1.9-1" style="fill:#e0e0e0"/><path d="m629.6 480.2-.3-3.2-37.3 3.1s-1.7.8-1.4 2.1l39-2z" style="opacity:.6;fill:#fff;enable-background:new"/><path d="M609.8 469.8c0 .2 1 .2 1.9.8 1 .5 1.5 1.3 1.7 1.3s-.2-1.2-1.4-1.8c-1.1-.8-2.2-.5-2.2-.3zm-4 1.9c0 .2.8.5 1.5 1.2.7.8.9 1.6 1.1 1.6.2 0 .3-1.1-.6-2-.9-.9-2-1-2-.8zm-2.1 5c.2 0 .4-.9-.2-2-.5-1-1.5-1.4-1.5-1.2-.1.2.5.7.9 1.5.6.9.7 1.7.8 1.7zm6.2-11.5c.1.2.9-.1 2-.1s1.9.3 2 .1c.1-.1-.8-.8-2-.8s-2.1.6-2 .8z" style="fill:#263238"/><path d="M651.5 307.4s-43.4 11.8-44.7 12.2l-1.3 3.8c-.3 1.1-9 42.7-13.1 62.2-1.4 6.5-1.4 13.2-.1 19.7l12.9 63.6h25.4l-8.4-72.2s24.5-58.8 25.7-60.2c1.2-1.4 11.6-12.3 3.6-29.1z" style="fill:#263238"/><path d="m650.2 327.5 8.2 137.4h-24.6l-7.8-65.4-5.9-32.6 6.5-40.8 23.6 1.4z" style="fill:#263238"/><path d="M653 328s-.1.5-.5 1.5c-.4.9-1.1 2.3-2.2 3.9-.5.8-1.2 1.7-1.9 2.6-.4.5-.7 1-1.2 1.5s-.7 1-1 1.7c-1.1 2.5-2.4 5.4-3.7 8.7-2.7 6.5-5.9 14.2-9.5 22.9-1.8 4.3-3.6 8.9-5.6 13.6-1 2.4-2 4.8-3 7.3-.3.6-.5 1.2-.8 1.9-.3.6-.5 1.2-.7 1.9-.3 1.3-.4 2.6-.1 3.9.3 2.8.6 5.7 1 8.7 2.7 23.8 5.1 45.3 6.8 60.9v.2h-.2c-7.8 0-14.2-.1-18.6-.1-2.2 0-3.9 0-5.1-.1H605h6.8c4.4 0 10.8 0 18.6-.1l-.2.2c-1.8-15.6-4.2-37.1-7-60.9-.3-3-.7-5.9-1-8.7-.3-1.4-.2-2.8.2-4.2.2-.7.5-1.3.7-1.9.3-.6.5-1.2.8-1.9 1-2.5 2-4.9 3-7.3 2-4.7 3.8-9.3 5.6-13.6 3.6-8.7 6.8-16.4 9.6-22.8 1.4-3.2 2.6-6.1 3.8-8.7.3-.6.6-1.3 1.1-1.7.4-.5.8-1 1.2-1.4.7-.9 1.4-1.8 1.9-2.6 1.1-1.6 1.8-2.9 2.2-3.9.5-.9.7-1.5.7-1.5z" style="fill:#455a64"/><path d="m544 256.8 8.7-9 13 25.9.7-2.7 10 3.6s-5.2 19.5-6.8 20.2-14.3-1.3-15.7-3.8c-1.3-2.7-9.9-34.2-9.9-34.2z" style="fill:#ffbe9d"/><path d="M577.5 205.3c.3-2.5.6-5 .3-7.5s-1.2-5-2.9-6.8c-1-1-2.3-1.8-3.3-2.9-1.3-1.6-1.8-3.8-3.5-4.9-2.6-1.8-6.1.2-9.3-.1-2.4-.2-4.7-1.8-7.1-1.7-2.1.1-4 1.5-5.6 2.9-1.6 1.5-3 3.2-4.9 4.2-1.4.7-2.9 1-4.3 1.6-1.4.6-2.8 1.4-3.5 2.8-.6 1.4-.1 3.4 1.3 3.9-2.7.5-4.1 3.9-3.1 6.4s3.7 4.1 6.4 4.3 5.4-.7 7.8-1.8c7-3.2 13.2-8.6 16.1-15.7" style="fill:#263238"/><path d="m572.7 196.9 18.1 33.8c3.1 5.7-.3 19.6-6.2 22.4-5.5 2.6-8.9-.8-11.8-6.1-1.4-2.5-4.6-10.2-4.7-10.5 0 0-9 3.8-14.2-4.4-2.5-4-7-12.5-11-20.3-4.3-8.4-1.4-18.6 6.6-23.5l.8-.5c8.8-4.8 17.8.1 22.4 9.1z" style="fill:#ffbe9d"/><path d="M568 236.5s5.4-2.9 8.8-9.8c0 0 1.1 8.1-7.6 12.4l-1.2-2.6z" style="fill:#eb996e"/><path d="M548.5 218.7c.2.1.7-1.1 2-1.9 1.3-.8 2.6-.7 2.6-1 0-.1-.3-.3-.9-.3-.6 0-1.4.1-2.2.6s-1.3 1.2-1.5 1.7c-.1.5-.1.9 0 .9zm12.7-8.1c.4.6 1.2.9 1.9.5s.9-1.2.6-1.8c-.4-.6-1.2-.9-1.9-.5s-.9 1.2-.6 1.8zm-2-3.9c.2.1.7-1.1 2-1.9 1.3-.8 2.6-.7 2.6-1 0-.1-.3-.3-.9-.3-.6 0-1.4.1-2.2.6s-1.3 1.2-1.5 1.7c-.2.6-.1.9 0 .9zm1.7 12.8c0-.1-.9.3-2.3.9-.3.2-.7.3-.9.1s-.3-.6-.4-1.1c-.2-1-.4-2-.6-3.1-.8-4.3-1.6-7.8-1.8-7.8s.4 3.6 1.2 7.9c.2 1.1.4 2.1.6 3 .1.4.2 1 .6 1.4.2.2.6.2.8.1l.6-.3c1.4-.5 2.2-1 2.2-1.1zm4.2-1.4c-.2.1.6 1.5.1 3.2-.6 1.7-2.1 2.4-2 2.6 0 .1.5.1 1.1-.3.6-.4 1.4-1.1 1.7-2.1s.2-2-.1-2.6-.7-.9-.8-.8zm-8.8-15.6c.3.3 1.5-.7 3.1-1.4 1.6-.8 3-1.1 3.1-1.5 0-.2-.4-.4-1.1-.4-.7 0-1.6.1-2.6.6s-1.7 1.1-2.1 1.6c-.5.6-.6 1-.4 1.1zm-9.7 12c.4.2 1.1-.7 2.1-1.3 1-.7 2.1-1 2.1-1.4 0-.2-.3-.4-.9-.4-.5 0-1.3.1-2 .6s-1.2 1.1-1.4 1.6c-.2.4-.1.8.1.9z" style="fill:#263238"/><path d="M575.7 203.4c.1-.1 4.6-5.2 7.9.6 3.3 5.7-3.2 7.9-3.3 7.7 0-.2-4.6-8.3-4.6-8.3z" style="fill:#ffbe9d"/><path d="M580.9 208.5h.4c.2 0 .5-.1.8-.4.5-.6.4-1.8-.1-2.9-.3-.5-.7-1-1.1-1.3-.4-.3-.9-.5-1.2-.3-.3.1-.5.4-.4.6 0 .2.1.3.1.3s-.2 0-.3-.3c0-.1-.1-.3 0-.5s.2-.4.5-.5c.5-.2 1.1 0 1.6.3s.9.8 1.3 1.4c.6 1.2.7 2.6 0 3.3-.3.3-.8.4-1 .4-.5 0-.6-.1-.6-.1z" style="fill:#eb996e"/><path d="M538 204.2c1.9 1.9 7.6.7 11.1-1.9 3.2-2.5 3.7-5.3 5.3-8.1 1-1.8 1-1.8 3.3-3 1.9-.9 4.1.4 6.1 1.2 1 5.2 4.9 9.2 8.7 12.9.4.4.9.8 1.5.9 1 .1 1.7-.9 1.9-1.9.3-1.5-.2-3.1-.7-4.6-1.3-3.4-3.2-6.5-5.7-9.1s-5.7-4.5-9.2-5.3c-4.4-.9-9.1.1-12.9 2.5-3.8 2.4-6.7 6.2-8.3 10.4-.9 1.8-1.4 3.9-1.1 6" style="fill:#263238"/><path d="M587.5 224.3s-10.7 22.7-14.3 21.9c-.7-.2-2.4-3.8-2.4-3.8l-3.2 10.3s24.5 40.3 29.1 47.4c2.3 3.5 3.6 6.3 4.4 8.2.7 1.9 1.1 7 2.9 7.9l-.1 8.1s33.4 12.3 53.5-2.7l-1.6-7.4s-13.9-35.7-18.6-44.3c-1.3-2.4-12.2-26.2-27.4-35.8-13.2-8.4-22.3-9.8-22.3-9.8z" style="fill:#5352ed"/><path d="M568 253c-.8.6-3 18.3-3 18.3l15.8 6.3.8-11L568 253z" style="fill:#7e7efc"/><path d="m531 272 35.2 7.4 10.3-14.8 18.2 13.1s-10.3 12.4-16.8 18.3c-2.1 1.9-5 2.9-7.8 2.3-3.4-.8-43.4-16.2-43.4-16.2L531 272z" style="fill:#ffbe9d"/><path d="M531 272s-.1.2-.3.7-.4 1.1-.8 2c-.7 1.7-1.7 4.2-3 7.5l-.1-.2c6.6 2.5 16.2 6.1 27.9 10.5 2.9 1.1 6 2.2 9.2 3.4 1.6.6 3.2 1.2 4.8 1.7.8.3 1.6.6 2.5.6.9.1 1.7 0 2.6-.2 1.7-.4 3.2-1.4 4.5-2.7l3.9-3.9c2.6-2.7 5.2-5.6 7.7-8.5 1.6-1.8 3.1-3.6 4.6-5.3v.4c-6.4-4.6-12.5-9-18.2-13.1l.3-.1c-3.7 5.3-7.2 10.3-10.4 14.8l-.1.1h-.1c-10.6-2.3-19.4-4.2-25.5-5.5-3.1-.7-5.5-1.2-7.1-1.6-.8-.2-1.4-.3-1.9-.4-.3-.2-.5-.2-.5-.2s.2 0 .6.1c.4.1 1.1.2 1.9.4 1.7.3 4.1.8 7.1 1.4 6.2 1.3 15 3.1 25.7 5.3l-.2.1c3.2-4.6 6.6-9.5 10.3-14.9l.1-.2.2.1c5.7 4.1 11.8 8.5 18.2 13l.2.2-.2.2c-1.5 1.8-3 3.6-4.6 5.3-2.6 3-5.2 5.8-7.8 8.6-1.3 1.4-2.6 2.7-4 4-1.3 1.3-3 2.4-4.8 2.8-.9.2-1.8.3-2.7.2-.9-.1-1.8-.4-2.6-.7-1.7-.6-3.3-1.1-4.9-1.7-3.2-1.2-6.2-2.3-9.1-3.4-11.7-4.4-21.3-8.1-27.8-10.7h-.1l.1-.1c1.4-3.3 2.4-5.8 3.2-7.5.4-.8.6-1.5.8-1.9.3-.4.4-.6.4-.6z" style="fill:#eb996e"/><path d="M551.1 244.2s-8.5-9.6-11.5-10.4c-3-.8-13.4 1.5-13.5 2.9-.1 1.3 1.5 3.2 1.5 3.2s-3 .7-3.4 1.7-.1 2-.1 2l4.2.9 4.4 2.8s.3 1.8 1.9 3c1.6 1.2 6.9 3.2 8.2 3.4l1.8 4.9 9.4-8.1-2.9-6.3z" style="fill:#ffbe9d"/><path d="M588.8 240.6c-.4.6-17.5 27.9-17.5 27.9s17 10.6 25.1 10.9l6.7-8.7 10.4-16s3.5-11.3-1.4-16.4c-6.1-6.2-16.2-8.7-23.3 2.3z" style="fill:#5352ed"/><path d="M569.1 256.1s-.1 0 0 0c-.1 0-.1 0 0 0 0-.1 0 0 0 0 .1 0 .2.1.2.2.1.2.3.5.6.9.5.8 1.1 1.8 1.7 3 1.3 2.4 2.2 4.4 2.1 4.4-.1.1-1.2-1.8-2.5-4.2-.6-1.2-1.2-2.3-1.6-3.1-.2-.4-.3-.7-.4-1-.1 0-.1-.1-.1-.2-.1 0-.1 0 0 0z" style="fill:#263238"/><path d="m613.4 254.7-10.8 15.6-6.3 9.1c-8.1-.4-25.1-10.9-25.1-10.9s17.1-27.3 17.5-27.9c0 0 7.1-12 17-6.9" style="fill:#5352ed"/><path d="M605.7 233.6s-.1 0-.3-.1-.4-.2-.7-.3c-.6-.3-1.6-.6-3-.7-1.3-.1-3 .1-4.7.8s-3.5 2-5.2 3.7c-.8.9-1.6 1.8-2.4 2.9-.7 1.1-1.4 2.3-2.2 3.4-1.5 2.4-3.1 5-4.8 7.7-3.4 5.4-7.1 11.4-11.1 17.6l-.1-.4c.6.4 1.2.7 1.9 1.1 4 2.3 7.9 4.4 11.8 6.2 3.9 1.7 7.7 3.3 11.3 3.6l-.2.1c5.1-7.3 9.4-13.5 12.4-17.8 1.5-2.1 2.7-3.8 3.5-5 .4-.6.7-1 .9-1.3s.3-.4.3-.4-.1.2-.3.5-.5.8-.9 1.4c-.8 1.2-2 2.9-3.4 5.1-3 4.4-7.2 10.6-12.3 17.9l-.1.1h-.1c-3.8-.3-7.6-1.9-11.5-3.6-3.9-1.8-7.8-3.9-11.8-6.2-.6-.4-1.3-.8-1.9-1.1l-.2-.1.1-.2c3.9-6.3 7.7-12.2 11.1-17.6 1.7-2.7 3.3-5.2 4.8-7.6.8-1.2 1.5-2.4 2.2-3.5.8-1.1 1.6-2 2.4-2.9 1.7-1.7 3.6-3 5.4-3.7 1.8-.7 3.5-.9 4.8-.7s2.3.5 3 .8c.3.1.5.2.7.3h.6z" style="fill:#263238"/><path d="M605.7 312.8c8.4-1.8 16.7-4.5 24.5-8.2" style="fill:#7e7efc"/><path d="M630.2 304.6s-.3.2-.9.5c-.6.3-1.4.7-2.5 1.2-2.1 1-5.1 2.2-8.5 3.3-3.4 1.1-6.5 2-8.8 2.5-1.1.3-2.1.4-2.7.5-.6.1-1 .1-1 .1 0-.1 1.4-.4 3.6-1 2.3-.6 5.4-1.5 8.7-2.6 3.4-1.1 6.4-2.3 8.5-3.2 2.2-.8 3.5-1.4 3.6-1.3z" style="fill:#263238"/><path d="M611.9 316.1c11.7 0 23.5-1.8 34.6-5.5" style="fill:#5352ed"/><path d="M646.5 310.6s-.4.2-1.3.5c-.8.3-2.1.7-3.6 1.2-3.1.9-7.4 2-12.2 2.8s-9.2 1.1-12.4 1.2h-3.8c-.9 0-1.4-.1-1.4-.1s.5-.1 1.4-.1 2.2-.1 3.8-.2c3.2-.2 7.6-.6 12.4-1.3 4.8-.8 9.1-1.8 12.2-2.6 1.5-.4 2.8-.8 3.6-1 .8-.3 1.3-.4 1.3-.4z" style="fill:#263238"/><path d="M587.8 285.7c2.8-.6 4.6-1.3 7.4-1.9 1.2-.2 2.5-.5 3.5-1.1 1.1-.6 1.9-1.5 2.8-2.4 5.5-6.3 9-14.3 9.9-22.7l-15.1 21.7-2.7-.3-5.8 6.7zm19.8 29.1h-1.2c9.7 2 19.9 1.7 29.5-1.1 2-.6 4.1-1.4 5.4-3-11.1 2.4-22.4 3.8-33.7 4.1z" style="opacity:.3;enable-background:new"/><path d="m480.6 259.3-1.6-11.6s-7.1 5.1-7.1 5.3v6.6l8.7-.3z" style="fill:#e0e0e0"/><path d="m476.5 250.3 1.3-2.5 23.6 12-1.3 2.5-23.6-12z" style="fill:#e0e0e0"/><path d="M500 262.3s.1-.3.3-.7c.2-.5.5-1.1.9-1.8v.1c-4.1-2-13.2-6.5-23.7-11.9.7-.2.2-.1.3-.1v.1l-.1.2-.2.3-.3.6-.6 1.2-.1-.3c6.6 3.4 12.4 6.4 16.6 8.6 2.1 1.1 3.8 2 5 2.6l1.4.7c.4.3.5.4.5.4s-.2-.1-.5-.2c-.4-.2-.8-.4-1.3-.6-1.2-.6-2.9-1.4-5-2.5-4.3-2.1-10.2-5.1-16.9-8.5l-.2-.1.1-.2.6-1.2.3-.6.2-.3.1-.2v-.1c.2-.1-.3.1.4-.1 10.5 5.3 19.5 10 23.5 12.1l.1.1-.1.1c-.4.8-.8 1.4-1 1.8s-.3.6-.3.5z" style="fill:#263238"/><path d="M489.7 259.4s3-6.6 3.3-6.3c.3.2 27.3 13.6 27.2 13.9-.1.2-5.8 8.1-5.8 8.1l-24.7-15.7z" style="fill:#263238"/><path d="M384.9 161.8c-3.2 3.2-5.4 8.2-5.5 12.7s.9 9 2.7 13.2l13.9-31c-4.4.4-8.1 2.1-11.1 5.1z" style="fill:#ebebeb"/><path d="m471.1 234.9 4.9 2.6-.9 1.6-4.9-2.6.9-1.6z" style="fill:#e0e0e0"/><path d="m470.6 232.2 2.2 1.2-2.9 5.4-2.2-1.2 2.9-5.4zm-68.9 243.9c-1.2-.4-1.8-1.6-1.5-2.7l63.9-198.1 4.2 1.3-63.9 198.1c-.3 1.1-1.5 1.7-2.7 1.4z" style="fill:#e0e0e0"/><path d="M401.7 476.1s.4.2 1.1 0c.3-.1.8-.2 1.2-.6.4-.4.6-1 .8-1.6.9-2.7 2.1-6.6 3.7-11.7 3.3-10.2 8-24.9 13.8-43.1 11.7-36.4 28-86.8 45.9-142.5l.2.3-2.1-.6c-.7-.2-1.5-.4-2.2-.6l.3-.2c-18 55.7-34.3 106-46.1 142.4-5.9 18.2-10.7 32.9-14 43.1-1.7 5.1-2.9 9-3.8 11.7-.2.7-.5 1.3-.4 1.8s.3.9.6 1.2c.6.3 1 .3 1 .4 0 0-.1 0-.3-.1-.2-.1-.4-.2-.7-.4-.3-.3-.5-.6-.6-1.2s.1-1.2.3-1.8c.9-2.7 2.1-6.6 3.7-11.7 3.3-10.2 8-24.9 13.8-43.1 11.7-36.4 28-86.8 45.9-142.5l.1-.2.2.1c.7.2 1.4.4 2.2.6l2.1.6.3.1-.1.3c-18 55.7-34.3 106-46.1 142.5-5.9 18.2-10.7 32.9-14 43.1-1.7 5.1-2.9 9-3.8 11.7l-.3.9c-.1.3-.3.5-.5.7-.4.4-.8.5-1.2.6-.4.1-.6 0-.8 0-.1-.2-.2-.2-.2-.2z" style="fill:#263238"/><path d="m475.5 474-1.4-198.2h4.5L480 474c0 1.2-1 2.2-2.2 2.2-1.3 0-2.3-1-2.3-2.2z" style="fill:#e0e0e0"/><path d="M475.5 474s0 .4.3 1c.2.3.5.6.9.9.4.2 1.1.3 1.7.1.6-.2 1.3-.8 1.4-1.6.1-.8 0-1.7 0-2.7 0-2 0-4.3-.1-6.9-.1-10.3-.2-25.3-.4-43.7-.3-36.9-.7-87.9-1.1-144.1v-1.2l.3.3h-4.4l.3-.3c.3 55 .7 104.6.9 140.4.1 17.9.2 32.3.2 42.3V474v-4c0-2.6-.1-6.5-.1-11.5-.1-10-.2-24.4-.4-42.3-.3-35.8-.6-85.4-1-140.4v-.3h5v1.5c.4 56.3.7 107.2.9 144.1.1 18.4.2 33.4.2 43.7v6.9c0 1 .1 1.9 0 2.8-.2.9-.9 1.4-1.5 1.6-.7.2-1.3.1-1.8-.1s-.8-.6-.9-.9c-.2-.3-.2-.6-.2-.8-.2-.2-.2-.3-.2-.3z" style="fill:#263238"/><path d="m548.6 474.1-62.8-197.7 4.3-1.2 62.8 197.7c.4 1.1-.3 2.3-1.5 2.7-1.2.3-2.5-.4-2.8-1.5z" style="fill:#e0e0e0"/><path d="M548.6 474.1s.1.4.6.9c.3.2.7.5 1.2.6s1.2 0 1.7-.5c.5-.4.9-1.2.7-2.1-.3-.8-.6-1.7-.9-2.7-.6-2-1.4-4.3-2.2-6.8-3.3-10.3-8-25.1-13.9-43.5-11.7-36.8-27.9-87.5-45.7-143.6-.1-.4-.3-.8-.4-1.2l.3.2c-1.5.4-2.9.9-4.3 1.2l.2-.3c17.4 54.9 33.1 104.3 44.4 140.1 5.6 17.9 10.2 32.3 13.3 42.3 1.6 5 2.8 8.8 3.6 11.5.4 1.3.7 2.3.9 3 .4.6.5.9.5.9s-.1-.3-.3-1-.5-1.7-1-3c-.8-2.6-2.1-6.5-3.7-11.4-3.2-10-7.8-24.4-13.5-42.2-11.4-35.7-27.1-85.1-44.6-140l-.1-.3.3-.1c1.3-.4 2.8-.8 4.3-1.2l.2-.1.1.2c.1.4.2.8.4 1.2 17.8 56.1 33.9 106.9 45.6 143.6 5.8 18.4 10.5 33.3 13.8 43.6.8 2.6 1.5 4.9 2.1 6.8.3 1 .6 1.9.9 2.7.2.9-.2 1.7-.8 2.2s-1.3.6-1.8.5-1-.3-1.2-.6c-.3-.3-.4-.5-.5-.7-.2-.1-.2-.2-.2-.2z" style="fill:#263238"/><path d="M461.3 269.9h29.2v7.6h-29.2v-7.6z" style="fill:#263238"/><path d="M469.2 260.7h12.4v10h-12.4v-10zm-2-3.7h16.3v3.6h-16.3V257z" style="fill:#263238"/><circle cx="474.2" cy="248" r="5.4" style="fill:#e0e0e0"/><path d="m478 229.1 8.1 3.9-7.6 15.6-8.1-3.9 7.6-15.6z" style="fill:#e0e0e0"/><path d="m475.3 223.1 17.2 8.4-3.4 6.9L472 230l3.3-6.9z" style="fill:#e0e0e0"/><path d="m440.8 187.4 75.3 36.6-7.4 15.2-75.3-36.6 7.4-15.2z" style="fill:#455a64"/><path d="m453 214.5-72.4-26.9 15-31.4 66.7 39.3-9.3 19z" style="fill:#455a64"/><path d="m378.3 187.6 16.4-33.8 6.1 3-16.4 33.8-6.1-3z" style="fill:#263238"/><path d="m517.2 225.3 17.9 8.2-6.6 12.6-17.6-8 6.3-12.8z" style="fill:#455a64"/><path d="m532.9 237.3 6.4-12.7 5.9 3.2-5.5 12.6-6.8-3.1z" style="fill:#455a64"/><path d="m539.3 223.5 7 3.7-.9 1.6-7-3.7.9-1.6zm-10.8 22.6 11.2-5.7-6.8-3.1-4.4 8.8z" style="fill:#455a64"/><path d="m476.5 224.7 7.7-17.1 14.6 6.8-7.7 17.3-14.6-7z" style="fill:#e0e0e0"/><path d="M462.2 195.4c.1.1-1.8 4.3-4.4 9.5-2.5 5.2-4.7 9.4-4.8 9.3-.1-.1 1.8-4.3 4.4-9.5 2.5-5.2 4.7-9.4 4.8-9.3zm41.5 41.3c-.1.1-6.4-2.8-14.1-6.5s-13.9-6.8-13.9-7c.1-.1 6.4 2.8 14.1 6.5 7.8 3.8 14 6.9 13.9 7zm-14.5 1.7c-.1.1-4-1.6-8.7-3.9-4.8-2.3-8.5-4.3-8.5-4.4.1-.1 4 1.6 8.7 3.9 4.7 2.3 8.5 4.2 8.5 4.4z" style="fill:#263238"/><path d="M476.5 232.1c.1.1-1.1 2.7-2.6 5.9s-2.9 5.7-3 5.7c-.1-.1 1.1-2.7 2.6-5.9s2.9-5.7 3-5.7z" style="fill:#263238"/><path d="M479.3 248c-.1 0 0-.4-.3-1.2-.2-.7-.7-1.8-1.9-2.7-1.1-.8-2.9-1.3-4.6-.6-1.7.6-3.2 2.4-3.2 4.5s1.4 3.9 3.2 4.5c1.7.6 3.5.2 4.6-.7 1.1-.8 1.6-1.9 1.9-2.7.2-.6.2-1.1.3-1.1v.3c0 .2 0 .5-.1.9-.2.8-.6 2-1.8 2.9-1.1.9-3.1 1.5-5 .8-1.9-.6-3.5-2.6-3.5-5 0-2.3 1.6-4.3 3.5-5s3.8-.1 5 .8c1.2.9 1.7 2.1 1.8 2.9.1.4.1.7.1.9v.5zm23.2-8.8 9.8-20.1 7.1 3.5-9.8 20.1-7.1-3.5zm-60.7-49.1c0 .1-7.2 1-16.1 2s-16.1 1.6-16.2 1.5c0-.1 7.2-1 16.1-2s16.2-1.7 16.2-1.5zm-1.9-3.7c0 .1-1.1.3-2.9.5-1.8.3-4.4.6-7.2.8-2.8.2-5.4.4-7.2.4-1.8.1-3 0-3 0 0-.1 1.1-.2 3-.3 2-.2 4.5-.4 7.2-.6 2.7-.2 5.2-.5 7.2-.6 1.7-.1 2.8-.2 2.9-.2z" style="fill:#263238"/><path d="M457.4 196.6c-.1.1-13-7.3-28.8-16.6-15.9-9.3-28.7-17-28.6-17.1s13 7.3 28.8 16.6c15.9 9.3 28.7 17 28.6 17.1zm17.7 9.5c-.1.1-2.7-.9-5.8-2.4-3.1-1.4-5.6-2.7-5.6-2.8.1-.1 2.6.9 5.8 2.4 3.1 1.4 5.6 2.6 5.6 2.8z" style="fill:#fff"/><path d="M432.3 356h87.3v5.8h-87.3V356z" style="fill:#263238"/><path d="m528 282.2-18.5-2.2s-2.1-1.9-1.9-2.9c.1-1 1.2-1.3 2.4-.5s4.5.3 4.5.3.3-.5-1-.6c-1.4-.1-9.1-1.1-9.6-1.9s-1.2-1.8-.3-2.5c0 0-2.9-.3-3.3-1s-.6-2.4.5-2.4 4.5-.2 4.5-.2-1.6-.8-1.5-1.5.2-1.5 1-1.7 9.8-.7 9.8-.7-2.4-1.6-3-2.6c-.3-.5-.1-1.7-.1-1.7s4.3 2.6 7.4 3.5c0 0 5.1 1.4 6.7 2.5 1.6 1.1 6.4 6.3 6.4 6.3" style="fill:#ffbe9d"/><path d="m531.9 272.4-.3-.3-.9-.9-3.5-3.5c-.8-.7-1.6-1.6-2.8-2-1.2-.5-2.5-1-3.9-1.4-.7-.2-1.4-.4-2.2-.7-.8-.3-1.5-.6-2.3-.9-1.5-.7-3.1-1.5-4.7-2.4l.3-.2c-.1.4-.1.9 0 1.3.1.3.5.7.8 1 .7.6 1.5 1.2 2.3 1.7l.6.4h-.7c-2.2.1-4.5.3-6.8.5-.6 0-1.2.1-1.8.1-.6.1-1.3 0-1.5.4-.2.2-.2.4-.3.7l-.1.4v.3c.2.4.8.8 1.3 1l.8.4h-.9c-.8 0-1.7.1-2.6.1-.4 0-.9 0-1.3.1h-.7c-.2 0-.3.1-.4.2-.2.3-.2.8-.1 1.2 0 .2.1.4.2.6 0 .1.3.2.4.3.8.3 1.8.5 2.7.6l.7.1-.5.4c-.4.3-.4.8-.1 1.4.1.3.3.5.4.8.1.1.4.2.6.3 1.1.3 2.3.5 3.5.7s2.3.4 3.4.5c.6.1 1.1.1 1.7.2.3 0 .6.1.9.1.1 0 .3.1.5.2s.3.4.1.7l-.1.1h-.1c-1 .1-2 .2-3 .1-.5 0-1-.1-1.5-.4-.4-.3-.8-.5-1.2-.5-.4-.1-.8.1-.9.4-.2.4-.1.7.1 1.1.4.7 1 1.4 1.6 1.9l-.1-.1c5.6.7 10.2 1.3 13.5 1.7 1.6.2 2.8.4 3.7.5.4.1.7.1 1 .1.2 0 .3.1.3.1h-.3c-.3 0-.6 0-1-.1-.9-.1-2.1-.2-3.7-.4-3.2-.4-7.9-.9-13.5-1.5h-.1c-.6-.6-1.2-1.2-1.7-2-.1-.2-.2-.4-.3-.7-.1-.3 0-.5.1-.8.2-.5.9-.8 1.4-.7.5.1 1 .3 1.4.6.4.2.8.3 1.3.3.9.1 1.9 0 2.9-.2l-.2.1c-.1 0-.2-.1-.3-.1-.2-.1-.5-.1-.8-.1-.6-.1-1.1-.1-1.7-.2-1.1-.1-2.3-.3-3.4-.5-1.2-.2-2.3-.4-3.5-.8-.1 0-.3-.1-.5-.2-.1 0-.1 0-.2-.1l-.2-.2c-.2-.3-.3-.5-.5-.8-.1-.3-.3-.6-.2-1 0-.4.2-.8.5-1l.1.5c-.9-.1-1.9-.2-2.8-.6-.2-.1-.5-.2-.7-.5-.1-.2-.2-.5-.3-.7-.1-.5-.2-1.1.2-1.6.2-.3.5-.4.8-.4h.7c.4 0 .9 0 1.3-.1.9 0 1.7-.1 2.6-.1l-.1.5c-.6-.3-1.1-.6-1.6-1.3 0-.1-.1-.2-.1-.3v-.3l.1-.5c.1-.3.2-.7.4-.9.2-.3.7-.4 1-.5l.9-.1c.6 0 1.2-.1 1.8-.1 2.4-.2 4.7-.3 6.8-.4l-.1.4c-.8-.6-1.6-1.1-2.4-1.8-.2-.2-.4-.3-.5-.5-.1-.1-.2-.2-.2-.3-.1-.1-.1-.3-.2-.4-.1-.5-.1-1 0-1.5v-.3l.3.2c3.1 1.9 6.1 3.3 9 4 1.4.5 2.7.9 3.9 1.5 1.2.5 2.1 1.4 2.9 2.1 1.5 1.5 2.7 2.7 3.4 3.6.4.4.6.7.9 1 .3.3.4.4.3.4z" style="fill:#eb996e"/><path d="M515.5 273c0 .1-.7.1-1.8.1s-2.6-.2-4.2-.4c-1.5-.2-2.9-.4-4.2-.6-1.1-.1-1.7-.2-1.7-.3 0-.2 2.7-.1 5.9.4 1.5.2 2.9.4 4.2.6 1.2.1 1.8.1 1.8.2zm-.6-4.2c0 .1-2.2 0-5 0-1.4 0-2.7 0-3.6-.2-.9-.1-1.5-.3-1.5-.3 0-.1 2.2 0 5 0 1.4 0 2.7 0 3.6.2 1 .1 1.6.2 1.5.3z" style="fill:#eb996e"/><path d="M545.3 239.8c-.2-.1-5.2.2-7.7-.6s-3-.3-3.4.5c-.3.7.4 3.2 3.9 4 2.9.6 5.1 1.1 5.1 1.3 0 0-.8 3.6.9 6.3" style="fill:#ffbe9d"/><path d="M544.2 251.2s-.1-.1-.3-.4c-.2-.3-.4-.7-.6-1.2-.4-1.1-.6-2.8-.3-4.8 0 0 .1.1 0 .1h-.1l-.2-.1-.4-.1c-.3-.1-.6-.1-.9-.2-.6-.1-1.3-.3-2-.4-.7-.1-1.4-.3-2.1-.5-.7-.2-1.4-.6-2.1-1.1-.8-.7-1.5-1.6-1.4-2.8.1-.3.2-.5.4-.8.2-.2.4-.4.7-.5.5-.1 1-.1 1.5 0 .4.1.9.2 1.3.3.4.1.8.2 1.1.3.8.1 1.5.2 2.1.3 2.6.2 4.3.2 4.3.3 0 0-.4.1-1.2.1h-3.2c-.7 0-1.4-.1-2.2-.2l-1.2-.3-1.2-.3c-.4-.1-.9-.1-1.2 0-.2.1-.3.2-.4.3-.1.1-.2.4-.2.5-.1.8.5 1.7 1.2 2.3.6.5 1.2.8 1.9 1s1.4.3 2.1.5c.7.2 1.3.3 2 .4.3.1.6.2.9.2l.4.1c.1 0 .1 0 .2.1 0 0 .1 0 .1.1h.1s.1.1.1.2c-.4 1.9-.2 3.5.1 4.6.4 1.4.7 1.9.7 2z" style="fill:#eb996e"/><path d="m650.1 183.6 1.6 1.3c.2.1.4.2.6.1l1.9-.6c.5-.2 1 .4.8.9l-.7 1.9c-.1.2-.1.4.1.6l1.1 1.7c.3.5 0 1.1-.6 1.1l-2-.1c-.2 0-.4.1-.6.3l-1.2 1.6c-.3.4-1.1.3-1.2-.2l-.5-2c-.1-.2-.2-.4-.4-.5l-2-.7c-.5-.2-.6-.9-.1-1.2l1.7-1.1c.2-.1.3-.3.3-.6l.1-2c0-.5.6-.8 1.1-.5zm-1.2-7.5.8.6c.1.1.2.1.3.1l1-.3c.3-.1.5.2.4.4l-.4.9v.3l.6.8c.2.2 0 .5-.3.5l-1-.1c-.1 0-.2 0-.3.1l-.6.8c-.2.2-.5.2-.6-.1l-.3-1c0-.1-.1-.2-.2-.2l-.9-.3c-.3-.1-.3-.4-.1-.6l.8-.5c.1-.1.1-.2.2-.3v-1c0-.1.4-.2.6-.1z" style="fill:#5352ed"/></svg>